  0
SECTION
  2
HEADER
  9
$ANGBASE
  50
0.0
  9
$ANGDIR
  70
1
  9
$MEASUREMENT
  70
0
  0
ENDSEC
  0
SECTION
  2
TABLES
  0
TABLE
  2
LTYPE
  70
4
  0
LTYPE
  5
40F
  2
CONTINUOUS
  70
0
  3
Solid line
  72
65
  73
0
  40
0.0
  0
LTYPE
  5
410
  2
DASHDOT
 70
0
  3
Dash Dot ____ _ ____ _
 72
65
 73
4
 40
2.0
 49
1.25
 49
-0.25
 49
0.25
 49
-0.25
  0
LTYPE
  5
411
  2
DASHED
 70
0
  3
Dashed __ __ __ __ __
 72
65
 73
2
 40
0.75
 49
0.5
 49
-0.25
  0
LTYPE
  5
43B
  2
DOTTED
 70
0
  3
Dotted .  .  .  .
 72
65
 73
2
 40
0.2
 49
0.0
 49
-0.2
  0
ENDTAB
  0
TABLE
  2
STYLE
  70
4
  0
STYLE
  2
KICAD
  70
0
  40
0
  41
1
  42
1
  50
0
  71
0
  3
isocp.shx
  0
STYLE
  2
KICADB
  70
0
  40
0
  41
1
  42
1
  50
0
  71
0
  3
isocp.shx
  0
STYLE
  2
KICADI
  70
0
  40
0
  41
1
  42
1
  50
15
  71
0
  3
isocp.shx
  0
STYLE
  2
KICADBI
  70
0
  40
0
  41
1
  42
1
  50
15
  71
0
  3
isocp.shx
  0
ENDTAB
  0
TABLE
  2
LAYER
  70
1
  0
LAYER
  2
BLACK
  70
0
  62
7
  6
CONTINUOUS
  0
ENDTAB
  0
ENDSEC
  0
SECTION
  2
ENTITIES
0
LINE
8
BLACK
6
CONTINUOUS
10
5.88587
20
-6.10257
11
5.89686
21
-6.10565
0
LINE
8
BLACK
6
CONTINUOUS
10
5.89686
20
-6.10565
11
5.90733
21
-6.1102
0
LINE
8
BLACK
6
CONTINUOUS
10
5.90733
20
-6.1102
11
5.91709
21
-6.11613
0
LINE
8
BLACK
6
CONTINUOUS
10
5.91709
20
-6.11613
11
5.92595
21
-6.12334
0
LINE
8
BLACK
6
CONTINUOUS
10
5.92595
20
-6.12334
11
5.93374
21
-6.13168
0
LINE
8
BLACK
6
CONTINUOUS
10
5.93374
20
-6.13168
11
5.94033
21
-6.14101
0
LINE
8
BLACK
6
CONTINUOUS
10
5.94033
20
-6.14101
11
5.94558
21
-6.15115
0
LINE
8
BLACK
6
CONTINUOUS
10
5.94558
20
-6.15115
11
5.9494
21
-6.16191
0
LINE
8
BLACK
6
CONTINUOUS
10
5.9494
20
-6.16191
11
5.95173
21
-6.17309
0
LINE
8
BLACK
6
CONTINUOUS
10
5.95173
20
-6.17309
11
5.95251
21
-6.18448
0
LINE
8
BLACK
6
CONTINUOUS
10
5.95251
20
-6.18448
11
5.95173
21
-6.19587
0
LINE
8
BLACK
6
CONTINUOUS
10
5.95173
20
-6.19587
11
5.9494
21
-6.20705
0
LINE
8
BLACK
6
CONTINUOUS
10
5.9494
20
-6.20705
11
5.94558
21
-6.21781
0
LINE
8
BLACK
6
CONTINUOUS
10
5.94558
20
-6.21781
11
5.94033
21
-6.22795
0
LINE
8
BLACK
6
CONTINUOUS
10
5.94033
20
-6.22795
11
5.93374
21
-6.23728
0
LINE
8
BLACK
6
CONTINUOUS
10
5.93374
20
-6.23728
11
5.92595
21
-6.24562
0
LINE
8
BLACK
6
CONTINUOUS
10
5.92595
20
-6.24562
11
5.91709
21
-6.25283
0
LINE
8
BLACK
6
CONTINUOUS
10
5.91709
20
-6.25283
11
5.90733
21
-6.25876
0
LINE
8
BLACK
6
CONTINUOUS
10
5.90733
20
-6.25876
11
5.89686
21
-6.26331
0
LINE
8
BLACK
6
CONTINUOUS
10
5.89686
20
-6.26331
11
5.88587
21
-6.26639
0
LINE
8
BLACK
6
CONTINUOUS
10
5.88587
20
-6.26639
11
5.87455
21
-6.26795
0
LINE
8
BLACK
6
CONTINUOUS
10
5.87455
20
-6.26795
11
5.86313
21
-6.26795
0
LINE
8
BLACK
6
CONTINUOUS
10
5.86313
20
-6.26795
11
5.85182
21
-6.26639
0
LINE
8
BLACK
6
CONTINUOUS
10
5.85182
20
-6.26639
11
5.84083
21
-6.26331
0
LINE
8
BLACK
6
CONTINUOUS
10
5.84083
20
-6.26331
11
5.83035
21
-6.25876
0
LINE
8
BLACK
6
CONTINUOUS
10
5.83035
20
-6.25876
11
5.8206
21
-6.25283
0
LINE
8
BLACK
6
CONTINUOUS
10
5.8206
20
-6.25283
11
5.81174
21
-6.24562
0
LINE
8
BLACK
6
CONTINUOUS
10
5.81174
20
-6.24562
11
5.80395
21
-6.23728
0
LINE
8
BLACK
6
CONTINUOUS
10
5.80395
20
-6.23728
11
5.79736
21
-6.22795
0
LINE
8
BLACK
6
CONTINUOUS
10
5.79736
20
-6.22795
11
5.79211
21
-6.21781
0
LINE
8
BLACK
6
CONTINUOUS
10
5.79211
20
-6.21781
11
5.78829
21
-6.20705
0
LINE
8
BLACK
6
CONTINUOUS
10
5.78829
20
-6.20705
11
5.78596
21
-6.19587
0
LINE
8
BLACK
6
CONTINUOUS
10
5.78596
20
-6.19587
11
5.78518
21
-6.18448
0
LINE
8
BLACK
6
CONTINUOUS
10
5.78518
20
-6.18448
11
5.78596
21
-6.17309
0
LINE
8
BLACK
6
CONTINUOUS
10
5.78596
20
-6.17309
11
5.78829
21
-6.16191
0
LINE
8
BLACK
6
CONTINUOUS
10
5.78829
20
-6.16191
11
5.79211
21
-6.15115
0
LINE
8
BLACK
6
CONTINUOUS
10
5.79211
20
-6.15115
11
5.79736
21
-6.14101
0
LINE
8
BLACK
6
CONTINUOUS
10
5.79736
20
-6.14101
11
5.80395
21
-6.13168
0
LINE
8
BLACK
6
CONTINUOUS
10
5.80395
20
-6.13168
11
5.81174
21
-6.12334
0
LINE
8
BLACK
6
CONTINUOUS
10
5.81174
20
-6.12334
11
5.8206
21
-6.11613
0
LINE
8
BLACK
6
CONTINUOUS
10
5.8206
20
-6.11613
11
5.83035
21
-6.1102
0
LINE
8
BLACK
6
CONTINUOUS
10
5.83035
20
-6.1102
11
5.84083
21
-6.10565
0
LINE
8
BLACK
6
CONTINUOUS
10
5.84083
20
-6.10565
11
5.85182
21
-6.10257
0
LINE
8
BLACK
6
CONTINUOUS
10
5.85182
20
-6.10257
11
5.86313
21
-6.10101
0
LINE
8
BLACK
6
CONTINUOUS
10
5.86313
20
-6.10101
11
5.87455
21
-6.10101
0
LINE
8
BLACK
6
CONTINUOUS
10
5.87455
20
-6.10101
11
5.88587
21
-6.10257
0
LINE
8
BLACK
6
CONTINUOUS
10
5.79559
20
-6.19501
11
5.79783
21
-6.20533
0
LINE
8
BLACK
6
CONTINUOUS
10
5.79783
20
-6.20533
11
5.80152
21
-6.21522
0
LINE
8
BLACK
6
CONTINUOUS
10
5.80152
20
-6.21522
11
5.80659
21
-6.22449
0
LINE
8
BLACK
6
CONTINUOUS
10
5.80659
20
-6.22449
11
5.81291
21
-6.23294
0
LINE
8
BLACK
6
CONTINUOUS
10
5.81291
20
-6.23294
11
5.82038
21
-6.24041
0
LINE
8
BLACK
6
CONTINUOUS
10
5.82038
20
-6.24041
11
5.82883
21
-6.24674
0
LINE
8
BLACK
6
CONTINUOUS
10
5.82883
20
-6.24674
11
5.8381
21
-6.2518
0
LINE
8
BLACK
6
CONTINUOUS
10
5.8381
20
-6.2518
11
5.84799
21
-6.25549
0
LINE
8
BLACK
6
CONTINUOUS
10
5.84799
20
-6.25549
11
5.85831
21
-6.25773
0
LINE
8
BLACK
6
CONTINUOUS
10
5.85831
20
-6.25773
11
5.86884
21
-6.25849
0
LINE
8
BLACK
6
CONTINUOUS
10
5.86884
20
-6.25849
11
5.87938
21
-6.25773
0
LINE
8
BLACK
6
CONTINUOUS
10
5.87938
20
-6.25773
11
5.88969
21
-6.25549
0
LINE
8
BLACK
6
CONTINUOUS
10
5.88969
20
-6.25549
11
5.89959
21
-6.2518
0
LINE
8
BLACK
6
CONTINUOUS
10
5.89959
20
-6.2518
11
5.90886
21
-6.24674
0
LINE
8
BLACK
6
CONTINUOUS
10
5.90886
20
-6.24674
11
5.91731
21
-6.24041
0
LINE
8
BLACK
6
CONTINUOUS
10
5.91731
20
-6.24041
11
5.92478
21
-6.23294
0
LINE
8
BLACK
6
CONTINUOUS
10
5.92478
20
-6.23294
11
5.9311
21
-6.22449
0
LINE
8
BLACK
6
CONTINUOUS
10
5.9311
20
-6.22449
11
5.93616
21
-6.21522
0
LINE
8
BLACK
6
CONTINUOUS
10
5.93616
20
-6.21522
11
5.93985
21
-6.20533
0
LINE
8
BLACK
6
CONTINUOUS
10
5.93985
20
-6.20533
11
5.9421
21
-6.19501
0
LINE
8
BLACK
6
CONTINUOUS
10
5.9421
20
-6.19501
11
5.94285
21
-6.18448
0
LINE
8
BLACK
6
CONTINUOUS
10
5.94285
20
-6.18448
11
5.9421
21
-6.17395
0
LINE
8
BLACK
6
CONTINUOUS
10
5.9421
20
-6.17395
11
5.93985
21
-6.16363
0
LINE
8
BLACK
6
CONTINUOUS
10
5.93985
20
-6.16363
11
5.93616
21
-6.15373
0
LINE
8
BLACK
6
CONTINUOUS
10
5.93616
20
-6.15373
11
5.9311
21
-6.14447
0
LINE
8
BLACK
6
CONTINUOUS
10
5.9311
20
-6.14447
11
5.92478
21
-6.13601
0
LINE
8
BLACK
6
CONTINUOUS
10
5.92478
20
-6.13601
11
5.91731
21
-6.12855
0
LINE
8
BLACK
6
CONTINUOUS
10
5.91731
20
-6.12855
11
5.90886
21
-6.12222
0
LINE
8
BLACK
6
CONTINUOUS
10
5.90886
20
-6.12222
11
5.89959
21
-6.11716
0
LINE
8
BLACK
6
CONTINUOUS
10
5.89959
20
-6.11716
11
5.88969
21
-6.11347
0
LINE
8
BLACK
6
CONTINUOUS
10
5.88969
20
-6.11347
11
5.87938
21
-6.11122
0
LINE
8
BLACK
6
CONTINUOUS
10
5.87938
20
-6.11122
11
5.86884
21
-6.11047
0
LINE
8
BLACK
6
CONTINUOUS
10
5.86884
20
-6.11047
11
5.85831
21
-6.11122
0
LINE
8
BLACK
6
CONTINUOUS
10
5.85831
20
-6.11122
11
5.84799
21
-6.11347
0
LINE
8
BLACK
6
CONTINUOUS
10
5.84799
20
-6.11347
11
5.8381
21
-6.11716
0
LINE
8
BLACK
6
CONTINUOUS
10
5.8381
20
-6.11716
11
5.82883
21
-6.12222
0
LINE
8
BLACK
6
CONTINUOUS
10
5.82883
20
-6.12222
11
5.82038
21
-6.12855
0
LINE
8
BLACK
6
CONTINUOUS
10
5.82038
20
-6.12855
11
5.81291
21
-6.13601
0
LINE
8
BLACK
6
CONTINUOUS
10
5.81291
20
-6.13601
11
5.80659
21
-6.14447
0
LINE
8
BLACK
6
CONTINUOUS
10
5.80659
20
-6.14447
11
5.80152
21
-6.15373
0
LINE
8
BLACK
6
CONTINUOUS
10
5.80152
20
-6.15373
11
5.79783
21
-6.16363
0
LINE
8
BLACK
6
CONTINUOUS
10
5.79783
20
-6.16363
11
5.79559
21
-6.17395
0
LINE
8
BLACK
6
CONTINUOUS
10
5.79559
20
-6.17395
11
5.79484
21
-6.18448
0
LINE
8
BLACK
6
CONTINUOUS
10
5.79484
20
-6.18448
11
5.79559
21
-6.19501
0
LINE
8
BLACK
6
CONTINUOUS
10
1.98823
20
-5.82698
11
1.99922
21
-5.83006
0
LINE
8
BLACK
6
CONTINUOUS
10
1.99922
20
-5.83006
11
2.0097
21
-5.83461
0
LINE
8
BLACK
6
CONTINUOUS
10
2.0097
20
-5.83461
11
2.01945
21
-5.84054
0
LINE
8
BLACK
6
CONTINUOUS
10
2.01945
20
-5.84054
11
2.02831
21
-5.84775
0
LINE
8
BLACK
6
CONTINUOUS
10
2.02831
20
-5.84775
11
2.0361
21
-5.85609
0
LINE
8
BLACK
6
CONTINUOUS
10
2.0361
20
-5.85609
11
2.04269
21
-5.86542
0
LINE
8
BLACK
6
CONTINUOUS
10
2.04269
20
-5.86542
11
2.04794
21
-5.87556
0
LINE
8
BLACK
6
CONTINUOUS
10
2.04794
20
-5.87556
11
2.05177
21
-5.88632
0
LINE
8
BLACK
6
CONTINUOUS
10
2.05177
20
-5.88632
11
2.05409
21
-5.8975
0
LINE
8
BLACK
6
CONTINUOUS
10
2.05409
20
-5.8975
11
2.05487
21
-5.90889
0
LINE
8
BLACK
6
CONTINUOUS
10
2.05487
20
-5.90889
11
2.05409
21
-5.92028
0
LINE
8
BLACK
6
CONTINUOUS
10
2.05409
20
-5.92028
11
2.05177
21
-5.93146
0
LINE
8
BLACK
6
CONTINUOUS
10
2.05177
20
-5.93146
11
2.04794
21
-5.94222
0
LINE
8
BLACK
6
CONTINUOUS
10
2.04794
20
-5.94222
11
2.04269
21
-5.95236
0
LINE
8
BLACK
6
CONTINUOUS
10
2.04269
20
-5.95236
11
2.0361
21
-5.96169
0
LINE
8
BLACK
6
CONTINUOUS
10
2.0361
20
-5.96169
11
2.02831
21
-5.97003
0
LINE
8
BLACK
6
CONTINUOUS
10
2.02831
20
-5.97003
11
2.01945
21
-5.97724
0
LINE
8
BLACK
6
CONTINUOUS
10
2.01945
20
-5.97724
11
2.0097
21
-5.98317
0
LINE
8
BLACK
6
CONTINUOUS
10
2.0097
20
-5.98317
11
1.99922
21
-5.98772
0
LINE
8
BLACK
6
CONTINUOUS
10
1.99922
20
-5.98772
11
1.98823
21
-5.9908
0
LINE
8
BLACK
6
CONTINUOUS
10
1.98823
20
-5.9908
11
1.97692
21
-5.99235
0
LINE
8
BLACK
6
CONTINUOUS
10
1.97692
20
-5.99235
11
1.9655
21
-5.99235
0
LINE
8
BLACK
6
CONTINUOUS
10
1.9655
20
-5.99235
11
1.95419
21
-5.9908
0
LINE
8
BLACK
6
CONTINUOUS
10
1.95419
20
-5.9908
11
1.94319
21
-5.98772
0
LINE
8
BLACK
6
CONTINUOUS
10
1.94319
20
-5.98772
11
1.93272
21
-5.98317
0
LINE
8
BLACK
6
CONTINUOUS
10
1.93272
20
-5.98317
11
1.92296
21
-5.97724
0
LINE
8
BLACK
6
CONTINUOUS
10
1.92296
20
-5.97724
11
1.9141
21
-5.97003
0
LINE
8
BLACK
6
CONTINUOUS
10
1.9141
20
-5.97003
11
1.90631
21
-5.96169
0
LINE
8
BLACK
6
CONTINUOUS
10
1.90631
20
-5.96169
11
1.89972
21
-5.95236
0
LINE
8
BLACK
6
CONTINUOUS
10
1.89972
20
-5.95236
11
1.89447
21
-5.94222
0
LINE
8
BLACK
6
CONTINUOUS
10
1.89447
20
-5.94222
11
1.89065
21
-5.93146
0
LINE
8
BLACK
6
CONTINUOUS
10
1.89065
20
-5.93146
11
1.88832
21
-5.92028
0
LINE
8
BLACK
6
CONTINUOUS
10
1.88832
20
-5.92028
11
1.88755
21
-5.90889
0
LINE
8
BLACK
6
CONTINUOUS
10
1.88755
20
-5.90889
11
1.88832
21
-5.8975
0
LINE
8
BLACK
6
CONTINUOUS
10
1.88832
20
-5.8975
11
1.89065
21
-5.88632
0
LINE
8
BLACK
6
CONTINUOUS
10
1.89065
20
-5.88632
11
1.89447
21
-5.87556
0
LINE
8
BLACK
6
CONTINUOUS
10
1.89447
20
-5.87556
11
1.89972
21
-5.86542
0
LINE
8
BLACK
6
CONTINUOUS
10
1.89972
20
-5.86542
11
1.90631
21
-5.85609
0
LINE
8
BLACK
6
CONTINUOUS
10
1.90631
20
-5.85609
11
1.9141
21
-5.84775
0
LINE
8
BLACK
6
CONTINUOUS
10
1.9141
20
-5.84775
11
1.92296
21
-5.84054
0
LINE
8
BLACK
6
CONTINUOUS
10
1.92296
20
-5.84054
11
1.93272
21
-5.83461
0
LINE
8
BLACK
6
CONTINUOUS
10
1.93272
20
-5.83461
11
1.94319
21
-5.83006
0
LINE
8
BLACK
6
CONTINUOUS
10
1.94319
20
-5.83006
11
1.95419
21
-5.82698
0
LINE
8
BLACK
6
CONTINUOUS
10
1.95419
20
-5.82698
11
1.9655
21
-5.82542
0
LINE
8
BLACK
6
CONTINUOUS
10
1.9655
20
-5.82542
11
1.97692
21
-5.82542
0
LINE
8
BLACK
6
CONTINUOUS
10
1.97692
20
-5.82542
11
1.98823
21
-5.82698
0
LINE
8
BLACK
6
CONTINUOUS
10
1.89795
20
-5.91942
11
1.9002
21
-5.92974
0
LINE
8
BLACK
6
CONTINUOUS
10
1.9002
20
-5.92974
11
1.90389
21
-5.93963
0
LINE
8
BLACK
6
CONTINUOUS
10
1.90389
20
-5.93963
11
1.90895
21
-5.9489
0
LINE
8
BLACK
6
CONTINUOUS
10
1.90895
20
-5.9489
11
1.91528
21
-5.95735
0
LINE
8
BLACK
6
CONTINUOUS
10
1.91528
20
-5.95735
11
1.92274
21
-5.96482
0
LINE
8
BLACK
6
CONTINUOUS
10
1.92274
20
-5.96482
11
1.93119
21
-5.97115
0
LINE
8
BLACK
6
CONTINUOUS
10
1.93119
20
-5.97115
11
1.94046
21
-5.97621
0
LINE
8
BLACK
6
CONTINUOUS
10
1.94046
20
-5.97621
11
1.95036
21
-5.9799
0
LINE
8
BLACK
6
CONTINUOUS
10
1.95036
20
-5.9799
11
1.96067
21
-5.98214
0
LINE
8
BLACK
6
CONTINUOUS
10
1.96067
20
-5.98214
11
1.97121
21
-5.9829
0
LINE
8
BLACK
6
CONTINUOUS
10
1.97121
20
-5.9829
11
1.98174
21
-5.98214
0
LINE
8
BLACK
6
CONTINUOUS
10
1.98174
20
-5.98214
11
1.99206
21
-5.9799
0
LINE
8
BLACK
6
CONTINUOUS
10
1.99206
20
-5.9799
11
2.00195
21
-5.97621
0
LINE
8
BLACK
6
CONTINUOUS
10
2.00195
20
-5.97621
11
2.01122
21
-5.97115
0
LINE
8
BLACK
6
CONTINUOUS
10
2.01122
20
-5.97115
11
2.01967
21
-5.96482
0
LINE
8
BLACK
6
CONTINUOUS
10
2.01967
20
-5.96482
11
2.02714
21
-5.95735
0
LINE
8
BLACK
6
CONTINUOUS
10
2.02714
20
-5.95735
11
2.03347
21
-5.9489
0
LINE
8
BLACK
6
CONTINUOUS
10
2.03347
20
-5.9489
11
2.03853
21
-5.93963
0
LINE
8
BLACK
6
CONTINUOUS
10
2.03853
20
-5.93963
11
2.04222
21
-5.92974
0
LINE
8
BLACK
6
CONTINUOUS
10
2.04222
20
-5.92974
11
2.04446
21
-5.91942
0
LINE
8
BLACK
6
CONTINUOUS
10
2.04446
20
-5.91942
11
2.04521
21
-5.90889
0
LINE
8
BLACK
6
CONTINUOUS
10
2.04521
20
-5.90889
11
2.04446
21
-5.89836
0
LINE
8
BLACK
6
CONTINUOUS
10
2.04446
20
-5.89836
11
2.04222
21
-5.88804
0
LINE
8
BLACK
6
CONTINUOUS
10
2.04222
20
-5.88804
11
2.03853
21
-5.87814
0
LINE
8
BLACK
6
CONTINUOUS
10
2.03853
20
-5.87814
11
2.03347
21
-5.86888
0
LINE
8
BLACK
6
CONTINUOUS
10
2.03347
20
-5.86888
11
2.02714
21
-5.86042
0
LINE
8
BLACK
6
CONTINUOUS
10
2.02714
20
-5.86042
11
2.01967
21
-5.85296
0
LINE
8
BLACK
6
CONTINUOUS
10
2.01967
20
-5.85296
11
2.01122
21
-5.84663
0
LINE
8
BLACK
6
CONTINUOUS
10
2.01122
20
-5.84663
11
2.00195
21
-5.84157
0
LINE
8
BLACK
6
CONTINUOUS
10
2.00195
20
-5.84157
11
1.99206
21
-5.83788
0
LINE
8
BLACK
6
CONTINUOUS
10
1.99206
20
-5.83788
11
1.98174
21
-5.83563
0
LINE
8
BLACK
6
CONTINUOUS
10
1.98174
20
-5.83563
11
1.97121
21
-5.83488
0
LINE
8
BLACK
6
CONTINUOUS
10
1.97121
20
-5.83488
11
1.96067
21
-5.83563
0
LINE
8
BLACK
6
CONTINUOUS
10
1.96067
20
-5.83563
11
1.95036
21
-5.83788
0
LINE
8
BLACK
6
CONTINUOUS
10
1.95036
20
-5.83788
11
1.94046
21
-5.84157
0
LINE
8
BLACK
6
CONTINUOUS
10
1.94046
20
-5.84157
11
1.93119
21
-5.84663
0
LINE
8
BLACK
6
CONTINUOUS
10
1.93119
20
-5.84663
11
1.92274
21
-5.85296
0
LINE
8
BLACK
6
CONTINUOUS
10
1.92274
20
-5.85296
11
1.91528
21
-5.86042
0
LINE
8
BLACK
6
CONTINUOUS
10
1.91528
20
-5.86042
11
1.90895
21
-5.86888
0
LINE
8
BLACK
6
CONTINUOUS
10
1.90895
20
-5.86888
11
1.90389
21
-5.87814
0
LINE
8
BLACK
6
CONTINUOUS
10
1.90389
20
-5.87814
11
1.9002
21
-5.88804
0
LINE
8
BLACK
6
CONTINUOUS
10
1.9002
20
-5.88804
11
1.89795
21
-5.89836
0
LINE
8
BLACK
6
CONTINUOUS
10
1.89795
20
-5.89836
11
1.8972
21
-5.90889
0
LINE
8
BLACK
6
CONTINUOUS
10
1.8972
20
-5.90889
11
1.89795
21
-5.91942
0
LINE
8
BLACK
6
CONTINUOUS
10
9.7835
20
-5.82698
11
9.7945
21
-5.83006
0
LINE
8
BLACK
6
CONTINUOUS
10
9.7945
20
-5.83006
11
9.80497
21
-5.83461
0
LINE
8
BLACK
6
CONTINUOUS
10
9.80497
20
-5.83461
11
9.81473
21
-5.84054
0
LINE
8
BLACK
6
CONTINUOUS
10
9.81473
20
-5.84054
11
9.82359
21
-5.84775
0
LINE
8
BLACK
6
CONTINUOUS
10
9.82359
20
-5.84775
11
9.83138
21
-5.85609
0
LINE
8
BLACK
6
CONTINUOUS
10
9.83138
20
-5.85609
11
9.83796
21
-5.86542
0
LINE
8
BLACK
6
CONTINUOUS
10
9.83796
20
-5.86542
11
9.84322
21
-5.87556
0
LINE
8
BLACK
6
CONTINUOUS
10
9.84322
20
-5.87556
11
9.84704
21
-5.88632
0
LINE
8
BLACK
6
CONTINUOUS
10
9.84704
20
-5.88632
11
9.84936
21
-5.8975
0
LINE
8
BLACK
6
CONTINUOUS
10
9.84936
20
-5.8975
11
9.85014
21
-5.90889
0
LINE
8
BLACK
6
CONTINUOUS
10
9.85014
20
-5.90889
11
9.84936
21
-5.92028
0
LINE
8
BLACK
6
CONTINUOUS
10
9.84936
20
-5.92028
11
9.84704
21
-5.93146
0
LINE
8
BLACK
6
CONTINUOUS
10
9.84704
20
-5.93146
11
9.84322
21
-5.94222
0
LINE
8
BLACK
6
CONTINUOUS
10
9.84322
20
-5.94222
11
9.83796
21
-5.95236
0
LINE
8
BLACK
6
CONTINUOUS
10
9.83796
20
-5.95236
11
9.83138
21
-5.96169
0
LINE
8
BLACK
6
CONTINUOUS
10
9.83138
20
-5.96169
11
9.82359
21
-5.97003
0
LINE
8
BLACK
6
CONTINUOUS
10
9.82359
20
-5.97003
11
9.81473
21
-5.97724
0
LINE
8
BLACK
6
CONTINUOUS
10
9.81473
20
-5.97724
11
9.80497
21
-5.98317
0
LINE
8
BLACK
6
CONTINUOUS
10
9.80497
20
-5.98317
11
9.7945
21
-5.98772
0
LINE
8
BLACK
6
CONTINUOUS
10
9.7945
20
-5.98772
11
9.7835
21
-5.9908
0
LINE
8
BLACK
6
CONTINUOUS
10
9.7835
20
-5.9908
11
9.77219
21
-5.99235
0
LINE
8
BLACK
6
CONTINUOUS
10
9.77219
20
-5.99235
11
9.76077
21
-5.99235
0
LINE
8
BLACK
6
CONTINUOUS
10
9.76077
20
-5.99235
11
9.74946
21
-5.9908
0
LINE
8
BLACK
6
CONTINUOUS
10
9.74946
20
-5.9908
11
9.73847
21
-5.98772
0
LINE
8
BLACK
6
CONTINUOUS
10
9.73847
20
-5.98772
11
9.72799
21
-5.98317
0
LINE
8
BLACK
6
CONTINUOUS
10
9.72799
20
-5.98317
11
9.71824
21
-5.97724
0
LINE
8
BLACK
6
CONTINUOUS
10
9.71824
20
-5.97724
11
9.70938
21
-5.97003
0
LINE
8
BLACK
6
CONTINUOUS
10
9.70938
20
-5.97003
11
9.70158
21
-5.96169
0
LINE
8
BLACK
6
CONTINUOUS
10
9.70158
20
-5.96169
11
9.695
21
-5.95236
0
LINE
8
BLACK
6
CONTINUOUS
10
9.695
20
-5.95236
11
9.68975
21
-5.94222
0
LINE
8
BLACK
6
CONTINUOUS
10
9.68975
20
-5.94222
11
9.68592
21
-5.93146
0
LINE
8
BLACK
6
CONTINUOUS
10
9.68592
20
-5.93146
11
9.6836
21
-5.92028
0
LINE
8
BLACK
6
CONTINUOUS
10
9.6836
20
-5.92028
11
9.68282
21
-5.90889
0
LINE
8
BLACK
6
CONTINUOUS
10
9.68282
20
-5.90889
11
9.6836
21
-5.8975
0
LINE
8
BLACK
6
CONTINUOUS
10
9.6836
20
-5.8975
11
9.68592
21
-5.88632
0
LINE
8
BLACK
6
CONTINUOUS
10
9.68592
20
-5.88632
11
9.68975
21
-5.87556
0
LINE
8
BLACK
6
CONTINUOUS
10
9.68975
20
-5.87556
11
9.695
21
-5.86542
0
LINE
8
BLACK
6
CONTINUOUS
10
9.695
20
-5.86542
11
9.70158
21
-5.85609
0
LINE
8
BLACK
6
CONTINUOUS
10
9.70158
20
-5.85609
11
9.70938
21
-5.84775
0
LINE
8
BLACK
6
CONTINUOUS
10
9.70938
20
-5.84775
11
9.71824
21
-5.84054
0
LINE
8
BLACK
6
CONTINUOUS
10
9.71824
20
-5.84054
11
9.72799
21
-5.83461
0
LINE
8
BLACK
6
CONTINUOUS
10
9.72799
20
-5.83461
11
9.73847
21
-5.83006
0
LINE
8
BLACK
6
CONTINUOUS
10
9.73847
20
-5.83006
11
9.74946
21
-5.82698
0
LINE
8
BLACK
6
CONTINUOUS
10
9.74946
20
-5.82698
11
9.76077
21
-5.82542
0
LINE
8
BLACK
6
CONTINUOUS
10
9.76077
20
-5.82542
11
9.77219
21
-5.82542
0
LINE
8
BLACK
6
CONTINUOUS
10
9.77219
20
-5.82542
11
9.7835
21
-5.82698
0
LINE
8
BLACK
6
CONTINUOUS
10
9.69323
20
-5.91942
11
9.69547
21
-5.92974
0
LINE
8
BLACK
6
CONTINUOUS
10
9.69547
20
-5.92974
11
9.69916
21
-5.93963
0
LINE
8
BLACK
6
CONTINUOUS
10
9.69916
20
-5.93963
11
9.70422
21
-5.9489
0
LINE
8
BLACK
6
CONTINUOUS
10
9.70422
20
-5.9489
11
9.71055
21
-5.95735
0
LINE
8
BLACK
6
CONTINUOUS
10
9.71055
20
-5.95735
11
9.71802
21
-5.96482
0
LINE
8
BLACK
6
CONTINUOUS
10
9.71802
20
-5.96482
11
9.72647
21
-5.97115
0
LINE
8
BLACK
6
CONTINUOUS
10
9.72647
20
-5.97115
11
9.73574
21
-5.97621
0
LINE
8
BLACK
6
CONTINUOUS
10
9.73574
20
-5.97621
11
9.74563
21
-5.9799
0
LINE
8
BLACK
6
CONTINUOUS
10
9.74563
20
-5.9799
11
9.75595
21
-5.98214
0
LINE
8
BLACK
6
CONTINUOUS
10
9.75595
20
-5.98214
11
9.76648
21
-5.9829
0
LINE
8
BLACK
6
CONTINUOUS
10
9.76648
20
-5.9829
11
9.77701
21
-5.98214
0
LINE
8
BLACK
6
CONTINUOUS
10
9.77701
20
-5.98214
11
9.78733
21
-5.9799
0
LINE
8
BLACK
6
CONTINUOUS
10
9.78733
20
-5.9799
11
9.79723
21
-5.97621
0
LINE
8
BLACK
6
CONTINUOUS
10
9.79723
20
-5.97621
11
9.80649
21
-5.97115
0
LINE
8
BLACK
6
CONTINUOUS
10
9.80649
20
-5.97115
11
9.81495
21
-5.96482
0
LINE
8
BLACK
6
CONTINUOUS
10
9.81495
20
-5.96482
11
9.82241
21
-5.95735
0
LINE
8
BLACK
6
CONTINUOUS
10
9.82241
20
-5.95735
11
9.82874
21
-5.9489
0
LINE
8
BLACK
6
CONTINUOUS
10
9.82874
20
-5.9489
11
9.8338
21
-5.93963
0
LINE
8
BLACK
6
CONTINUOUS
10
9.8338
20
-5.93963
11
9.83749
21
-5.92974
0
LINE
8
BLACK
6
CONTINUOUS
10
9.83749
20
-5.92974
11
9.83974
21
-5.91942
0
LINE
8
BLACK
6
CONTINUOUS
10
9.83974
20
-5.91942
11
9.84049
21
-5.90889
0
LINE
8
BLACK
6
CONTINUOUS
10
9.84049
20
-5.90889
11
9.83974
21
-5.89836
0
LINE
8
BLACK
6
CONTINUOUS
10
9.83974
20
-5.89836
11
9.83749
21
-5.88804
0
LINE
8
BLACK
6
CONTINUOUS
10
9.83749
20
-5.88804
11
9.8338
21
-5.87814
0
LINE
8
BLACK
6
CONTINUOUS
10
9.8338
20
-5.87814
11
9.82874
21
-5.86888
0
LINE
8
BLACK
6
CONTINUOUS
10
9.82874
20
-5.86888
11
9.82241
21
-5.86042
0
LINE
8
BLACK
6
CONTINUOUS
10
9.82241
20
-5.86042
11
9.81495
21
-5.85296
0
LINE
8
BLACK
6
CONTINUOUS
10
9.81495
20
-5.85296
11
9.80649
21
-5.84663
0
LINE
8
BLACK
6
CONTINUOUS
10
9.80649
20
-5.84663
11
9.79723
21
-5.84157
0
LINE
8
BLACK
6
CONTINUOUS
10
9.79723
20
-5.84157
11
9.78733
21
-5.83788
0
LINE
8
BLACK
6
CONTINUOUS
10
9.78733
20
-5.83788
11
9.77701
21
-5.83563
0
LINE
8
BLACK
6
CONTINUOUS
10
9.77701
20
-5.83563
11
9.76648
21
-5.83488
0
LINE
8
BLACK
6
CONTINUOUS
10
9.76648
20
-5.83488
11
9.75595
21
-5.83563
0
LINE
8
BLACK
6
CONTINUOUS
10
9.75595
20
-5.83563
11
9.74563
21
-5.83788
0
LINE
8
BLACK
6
CONTINUOUS
10
9.74563
20
-5.83788
11
9.73574
21
-5.84157
0
LINE
8
BLACK
6
CONTINUOUS
10
9.73574
20
-5.84157
11
9.72647
21
-5.84663
0
LINE
8
BLACK
6
CONTINUOUS
10
9.72647
20
-5.84663
11
9.71802
21
-5.85296
0
LINE
8
BLACK
6
CONTINUOUS
10
9.71802
20
-5.85296
11
9.71055
21
-5.86042
0
LINE
8
BLACK
6
CONTINUOUS
10
9.71055
20
-5.86042
11
9.70422
21
-5.86888
0
LINE
8
BLACK
6
CONTINUOUS
10
9.70422
20
-5.86888
11
9.69916
21
-5.87814
0
LINE
8
BLACK
6
CONTINUOUS
10
9.69916
20
-5.87814
11
9.69547
21
-5.88804
0
LINE
8
BLACK
6
CONTINUOUS
10
9.69547
20
-5.88804
11
9.69323
21
-5.89836
0
LINE
8
BLACK
6
CONTINUOUS
10
9.69323
20
-5.89836
11
9.69247
21
-5.90889
0
LINE
8
BLACK
6
CONTINUOUS
10
9.69247
20
-5.90889
11
9.69323
21
-5.91942
0
LINE
8
BLACK
6
CONTINUOUS
10
2.19309
20
-3.54255
11
2.21802
21
-3.54491
0
LINE
8
BLACK
6
CONTINUOUS
10
2.21802
20
-3.54491
11
2.24275
21
-3.54882
0
LINE
8
BLACK
6
CONTINUOUS
10
2.24275
20
-3.54882
11
2.26719
21
-3.55429
0
LINE
8
BLACK
6
CONTINUOUS
10
2.26719
20
-3.55429
11
2.29124
21
-3.56127
0
LINE
8
BLACK
6
CONTINUOUS
10
2.29124
20
-3.56127
11
2.3148
21
-3.56975
0
LINE
8
BLACK
6
CONTINUOUS
10
2.3148
20
-3.56975
11
2.33778
21
-3.5797
0
LINE
8
BLACK
6
CONTINUOUS
10
2.33778
20
-3.5797
11
2.36009
21
-3.59107
0
LINE
8
BLACK
6
CONTINUOUS
10
2.36009
20
-3.59107
11
2.38165
21
-3.60382
0
LINE
8
BLACK
6
CONTINUOUS
10
2.38165
20
-3.60382
11
2.40236
21
-3.61789
0
LINE
8
BLACK
6
CONTINUOUS
10
2.40236
20
-3.61789
11
2.42215
21
-3.63324
0
LINE
8
BLACK
6
CONTINUOUS
10
2.42215
20
-3.63324
11
2.44093
21
-3.6498
0
LINE
8
BLACK
6
CONTINUOUS
10
2.44093
20
-3.6498
11
2.45864
21
-3.66751
0
LINE
8
BLACK
6
CONTINUOUS
10
2.45864
20
-3.66751
11
2.4752
21
-3.68629
0
LINE
8
BLACK
6
CONTINUOUS
10
2.4752
20
-3.68629
11
2.49055
21
-3.70608
0
LINE
8
BLACK
6
CONTINUOUS
10
2.49055
20
-3.70608
11
2.50462
21
-3.72679
0
LINE
8
BLACK
6
CONTINUOUS
10
2.50462
20
-3.72679
11
2.51737
21
-3.74835
0
LINE
8
BLACK
6
CONTINUOUS
10
2.51737
20
-3.74835
11
2.52874
21
-3.77066
0
LINE
8
BLACK
6
CONTINUOUS
10
2.52874
20
-3.77066
11
2.53869
21
-3.79364
0
LINE
8
BLACK
6
CONTINUOUS
10
2.53869
20
-3.79364
11
2.54717
21
-3.8172
0
LINE
8
BLACK
6
CONTINUOUS
10
2.54717
20
-3.8172
11
2.55416
21
-3.84125
0
LINE
8
BLACK
6
CONTINUOUS
10
2.55416
20
-3.84125
11
2.55962
21
-3.86569
0
LINE
8
BLACK
6
CONTINUOUS
10
2.55962
20
-3.86569
11
2.56354
21
-3.89042
0
LINE
8
BLACK
6
CONTINUOUS
10
2.56354
20
-3.89042
11
2.56589
21
-3.91535
0
LINE
8
BLACK
6
CONTINUOUS
10
2.56589
20
-3.91535
11
2.56668
21
-3.94038
0
LINE
8
BLACK
6
CONTINUOUS
10
2.56668
20
-3.94038
11
2.56589
21
-3.96541
0
LINE
8
BLACK
6
CONTINUOUS
10
2.56589
20
-3.96541
11
2.56354
21
-3.99034
0
LINE
8
BLACK
6
CONTINUOUS
10
2.56354
20
-3.99034
11
2.55962
21
-4.01508
0
LINE
8
BLACK
6
CONTINUOUS
10
2.55962
20
-4.01508
11
2.55416
21
-4.03952
0
LINE
8
BLACK
6
CONTINUOUS
10
2.55416
20
-4.03952
11
2.54717
21
-4.06357
0
LINE
8
BLACK
6
CONTINUOUS
10
2.54717
20
-4.06357
11
2.53869
21
-4.08713
0
LINE
8
BLACK
6
CONTINUOUS
10
2.53869
20
-4.08713
11
2.52874
21
-4.11011
0
LINE
8
BLACK
6
CONTINUOUS
10
2.52874
20
-4.11011
11
2.51737
21
-4.13242
0
LINE
8
BLACK
6
CONTINUOUS
10
2.51737
20
-4.13242
11
2.50462
21
-4.15398
0
LINE
8
BLACK
6
CONTINUOUS
10
2.50462
20
-4.15398
11
2.49055
21
-4.17469
0
LINE
8
BLACK
6
CONTINUOUS
10
2.49055
20
-4.17469
11
2.4752
21
-4.19448
0
LINE
8
BLACK
6
CONTINUOUS
10
2.4752
20
-4.19448
11
2.45864
21
-4.21326
0
LINE
8
BLACK
6
CONTINUOUS
10
2.45864
20
-4.21326
11
2.44093
21
-4.23097
0
LINE
8
BLACK
6
CONTINUOUS
10
2.44093
20
-4.23097
11
2.42215
21
-4.24753
0
LINE
8
BLACK
6
CONTINUOUS
10
2.42215
20
-4.24753
11
2.40236
21
-4.26288
0
LINE
8
BLACK
6
CONTINUOUS
10
2.40236
20
-4.26288
11
2.38165
21
-4.27695
0
LINE
8
BLACK
6
CONTINUOUS
10
2.38165
20
-4.27695
11
2.36009
21
-4.2897
0
LINE
8
BLACK
6
CONTINUOUS
10
2.36009
20
-4.2897
11
2.33778
21
-4.30107
0
LINE
8
BLACK
6
CONTINUOUS
10
2.33778
20
-4.30107
11
2.3148
21
-4.31101
0
LINE
8
BLACK
6
CONTINUOUS
10
2.3148
20
-4.31101
11
2.29124
21
-4.3195
0
LINE
8
BLACK
6
CONTINUOUS
10
2.29124
20
-4.3195
11
2.26719
21
-4.32648
0
LINE
8
BLACK
6
CONTINUOUS
10
2.26719
20
-4.32648
11
2.24275
21
-4.33195
0
LINE
8
BLACK
6
CONTINUOUS
10
2.24275
20
-4.33195
11
2.21802
21
-4.33586
0
LINE
8
BLACK
6
CONTINUOUS
10
2.21802
20
-4.33586
11
2.19309
21
-4.33822
0
LINE
8
BLACK
6
CONTINUOUS
10
2.19309
20
-4.33822
11
2.16806
21
-4.33901
0
LINE
8
BLACK
6
CONTINUOUS
10
2.16806
20
-4.33901
11
2.14303
21
-4.33822
0
LINE
8
BLACK
6
CONTINUOUS
10
2.14303
20
-4.33822
11
2.1181
21
-4.33586
0
LINE
8
BLACK
6
CONTINUOUS
10
2.1181
20
-4.33586
11
2.09336
21
-4.33195
0
LINE
8
BLACK
6
CONTINUOUS
10
2.09336
20
-4.33195
11
2.06892
21
-4.32648
0
LINE
8
BLACK
6
CONTINUOUS
10
2.06892
20
-4.32648
11
2.04488
21
-4.3195
0
LINE
8
BLACK
6
CONTINUOUS
10
2.04488
20
-4.3195
11
2.02131
21
-4.31101
0
LINE
8
BLACK
6
CONTINUOUS
10
2.02131
20
-4.31101
11
1.99833
21
-4.30107
0
LINE
8
BLACK
6
CONTINUOUS
10
1.99833
20
-4.30107
11
1.97602
21
-4.2897
0
LINE
8
BLACK
6
CONTINUOUS
10
1.97602
20
-4.2897
11
1.95446
21
-4.27695
0
LINE
8
BLACK
6
CONTINUOUS
10
1.95446
20
-4.27695
11
1.93375
21
-4.26288
0
LINE
8
BLACK
6
CONTINUOUS
10
1.93375
20
-4.26288
11
1.91397
21
-4.24753
0
LINE
8
BLACK
6
CONTINUOUS
10
1.91397
20
-4.24753
11
1.89518
21
-4.23097
0
LINE
8
BLACK
6
CONTINUOUS
10
1.89518
20
-4.23097
11
1.87747
21
-4.21326
0
LINE
8
BLACK
6
CONTINUOUS
10
1.87747
20
-4.21326
11
1.86091
21
-4.19448
0
LINE
8
BLACK
6
CONTINUOUS
10
1.86091
20
-4.19448
11
1.84556
21
-4.17469
0
LINE
8
BLACK
6
CONTINUOUS
10
1.84556
20
-4.17469
11
1.83149
21
-4.15398
0
LINE
8
BLACK
6
CONTINUOUS
10
1.83149
20
-4.15398
11
1.81874
21
-4.13242
0
LINE
8
BLACK
6
CONTINUOUS
10
1.81874
20
-4.13242
11
1.80737
21
-4.11011
0
LINE
8
BLACK
6
CONTINUOUS
10
1.80737
20
-4.11011
11
1.79743
21
-4.08713
0
LINE
8
BLACK
6
CONTINUOUS
10
1.79743
20
-4.08713
11
1.78894
21
-4.06357
0
LINE
8
BLACK
6
CONTINUOUS
10
1.78894
20
-4.06357
11
1.78196
21
-4.03952
0
LINE
8
BLACK
6
CONTINUOUS
10
1.78196
20
-4.03952
11
1.7765
21
-4.01508
0
LINE
8
BLACK
6
CONTINUOUS
10
1.7765
20
-4.01508
11
1.77258
21
-3.99034
0
LINE
8
BLACK
6
CONTINUOUS
10
1.77258
20
-3.99034
11
1.77022
21
-3.96541
0
LINE
8
BLACK
6
CONTINUOUS
10
1.77022
20
-3.96541
11
1.76943
21
-3.94038
0
LINE
8
BLACK
6
CONTINUOUS
10
1.76943
20
-3.94038
11
1.77022
21
-3.91535
0
LINE
8
BLACK
6
CONTINUOUS
10
1.77022
20
-3.91535
11
1.77258
21
-3.89042
0
LINE
8
BLACK
6
CONTINUOUS
10
1.77258
20
-3.89042
11
1.7765
21
-3.86569
0
LINE
8
BLACK
6
CONTINUOUS
10
1.7765
20
-3.86569
11
1.78196
21
-3.84125
0
LINE
8
BLACK
6
CONTINUOUS
10
1.78196
20
-3.84125
11
1.78894
21
-3.8172
0
LINE
8
BLACK
6
CONTINUOUS
10
1.78894
20
-3.8172
11
1.79743
21
-3.79364
0
LINE
8
BLACK
6
CONTINUOUS
10
1.79743
20
-3.79364
11
1.80737
21
-3.77066
0
LINE
8
BLACK
6
CONTINUOUS
10
1.80737
20
-3.77066
11
1.81874
21
-3.74835
0
LINE
8
BLACK
6
CONTINUOUS
10
1.81874
20
-3.74835
11
1.83149
21
-3.72679
0
LINE
8
BLACK
6
CONTINUOUS
10
1.83149
20
-3.72679
11
1.84556
21
-3.70608
0
LINE
8
BLACK
6
CONTINUOUS
10
1.84556
20
-3.70608
11
1.86091
21
-3.68629
0
LINE
8
BLACK
6
CONTINUOUS
10
1.86091
20
-3.68629
11
1.87747
21
-3.66751
0
LINE
8
BLACK
6
CONTINUOUS
10
1.87747
20
-3.66751
11
1.89518
21
-3.6498
0
LINE
8
BLACK
6
CONTINUOUS
10
1.89518
20
-3.6498
11
1.91397
21
-3.63324
0
LINE
8
BLACK
6
CONTINUOUS
10
1.91397
20
-3.63324
11
1.93375
21
-3.61789
0
LINE
8
BLACK
6
CONTINUOUS
10
1.93375
20
-3.61789
11
1.95446
21
-3.60382
0
LINE
8
BLACK
6
CONTINUOUS
10
1.95446
20
-3.60382
11
1.97602
21
-3.59107
0
LINE
8
BLACK
6
CONTINUOUS
10
1.97602
20
-3.59107
11
1.99833
21
-3.5797
0
LINE
8
BLACK
6
CONTINUOUS
10
1.99833
20
-3.5797
11
2.02131
21
-3.56975
0
LINE
8
BLACK
6
CONTINUOUS
10
2.02131
20
-3.56975
11
2.04488
21
-3.56127
0
LINE
8
BLACK
6
CONTINUOUS
10
2.04488
20
-3.56127
11
2.06892
21
-3.55429
0
LINE
8
BLACK
6
CONTINUOUS
10
2.06892
20
-3.55429
11
2.09336
21
-3.54882
0
LINE
8
BLACK
6
CONTINUOUS
10
2.09336
20
-3.54882
11
2.1181
21
-3.54491
0
LINE
8
BLACK
6
CONTINUOUS
10
2.1181
20
-3.54491
11
2.14303
21
-3.54255
0
LINE
8
BLACK
6
CONTINUOUS
10
2.14303
20
-3.54255
11
2.16806
21
-3.54176
0
LINE
8
BLACK
6
CONTINUOUS
10
2.16806
20
-3.54176
11
2.19309
21
-3.54255
0
LINE
8
BLACK
6
CONTINUOUS
10
1.77985
20
-3.96481
11
1.78215
21
-3.98914
0
LINE
8
BLACK
6
CONTINUOUS
10
1.78215
20
-3.98914
11
1.78598
21
-4.01327
0
LINE
8
BLACK
6
CONTINUOUS
10
1.78598
20
-4.01327
11
1.79131
21
-4.03712
0
LINE
8
BLACK
6
CONTINUOUS
10
1.79131
20
-4.03712
11
1.79812
21
-4.06058
0
LINE
8
BLACK
6
CONTINUOUS
10
1.79812
20
-4.06058
11
1.8064
21
-4.08357
0
LINE
8
BLACK
6
CONTINUOUS
10
1.8064
20
-4.08357
11
1.8161
21
-4.106
0
LINE
8
BLACK
6
CONTINUOUS
10
1.8161
20
-4.106
11
1.8272
21
-4.12777
0
LINE
8
BLACK
6
CONTINUOUS
10
1.8272
20
-4.12777
11
1.83964
21
-4.14881
0
LINE
8
BLACK
6
CONTINUOUS
10
1.83964
20
-4.14881
11
1.85337
21
-4.16902
0
LINE
8
BLACK
6
CONTINUOUS
10
1.85337
20
-4.16902
11
1.86835
21
-4.18832
0
LINE
8
BLACK
6
CONTINUOUS
10
1.86835
20
-4.18832
11
1.88451
21
-4.20665
0
LINE
8
BLACK
6
CONTINUOUS
10
1.88451
20
-4.20665
11
1.90179
21
-4.22393
0
LINE
8
BLACK
6
CONTINUOUS
10
1.90179
20
-4.22393
11
1.92012
21
-4.24009
0
LINE
8
BLACK
6
CONTINUOUS
10
1.92012
20
-4.24009
11
1.93943
21
-4.25507
0
LINE
8
BLACK
6
CONTINUOUS
10
1.93943
20
-4.25507
11
1.95964
21
-4.2688
0
LINE
8
BLACK
6
CONTINUOUS
10
1.95964
20
-4.2688
11
1.98067
21
-4.28124
0
LINE
8
BLACK
6
CONTINUOUS
10
1.98067
20
-4.28124
11
2.00244
21
-4.29234
0
LINE
8
BLACK
6
CONTINUOUS
10
2.00244
20
-4.29234
11
2.02487
21
-4.30204
0
LINE
8
BLACK
6
CONTINUOUS
10
2.02487
20
-4.30204
11
2.04786
21
-4.31032
0
LINE
8
BLACK
6
CONTINUOUS
10
2.04786
20
-4.31032
11
2.07132
21
-4.31714
0
LINE
8
BLACK
6
CONTINUOUS
10
2.07132
20
-4.31714
11
2.09517
21
-4.32247
0
LINE
8
BLACK
6
CONTINUOUS
10
2.09517
20
-4.32247
11
2.11931
21
-4.32629
0
LINE
8
BLACK
6
CONTINUOUS
10
2.11931
20
-4.32629
11
2.14363
21
-4.32859
0
LINE
8
BLACK
6
CONTINUOUS
10
2.14363
20
-4.32859
11
2.16806
21
-4.32936
0
LINE
8
BLACK
6
CONTINUOUS
10
2.16806
20
-4.32936
11
2.19248
21
-4.32859
0
LINE
8
BLACK
6
CONTINUOUS
10
2.19248
20
-4.32859
11
2.21681
21
-4.32629
0
LINE
8
BLACK
6
CONTINUOUS
10
2.21681
20
-4.32629
11
2.24094
21
-4.32247
0
LINE
8
BLACK
6
CONTINUOUS
10
2.24094
20
-4.32247
11
2.26479
21
-4.31714
0
LINE
8
BLACK
6
CONTINUOUS
10
2.26479
20
-4.31714
11
2.28826
21
-4.31032
0
LINE
8
BLACK
6
CONTINUOUS
10
2.28826
20
-4.31032
11
2.31125
21
-4.30204
0
LINE
8
BLACK
6
CONTINUOUS
10
2.31125
20
-4.30204
11
2.33367
21
-4.29234
0
LINE
8
BLACK
6
CONTINUOUS
10
2.33367
20
-4.29234
11
2.35545
21
-4.28124
0
LINE
8
BLACK
6
CONTINUOUS
10
2.35545
20
-4.28124
11
2.37648
21
-4.2688
0
LINE
8
BLACK
6
CONTINUOUS
10
2.37648
20
-4.2688
11
2.39669
21
-4.25507
0
LINE
8
BLACK
6
CONTINUOUS
10
2.39669
20
-4.25507
11
2.416
21
-4.24009
0
LINE
8
BLACK
6
CONTINUOUS
10
2.416
20
-4.24009
11
2.43433
21
-4.22393
0
LINE
8
BLACK
6
CONTINUOUS
10
2.43433
20
-4.22393
11
2.4516
21
-4.20665
0
LINE
8
BLACK
6
CONTINUOUS
10
2.4516
20
-4.20665
11
2.46776
21
-4.18832
0
LINE
8
BLACK
6
CONTINUOUS
10
2.46776
20
-4.18832
11
2.48274
21
-4.16902
0
LINE
8
BLACK
6
CONTINUOUS
10
2.48274
20
-4.16902
11
2.49648
21
-4.14881
0
LINE
8
BLACK
6
CONTINUOUS
10
2.49648
20
-4.14881
11
2.50892
21
-4.12777
0
LINE
8
BLACK
6
CONTINUOUS
10
2.50892
20
-4.12777
11
2.52001
21
-4.106
0
LINE
8
BLACK
6
CONTINUOUS
10
2.52001
20
-4.106
11
2.52971
21
-4.08357
0
LINE
8
BLACK
6
CONTINUOUS
10
2.52971
20
-4.08357
11
2.53799
21
-4.06058
0
LINE
8
BLACK
6
CONTINUOUS
10
2.53799
20
-4.06058
11
2.54481
21
-4.03712
0
LINE
8
BLACK
6
CONTINUOUS
10
2.54481
20
-4.03712
11
2.55014
21
-4.01327
0
LINE
8
BLACK
6
CONTINUOUS
10
2.55014
20
-4.01327
11
2.55396
21
-3.98914
0
LINE
8
BLACK
6
CONTINUOUS
10
2.55396
20
-3.98914
11
2.55626
21
-3.96481
0
LINE
8
BLACK
6
CONTINUOUS
10
2.55626
20
-3.96481
11
2.55703
21
-3.94038
0
LINE
8
BLACK
6
CONTINUOUS
10
2.55703
20
-3.94038
11
2.55626
21
-3.91596
0
LINE
8
BLACK
6
CONTINUOUS
10
2.55626
20
-3.91596
11
2.55396
21
-3.89163
0
LINE
8
BLACK
6
CONTINUOUS
10
2.55396
20
-3.89163
11
2.55014
21
-3.8675
0
LINE
8
BLACK
6
CONTINUOUS
10
2.55014
20
-3.8675
11
2.54481
21
-3.84365
0
LINE
8
BLACK
6
CONTINUOUS
10
2.54481
20
-3.84365
11
2.53799
21
-3.82019
0
LINE
8
BLACK
6
CONTINUOUS
10
2.53799
20
-3.82019
11
2.52971
21
-3.79719
0
LINE
8
BLACK
6
CONTINUOUS
10
2.52971
20
-3.79719
11
2.52001
21
-3.77477
0
LINE
8
BLACK
6
CONTINUOUS
10
2.52001
20
-3.77477
11
2.50892
21
-3.753
0
LINE
8
BLACK
6
CONTINUOUS
10
2.50892
20
-3.753
11
2.49648
21
-3.73196
0
LINE
8
BLACK
6
CONTINUOUS
10
2.49648
20
-3.73196
11
2.48274
21
-3.71175
0
LINE
8
BLACK
6
CONTINUOUS
10
2.48274
20
-3.71175
11
2.46776
21
-3.69244
0
LINE
8
BLACK
6
CONTINUOUS
10
2.46776
20
-3.69244
11
2.4516
21
-3.67411
0
LINE
8
BLACK
6
CONTINUOUS
10
2.4516
20
-3.67411
11
2.43433
21
-3.65684
0
LINE
8
BLACK
6
CONTINUOUS
10
2.43433
20
-3.65684
11
2.416
21
-3.64068
0
LINE
8
BLACK
6
CONTINUOUS
10
2.416
20
-3.64068
11
2.39669
21
-3.6257
0
LINE
8
BLACK
6
CONTINUOUS
10
2.39669
20
-3.6257
11
2.37648
21
-3.61196
0
LINE
8
BLACK
6
CONTINUOUS
10
2.37648
20
-3.61196
11
2.35545
21
-3.59953
0
LINE
8
BLACK
6
CONTINUOUS
10
2.35545
20
-3.59953
11
2.33367
21
-3.58843
0
LINE
8
BLACK
6
CONTINUOUS
10
2.33367
20
-3.58843
11
2.31125
21
-3.57873
0
LINE
8
BLACK
6
CONTINUOUS
10
2.31125
20
-3.57873
11
2.28826
21
-3.57045
0
LINE
8
BLACK
6
CONTINUOUS
10
2.28826
20
-3.57045
11
2.26479
21
-3.56363
0
LINE
8
BLACK
6
CONTINUOUS
10
2.26479
20
-3.56363
11
2.24094
21
-3.5583
0
LINE
8
BLACK
6
CONTINUOUS
10
2.24094
20
-3.5583
11
2.21681
21
-3.55448
0
LINE
8
BLACK
6
CONTINUOUS
10
2.21681
20
-3.55448
11
2.19248
21
-3.55218
0
LINE
8
BLACK
6
CONTINUOUS
10
2.19248
20
-3.55218
11
2.16806
21
-3.55141
0
LINE
8
BLACK
6
CONTINUOUS
10
2.16806
20
-3.55141
11
2.14363
21
-3.55218
0
LINE
8
BLACK
6
CONTINUOUS
10
2.14363
20
-3.55218
11
2.11931
21
-3.55448
0
LINE
8
BLACK
6
CONTINUOUS
10
2.11931
20
-3.55448
11
2.09517
21
-3.5583
0
LINE
8
BLACK
6
CONTINUOUS
10
2.09517
20
-3.5583
11
2.07132
21
-3.56363
0
LINE
8
BLACK
6
CONTINUOUS
10
2.07132
20
-3.56363
11
2.04786
21
-3.57045
0
LINE
8
BLACK
6
CONTINUOUS
10
2.04786
20
-3.57045
11
2.02487
21
-3.57873
0
LINE
8
BLACK
6
CONTINUOUS
10
2.02487
20
-3.57873
11
2.00244
21
-3.58843
0
LINE
8
BLACK
6
CONTINUOUS
10
2.00244
20
-3.58843
11
1.98067
21
-3.59953
0
LINE
8
BLACK
6
CONTINUOUS
10
1.98067
20
-3.59953
11
1.95964
21
-3.61196
0
LINE
8
BLACK
6
CONTINUOUS
10
1.95964
20
-3.61196
11
1.93943
21
-3.6257
0
LINE
8
BLACK
6
CONTINUOUS
10
1.93943
20
-3.6257
11
1.92012
21
-3.64068
0
LINE
8
BLACK
6
CONTINUOUS
10
1.92012
20
-3.64068
11
1.90179
21
-3.65684
0
LINE
8
BLACK
6
CONTINUOUS
10
1.90179
20
-3.65684
11
1.88451
21
-3.67411
0
LINE
8
BLACK
6
CONTINUOUS
10
1.88451
20
-3.67411
11
1.86835
21
-3.69244
0
LINE
8
BLACK
6
CONTINUOUS
10
1.86835
20
-3.69244
11
1.85337
21
-3.71175
0
LINE
8
BLACK
6
CONTINUOUS
10
1.85337
20
-3.71175
11
1.83964
21
-3.73196
0
LINE
8
BLACK
6
CONTINUOUS
10
1.83964
20
-3.73196
11
1.8272
21
-3.753
0
LINE
8
BLACK
6
CONTINUOUS
10
1.8272
20
-3.753
11
1.8161
21
-3.77477
0
LINE
8
BLACK
6
CONTINUOUS
10
1.8161
20
-3.77477
11
1.8064
21
-3.79719
0
LINE
8
BLACK
6
CONTINUOUS
10
1.8064
20
-3.79719
11
1.79812
21
-3.82019
0
LINE
8
BLACK
6
CONTINUOUS
10
1.79812
20
-3.82019
11
1.79131
21
-3.84365
0
LINE
8
BLACK
6
CONTINUOUS
10
1.79131
20
-3.84365
11
1.78598
21
-3.8675
0
LINE
8
BLACK
6
CONTINUOUS
10
1.78598
20
-3.8675
11
1.78215
21
-3.89163
0
LINE
8
BLACK
6
CONTINUOUS
10
1.78215
20
-3.89163
11
1.77985
21
-3.91596
0
LINE
8
BLACK
6
CONTINUOUS
10
1.77985
20
-3.91596
11
1.77909
21
-3.94038
0
LINE
8
BLACK
6
CONTINUOUS
10
1.77909
20
-3.94038
11
1.77985
21
-3.96481
0
LINE
8
BLACK
6
CONTINUOUS
10
9.59466
20
-3.54255
11
9.61959
21
-3.54491
0
LINE
8
BLACK
6
CONTINUOUS
10
9.61959
20
-3.54491
11
9.64433
21
-3.54882
0
LINE
8
BLACK
6
CONTINUOUS
10
9.64433
20
-3.54882
11
9.66876
21
-3.55429
0
LINE
8
BLACK
6
CONTINUOUS
10
9.66876
20
-3.55429
11
9.69281
21
-3.56127
0
LINE
8
BLACK
6
CONTINUOUS
10
9.69281
20
-3.56127
11
9.71637
21
-3.56975
0
LINE
8
BLACK
6
CONTINUOUS
10
9.71637
20
-3.56975
11
9.73936
21
-3.5797
0
LINE
8
BLACK
6
CONTINUOUS
10
9.73936
20
-3.5797
11
9.76167
21
-3.59107
0
LINE
8
BLACK
6
CONTINUOUS
10
9.76167
20
-3.59107
11
9.78322
21
-3.60382
0
LINE
8
BLACK
6
CONTINUOUS
10
9.78322
20
-3.60382
11
9.80394
21
-3.61789
0
LINE
8
BLACK
6
CONTINUOUS
10
9.80394
20
-3.61789
11
9.82372
21
-3.63324
0
LINE
8
BLACK
6
CONTINUOUS
10
9.82372
20
-3.63324
11
9.84251
21
-3.6498
0
LINE
8
BLACK
6
CONTINUOUS
10
9.84251
20
-3.6498
11
9.86021
21
-3.66751
0
LINE
8
BLACK
6
CONTINUOUS
10
9.86021
20
-3.66751
11
9.87678
21
-3.68629
0
LINE
8
BLACK
6
CONTINUOUS
10
9.87678
20
-3.68629
11
9.89212
21
-3.70608
0
LINE
8
BLACK
6
CONTINUOUS
10
9.89212
20
-3.70608
11
9.9062
21
-3.72679
0
LINE
8
BLACK
6
CONTINUOUS
10
9.9062
20
-3.72679
11
9.91895
21
-3.74835
0
LINE
8
BLACK
6
CONTINUOUS
10
9.91895
20
-3.74835
11
9.93032
21
-3.77066
0
LINE
8
BLACK
6
CONTINUOUS
10
9.93032
20
-3.77066
11
9.94026
21
-3.79364
0
LINE
8
BLACK
6
CONTINUOUS
10
9.94026
20
-3.79364
11
9.94874
21
-3.8172
0
LINE
8
BLACK
6
CONTINUOUS
10
9.94874
20
-3.8172
11
9.95573
21
-3.84125
0
LINE
8
BLACK
6
CONTINUOUS
10
9.95573
20
-3.84125
11
9.96119
21
-3.86569
0
LINE
8
BLACK
6
CONTINUOUS
10
9.96119
20
-3.86569
11
9.96511
21
-3.89042
0
LINE
8
BLACK
6
CONTINUOUS
10
9.96511
20
-3.89042
11
9.96747
21
-3.91535
0
LINE
8
BLACK
6
CONTINUOUS
10
9.96747
20
-3.91535
11
9.96825
21
-3.94038
0
LINE
8
BLACK
6
CONTINUOUS
10
9.96825
20
-3.94038
11
9.96747
21
-3.96541
0
LINE
8
BLACK
6
CONTINUOUS
10
9.96747
20
-3.96541
11
9.96511
21
-3.99034
0
LINE
8
BLACK
6
CONTINUOUS
10
9.96511
20
-3.99034
11
9.96119
21
-4.01508
0
LINE
8
BLACK
6
CONTINUOUS
10
9.96119
20
-4.01508
11
9.95573
21
-4.03952
0
LINE
8
BLACK
6
CONTINUOUS
10
9.95573
20
-4.03952
11
9.94874
21
-4.06357
0
LINE
8
BLACK
6
CONTINUOUS
10
9.94874
20
-4.06357
11
9.94026
21
-4.08713
0
LINE
8
BLACK
6
CONTINUOUS
10
9.94026
20
-4.08713
11
9.93032
21
-4.11011
0
LINE
8
BLACK
6
CONTINUOUS
10
9.93032
20
-4.11011
11
9.91895
21
-4.13242
0
LINE
8
BLACK
6
CONTINUOUS
10
9.91895
20
-4.13242
11
9.9062
21
-4.15398
0
LINE
8
BLACK
6
CONTINUOUS
10
9.9062
20
-4.15398
11
9.89212
21
-4.17469
0
LINE
8
BLACK
6
CONTINUOUS
10
9.89212
20
-4.17469
11
9.87678
21
-4.19448
0
LINE
8
BLACK
6
CONTINUOUS
10
9.87678
20
-4.19448
11
9.86021
21
-4.21326
0
LINE
8
BLACK
6
CONTINUOUS
10
9.86021
20
-4.21326
11
9.84251
21
-4.23097
0
LINE
8
BLACK
6
CONTINUOUS
10
9.84251
20
-4.23097
11
9.82372
21
-4.24753
0
LINE
8
BLACK
6
CONTINUOUS
10
9.82372
20
-4.24753
11
9.80394
21
-4.26288
0
LINE
8
BLACK
6
CONTINUOUS
10
9.80394
20
-4.26288
11
9.78322
21
-4.27695
0
LINE
8
BLACK
6
CONTINUOUS
10
9.78322
20
-4.27695
11
9.76167
21
-4.2897
0
LINE
8
BLACK
6
CONTINUOUS
10
9.76167
20
-4.2897
11
9.73936
21
-4.30107
0
LINE
8
BLACK
6
CONTINUOUS
10
9.73936
20
-4.30107
11
9.71637
21
-4.31101
0
LINE
8
BLACK
6
CONTINUOUS
10
9.71637
20
-4.31101
11
9.69281
21
-4.3195
0
LINE
8
BLACK
6
CONTINUOUS
10
9.69281
20
-4.3195
11
9.66876
21
-4.32648
0
LINE
8
BLACK
6
CONTINUOUS
10
9.66876
20
-4.32648
11
9.64433
21
-4.33195
0
LINE
8
BLACK
6
CONTINUOUS
10
9.64433
20
-4.33195
11
9.61959
21
-4.33586
0
LINE
8
BLACK
6
CONTINUOUS
10
9.61959
20
-4.33586
11
9.59466
21
-4.33822
0
LINE
8
BLACK
6
CONTINUOUS
10
9.59466
20
-4.33822
11
9.56963
21
-4.33901
0
LINE
8
BLACK
6
CONTINUOUS
10
9.56963
20
-4.33901
11
9.5446
21
-4.33822
0
LINE
8
BLACK
6
CONTINUOUS
10
9.5446
20
-4.33822
11
9.51967
21
-4.33586
0
LINE
8
BLACK
6
CONTINUOUS
10
9.51967
20
-4.33586
11
9.49494
21
-4.33195
0
LINE
8
BLACK
6
CONTINUOUS
10
9.49494
20
-4.33195
11
9.4705
21
-4.32648
0
LINE
8
BLACK
6
CONTINUOUS
10
9.4705
20
-4.32648
11
9.44645
21
-4.3195
0
LINE
8
BLACK
6
CONTINUOUS
10
9.44645
20
-4.3195
11
9.42289
21
-4.31101
0
LINE
8
BLACK
6
CONTINUOUS
10
9.42289
20
-4.31101
11
9.39991
21
-4.30107
0
LINE
8
BLACK
6
CONTINUOUS
10
9.39991
20
-4.30107
11
9.37759
21
-4.2897
0
LINE
8
BLACK
6
CONTINUOUS
10
9.37759
20
-4.2897
11
9.35604
21
-4.27695
0
LINE
8
BLACK
6
CONTINUOUS
10
9.35604
20
-4.27695
11
9.33533
21
-4.26288
0
LINE
8
BLACK
6
CONTINUOUS
10
9.33533
20
-4.26288
11
9.31554
21
-4.24753
0
LINE
8
BLACK
6
CONTINUOUS
10
9.31554
20
-4.24753
11
9.29676
21
-4.23097
0
LINE
8
BLACK
6
CONTINUOUS
10
9.29676
20
-4.23097
11
9.27905
21
-4.21326
0
LINE
8
BLACK
6
CONTINUOUS
10
9.27905
20
-4.21326
11
9.26249
21
-4.19448
0
LINE
8
BLACK
6
CONTINUOUS
10
9.26249
20
-4.19448
11
9.24714
21
-4.17469
0
LINE
8
BLACK
6
CONTINUOUS
10
9.24714
20
-4.17469
11
9.23306
21
-4.15398
0
LINE
8
BLACK
6
CONTINUOUS
10
9.23306
20
-4.15398
11
9.22032
21
-4.13242
0
LINE
8
BLACK
6
CONTINUOUS
10
9.22032
20
-4.13242
11
9.20895
21
-4.11011
0
LINE
8
BLACK
6
CONTINUOUS
10
9.20895
20
-4.11011
11
9.199
21
-4.08713
0
LINE
8
BLACK
6
CONTINUOUS
10
9.199
20
-4.08713
11
9.19052
21
-4.06357
0
LINE
8
BLACK
6
CONTINUOUS
10
9.19052
20
-4.06357
11
9.18353
21
-4.03952
0
LINE
8
BLACK
6
CONTINUOUS
10
9.18353
20
-4.03952
11
9.17807
21
-4.01508
0
LINE
8
BLACK
6
CONTINUOUS
10
9.17807
20
-4.01508
11
9.17415
21
-3.99034
0
LINE
8
BLACK
6
CONTINUOUS
10
9.17415
20
-3.99034
11
9.1718
21
-3.96541
0
LINE
8
BLACK
6
CONTINUOUS
10
9.1718
20
-3.96541
11
9.17101
21
-3.94038
0
LINE
8
BLACK
6
CONTINUOUS
10
9.17101
20
-3.94038
11
9.1718
21
-3.91535
0
LINE
8
BLACK
6
CONTINUOUS
10
9.1718
20
-3.91535
11
9.17415
21
-3.89042
0
LINE
8
BLACK
6
CONTINUOUS
10
9.17415
20
-3.89042
11
9.17807
21
-3.86569
0
LINE
8
BLACK
6
CONTINUOUS
10
9.17807
20
-3.86569
11
9.18353
21
-3.84125
0
LINE
8
BLACK
6
CONTINUOUS
10
9.18353
20
-3.84125
11
9.19052
21
-3.8172
0
LINE
8
BLACK
6
CONTINUOUS
10
9.19052
20
-3.8172
11
9.199
21
-3.79364
0
LINE
8
BLACK
6
CONTINUOUS
10
9.199
20
-3.79364
11
9.20895
21
-3.77066
0
LINE
8
BLACK
6
CONTINUOUS
10
9.20895
20
-3.77066
11
9.22032
21
-3.74835
0
LINE
8
BLACK
6
CONTINUOUS
10
9.22032
20
-3.74835
11
9.23306
21
-3.72679
0
LINE
8
BLACK
6
CONTINUOUS
10
9.23306
20
-3.72679
11
9.24714
21
-3.70608
0
LINE
8
BLACK
6
CONTINUOUS
10
9.24714
20
-3.70608
11
9.26249
21
-3.68629
0
LINE
8
BLACK
6
CONTINUOUS
10
9.26249
20
-3.68629
11
9.27905
21
-3.66751
0
LINE
8
BLACK
6
CONTINUOUS
10
9.27905
20
-3.66751
11
9.29676
21
-3.6498
0
LINE
8
BLACK
6
CONTINUOUS
10
9.29676
20
-3.6498
11
9.31554
21
-3.63324
0
LINE
8
BLACK
6
CONTINUOUS
10
9.31554
20
-3.63324
11
9.33533
21
-3.61789
0
LINE
8
BLACK
6
CONTINUOUS
10
9.33533
20
-3.61789
11
9.35604
21
-3.60382
0
LINE
8
BLACK
6
CONTINUOUS
10
9.35604
20
-3.60382
11
9.37759
21
-3.59107
0
LINE
8
BLACK
6
CONTINUOUS
10
9.37759
20
-3.59107
11
9.39991
21
-3.5797
0
LINE
8
BLACK
6
CONTINUOUS
10
9.39991
20
-3.5797
11
9.42289
21
-3.56975
0
LINE
8
BLACK
6
CONTINUOUS
10
9.42289
20
-3.56975
11
9.44645
21
-3.56127
0
LINE
8
BLACK
6
CONTINUOUS
10
9.44645
20
-3.56127
11
9.4705
21
-3.55429
0
LINE
8
BLACK
6
CONTINUOUS
10
9.4705
20
-3.55429
11
9.49494
21
-3.54882
0
LINE
8
BLACK
6
CONTINUOUS
10
9.49494
20
-3.54882
11
9.51967
21
-3.54491
0
LINE
8
BLACK
6
CONTINUOUS
10
9.51967
20
-3.54491
11
9.5446
21
-3.54255
0
LINE
8
BLACK
6
CONTINUOUS
10
9.5446
20
-3.54255
11
9.56963
21
-3.54176
0
LINE
8
BLACK
6
CONTINUOUS
10
9.56963
20
-3.54176
11
9.59466
21
-3.54255
0
LINE
8
BLACK
6
CONTINUOUS
10
9.18143
20
-3.96481
11
9.18373
21
-3.98914
0
LINE
8
BLACK
6
CONTINUOUS
10
9.18373
20
-3.98914
11
9.18755
21
-4.01327
0
LINE
8
BLACK
6
CONTINUOUS
10
9.18755
20
-4.01327
11
9.19288
21
-4.03712
0
LINE
8
BLACK
6
CONTINUOUS
10
9.19288
20
-4.03712
11
9.1997
21
-4.06058
0
LINE
8
BLACK
6
CONTINUOUS
10
9.1997
20
-4.06058
11
9.20798
21
-4.08357
0
LINE
8
BLACK
6
CONTINUOUS
10
9.20798
20
-4.08357
11
9.21768
21
-4.106
0
LINE
8
BLACK
6
CONTINUOUS
10
9.21768
20
-4.106
11
9.22877
21
-4.12777
0
LINE
8
BLACK
6
CONTINUOUS
10
9.22877
20
-4.12777
11
9.24121
21
-4.14881
0
LINE
8
BLACK
6
CONTINUOUS
10
9.24121
20
-4.14881
11
9.25495
21
-4.16902
0
LINE
8
BLACK
6
CONTINUOUS
10
9.25495
20
-4.16902
11
9.26992
21
-4.18832
0
LINE
8
BLACK
6
CONTINUOUS
10
9.26992
20
-4.18832
11
9.28608
21
-4.20665
0
LINE
8
BLACK
6
CONTINUOUS
10
9.28608
20
-4.20665
11
9.30336
21
-4.22393
0
LINE
8
BLACK
6
CONTINUOUS
10
9.30336
20
-4.22393
11
9.32169
21
-4.24009
0
LINE
8
BLACK
6
CONTINUOUS
10
9.32169
20
-4.24009
11
9.341
21
-4.25507
0
LINE
8
BLACK
6
CONTINUOUS
10
9.341
20
-4.25507
11
9.36121
21
-4.2688
0
LINE
8
BLACK
6
CONTINUOUS
10
9.36121
20
-4.2688
11
9.38224
21
-4.28124
0
LINE
8
BLACK
6
CONTINUOUS
10
9.38224
20
-4.28124
11
9.40402
21
-4.29234
0
LINE
8
BLACK
6
CONTINUOUS
10
9.40402
20
-4.29234
11
9.42644
21
-4.30204
0
LINE
8
BLACK
6
CONTINUOUS
10
9.42644
20
-4.30204
11
9.44943
21
-4.31032
0
LINE
8
BLACK
6
CONTINUOUS
10
9.44943
20
-4.31032
11
9.4729
21
-4.31714
0
LINE
8
BLACK
6
CONTINUOUS
10
9.4729
20
-4.31714
11
9.49675
21
-4.32247
0
LINE
8
BLACK
6
CONTINUOUS
10
9.49675
20
-4.32247
11
9.52088
21
-4.32629
0
LINE
8
BLACK
6
CONTINUOUS
10
9.52088
20
-4.32629
11
9.54521
21
-4.32859
0
LINE
8
BLACK
6
CONTINUOUS
10
9.54521
20
-4.32859
11
9.56963
21
-4.32936
0
LINE
8
BLACK
6
CONTINUOUS
10
9.56963
20
-4.32936
11
9.59406
21
-4.32859
0
LINE
8
BLACK
6
CONTINUOUS
10
9.59406
20
-4.32859
11
9.61838
21
-4.32629
0
LINE
8
BLACK
6
CONTINUOUS
10
9.61838
20
-4.32629
11
9.64252
21
-4.32247
0
LINE
8
BLACK
6
CONTINUOUS
10
9.64252
20
-4.32247
11
9.66636
21
-4.31714
0
LINE
8
BLACK
6
CONTINUOUS
10
9.66636
20
-4.31714
11
9.68983
21
-4.31032
0
LINE
8
BLACK
6
CONTINUOUS
10
9.68983
20
-4.31032
11
9.71282
21
-4.30204
0
LINE
8
BLACK
6
CONTINUOUS
10
9.71282
20
-4.30204
11
9.73525
21
-4.29234
0
LINE
8
BLACK
6
CONTINUOUS
10
9.73525
20
-4.29234
11
9.75702
21
-4.28124
0
LINE
8
BLACK
6
CONTINUOUS
10
9.75702
20
-4.28124
11
9.77805
21
-4.2688
0
LINE
8
BLACK
6
CONTINUOUS
10
9.77805
20
-4.2688
11
9.79826
21
-4.25507
0
LINE
8
BLACK
6
CONTINUOUS
10
9.79826
20
-4.25507
11
9.81757
21
-4.24009
0
LINE
8
BLACK
6
CONTINUOUS
10
9.81757
20
-4.24009
11
9.8359
21
-4.22393
0
LINE
8
BLACK
6
CONTINUOUS
10
9.8359
20
-4.22393
11
9.85318
21
-4.20665
0
LINE
8
BLACK
6
CONTINUOUS
10
9.85318
20
-4.20665
11
9.86934
21
-4.18832
0
LINE
8
BLACK
6
CONTINUOUS
10
9.86934
20
-4.18832
11
9.88432
21
-4.16902
0
LINE
8
BLACK
6
CONTINUOUS
10
9.88432
20
-4.16902
11
9.89805
21
-4.14881
0
LINE
8
BLACK
6
CONTINUOUS
10
9.89805
20
-4.14881
11
9.91049
21
-4.12777
0
LINE
8
BLACK
6
CONTINUOUS
10
9.91049
20
-4.12777
11
9.92158
21
-4.106
0
LINE
8
BLACK
6
CONTINUOUS
10
9.92158
20
-4.106
11
9.93129
21
-4.08357
0
LINE
8
BLACK
6
CONTINUOUS
10
9.93129
20
-4.08357
11
9.93957
21
-4.06058
0
LINE
8
BLACK
6
CONTINUOUS
10
9.93957
20
-4.06058
11
9.94638
21
-4.03712
0
LINE
8
BLACK
6
CONTINUOUS
10
9.94638
20
-4.03712
11
9.95171
21
-4.01327
0
LINE
8
BLACK
6
CONTINUOUS
10
9.95171
20
-4.01327
11
9.95554
21
-3.98914
0
LINE
8
BLACK
6
CONTINUOUS
10
9.95554
20
-3.98914
11
9.95784
21
-3.96481
0
LINE
8
BLACK
6
CONTINUOUS
10
9.95784
20
-3.96481
11
9.9586
21
-3.94038
0
LINE
8
BLACK
6
CONTINUOUS
10
9.9586
20
-3.94038
11
9.95784
21
-3.91596
0
LINE
8
BLACK
6
CONTINUOUS
10
9.95784
20
-3.91596
11
9.95554
21
-3.89163
0
LINE
8
BLACK
6
CONTINUOUS
10
9.95554
20
-3.89163
11
9.95171
21
-3.8675
0
LINE
8
BLACK
6
CONTINUOUS
10
9.95171
20
-3.8675
11
9.94638
21
-3.84365
0
LINE
8
BLACK
6
CONTINUOUS
10
9.94638
20
-3.84365
11
9.93957
21
-3.82019
0
LINE
8
BLACK
6
CONTINUOUS
10
9.93957
20
-3.82019
11
9.93129
21
-3.79719
0
LINE
8
BLACK
6
CONTINUOUS
10
9.93129
20
-3.79719
11
9.92158
21
-3.77477
0
LINE
8
BLACK
6
CONTINUOUS
10
9.92158
20
-3.77477
11
9.91049
21
-3.753
0
LINE
8
BLACK
6
CONTINUOUS
10
9.91049
20
-3.753
11
9.89805
21
-3.73196
0
LINE
8
BLACK
6
CONTINUOUS
10
9.89805
20
-3.73196
11
9.88432
21
-3.71175
0
LINE
8
BLACK
6
CONTINUOUS
10
9.88432
20
-3.71175
11
9.86934
21
-3.69244
0
LINE
8
BLACK
6
CONTINUOUS
10
9.86934
20
-3.69244
11
9.85318
21
-3.67411
0
LINE
8
BLACK
6
CONTINUOUS
10
9.85318
20
-3.67411
11
9.8359
21
-3.65684
0
LINE
8
BLACK
6
CONTINUOUS
10
9.8359
20
-3.65684
11
9.81757
21
-3.64068
0
LINE
8
BLACK
6
CONTINUOUS
10
9.81757
20
-3.64068
11
9.79826
21
-3.6257
0
LINE
8
BLACK
6
CONTINUOUS
10
9.79826
20
-3.6257
11
9.77805
21
-3.61196
0
LINE
8
BLACK
6
CONTINUOUS
10
9.77805
20
-3.61196
11
9.75702
21
-3.59953
0
LINE
8
BLACK
6
CONTINUOUS
10
9.75702
20
-3.59953
11
9.73525
21
-3.58843
0
LINE
8
BLACK
6
CONTINUOUS
10
9.73525
20
-3.58843
11
9.71282
21
-3.57873
0
LINE
8
BLACK
6
CONTINUOUS
10
9.71282
20
-3.57873
11
9.68983
21
-3.57045
0
LINE
8
BLACK
6
CONTINUOUS
10
9.68983
20
-3.57045
11
9.66636
21
-3.56363
0
LINE
8
BLACK
6
CONTINUOUS
10
9.66636
20
-3.56363
11
9.64252
21
-3.5583
0
LINE
8
BLACK
6
CONTINUOUS
10
9.64252
20
-3.5583
11
9.61838
21
-3.55448
0
LINE
8
BLACK
6
CONTINUOUS
10
9.61838
20
-3.55448
11
9.59406
21
-3.55218
0
LINE
8
BLACK
6
CONTINUOUS
10
9.59406
20
-3.55218
11
9.56963
21
-3.55141
0
LINE
8
BLACK
6
CONTINUOUS
10
9.56963
20
-3.55141
11
9.54521
21
-3.55218
0
LINE
8
BLACK
6
CONTINUOUS
10
9.54521
20
-3.55218
11
9.52088
21
-3.55448
0
LINE
8
BLACK
6
CONTINUOUS
10
9.52088
20
-3.55448
11
9.49675
21
-3.5583
0
LINE
8
BLACK
6
CONTINUOUS
10
9.49675
20
-3.5583
11
9.4729
21
-3.56363
0
LINE
8
BLACK
6
CONTINUOUS
10
9.4729
20
-3.56363
11
9.44943
21
-3.57045
0
LINE
8
BLACK
6
CONTINUOUS
10
9.44943
20
-3.57045
11
9.42644
21
-3.57873
0
LINE
8
BLACK
6
CONTINUOUS
10
9.42644
20
-3.57873
11
9.40402
21
-3.58843
0
LINE
8
BLACK
6
CONTINUOUS
10
9.40402
20
-3.58843
11
9.38224
21
-3.59953
0
LINE
8
BLACK
6
CONTINUOUS
10
9.38224
20
-3.59953
11
9.36121
21
-3.61196
0
LINE
8
BLACK
6
CONTINUOUS
10
9.36121
20
-3.61196
11
9.341
21
-3.6257
0
LINE
8
BLACK
6
CONTINUOUS
10
9.341
20
-3.6257
11
9.32169
21
-3.64068
0
LINE
8
BLACK
6
CONTINUOUS
10
9.32169
20
-3.64068
11
9.30336
21
-3.65684
0
LINE
8
BLACK
6
CONTINUOUS
10
9.30336
20
-3.65684
11
9.28608
21
-3.67411
0
LINE
8
BLACK
6
CONTINUOUS
10
9.28608
20
-3.67411
11
9.26992
21
-3.69244
0
LINE
8
BLACK
6
CONTINUOUS
10
9.26992
20
-3.69244
11
9.25495
21
-3.71175
0
LINE
8
BLACK
6
CONTINUOUS
10
9.25495
20
-3.71175
11
9.24121
21
-3.73196
0
LINE
8
BLACK
6
CONTINUOUS
10
9.24121
20
-3.73196
11
9.22877
21
-3.753
0
LINE
8
BLACK
6
CONTINUOUS
10
9.22877
20
-3.753
11
9.21768
21
-3.77477
0
LINE
8
BLACK
6
CONTINUOUS
10
9.21768
20
-3.77477
11
9.20798
21
-3.79719
0
LINE
8
BLACK
6
CONTINUOUS
10
9.20798
20
-3.79719
11
9.1997
21
-3.82019
0
LINE
8
BLACK
6
CONTINUOUS
10
9.1997
20
-3.82019
11
9.19288
21
-3.84365
0
LINE
8
BLACK
6
CONTINUOUS
10
9.19288
20
-3.84365
11
9.18755
21
-3.8675
0
LINE
8
BLACK
6
CONTINUOUS
10
9.18755
20
-3.8675
11
9.18373
21
-3.89163
0
LINE
8
BLACK
6
CONTINUOUS
10
9.18373
20
-3.89163
11
9.18143
21
-3.91596
0
LINE
8
BLACK
6
CONTINUOUS
10
9.18143
20
-3.91596
11
9.18066
21
-3.94038
0
LINE
8
BLACK
6
CONTINUOUS
10
9.18066
20
-3.94038
11
9.18143
21
-3.96481
0
LINE
8
BLACK
6
CONTINUOUS
10
1.98823
20
-1.88997
11
1.99922
21
-1.89305
0
LINE
8
BLACK
6
CONTINUOUS
10
1.99922
20
-1.89305
11
2.0097
21
-1.8976
0
LINE
8
BLACK
6
CONTINUOUS
10
2.0097
20
-1.8976
11
2.01945
21
-1.90353
0
LINE
8
BLACK
6
CONTINUOUS
10
2.01945
20
-1.90353
11
2.02831
21
-1.91074
0
LINE
8
BLACK
6
CONTINUOUS
10
2.02831
20
-1.91074
11
2.0361
21
-1.91908
0
LINE
8
BLACK
6
CONTINUOUS
10
2.0361
20
-1.91908
11
2.04269
21
-1.92841
0
LINE
8
BLACK
6
CONTINUOUS
10
2.04269
20
-1.92841
11
2.04794
21
-1.93855
0
LINE
8
BLACK
6
CONTINUOUS
10
2.04794
20
-1.93855
11
2.05177
21
-1.94931
0
LINE
8
BLACK
6
CONTINUOUS
10
2.05177
20
-1.94931
11
2.05409
21
-1.96049
0
LINE
8
BLACK
6
CONTINUOUS
10
2.05409
20
-1.96049
11
2.05487
21
-1.97188
0
LINE
8
BLACK
6
CONTINUOUS
10
2.05487
20
-1.97188
11
2.05409
21
-1.98327
0
LINE
8
BLACK
6
CONTINUOUS
10
2.05409
20
-1.98327
11
2.05177
21
-1.99445
0
LINE
8
BLACK
6
CONTINUOUS
10
2.05177
20
-1.99445
11
2.04794
21
-2.00521
0
LINE
8
BLACK
6
CONTINUOUS
10
2.04794
20
-2.00521
11
2.04269
21
-2.01535
0
LINE
8
BLACK
6
CONTINUOUS
10
2.04269
20
-2.01535
11
2.0361
21
-2.02468
0
LINE
8
BLACK
6
CONTINUOUS
10
2.0361
20
-2.02468
11
2.02831
21
-2.03302
0
LINE
8
BLACK
6
CONTINUOUS
10
2.02831
20
-2.03302
11
2.01945
21
-2.04023
0
LINE
8
BLACK
6
CONTINUOUS
10
2.01945
20
-2.04023
11
2.0097
21
-2.04616
0
LINE
8
BLACK
6
CONTINUOUS
10
2.0097
20
-2.04616
11
1.99922
21
-2.05071
0
LINE
8
BLACK
6
CONTINUOUS
10
1.99922
20
-2.05071
11
1.98823
21
-2.05379
0
LINE
8
BLACK
6
CONTINUOUS
10
1.98823
20
-2.05379
11
1.97692
21
-2.05535
0
LINE
8
BLACK
6
CONTINUOUS
10
1.97692
20
-2.05535
11
1.9655
21
-2.05535
0
LINE
8
BLACK
6
CONTINUOUS
10
1.9655
20
-2.05535
11
1.95419
21
-2.05379
0
LINE
8
BLACK
6
CONTINUOUS
10
1.95419
20
-2.05379
11
1.94319
21
-2.05071
0
LINE
8
BLACK
6
CONTINUOUS
10
1.94319
20
-2.05071
11
1.93272
21
-2.04616
0
LINE
8
BLACK
6
CONTINUOUS
10
1.93272
20
-2.04616
11
1.92296
21
-2.04023
0
LINE
8
BLACK
6
CONTINUOUS
10
1.92296
20
-2.04023
11
1.9141
21
-2.03302
0
LINE
8
BLACK
6
CONTINUOUS
10
1.9141
20
-2.03302
11
1.90631
21
-2.02468
0
LINE
8
BLACK
6
CONTINUOUS
10
1.90631
20
-2.02468
11
1.89972
21
-2.01535
0
LINE
8
BLACK
6
CONTINUOUS
10
1.89972
20
-2.01535
11
1.89447
21
-2.00521
0
LINE
8
BLACK
6
CONTINUOUS
10
1.89447
20
-2.00521
11
1.89065
21
-1.99445
0
LINE
8
BLACK
6
CONTINUOUS
10
1.89065
20
-1.99445
11
1.88832
21
-1.98327
0
LINE
8
BLACK
6
CONTINUOUS
10
1.88832
20
-1.98327
11
1.88755
21
-1.97188
0
LINE
8
BLACK
6
CONTINUOUS
10
1.88755
20
-1.97188
11
1.88832
21
-1.96049
0
LINE
8
BLACK
6
CONTINUOUS
10
1.88832
20
-1.96049
11
1.89065
21
-1.94931
0
LINE
8
BLACK
6
CONTINUOUS
10
1.89065
20
-1.94931
11
1.89447
21
-1.93855
0
LINE
8
BLACK
6
CONTINUOUS
10
1.89447
20
-1.93855
11
1.89972
21
-1.92841
0
LINE
8
BLACK
6
CONTINUOUS
10
1.89972
20
-1.92841
11
1.90631
21
-1.91908
0
LINE
8
BLACK
6
CONTINUOUS
10
1.90631
20
-1.91908
11
1.9141
21
-1.91074
0
LINE
8
BLACK
6
CONTINUOUS
10
1.9141
20
-1.91074
11
1.92296
21
-1.90353
0
LINE
8
BLACK
6
CONTINUOUS
10
1.92296
20
-1.90353
11
1.93272
21
-1.8976
0
LINE
8
BLACK
6
CONTINUOUS
10
1.93272
20
-1.8976
11
1.94319
21
-1.89305
0
LINE
8
BLACK
6
CONTINUOUS
10
1.94319
20
-1.89305
11
1.95419
21
-1.88997
0
LINE
8
BLACK
6
CONTINUOUS
10
1.95419
20
-1.88997
11
1.9655
21
-1.88841
0
LINE
8
BLACK
6
CONTINUOUS
10
1.9655
20
-1.88841
11
1.97692
21
-1.88841
0
LINE
8
BLACK
6
CONTINUOUS
10
1.97692
20
-1.88841
11
1.98823
21
-1.88997
0
LINE
8
BLACK
6
CONTINUOUS
10
1.89795
20
-1.98241
11
1.9002
21
-1.99273
0
LINE
8
BLACK
6
CONTINUOUS
10
1.9002
20
-1.99273
11
1.90389
21
-2.00262
0
LINE
8
BLACK
6
CONTINUOUS
10
1.90389
20
-2.00262
11
1.90895
21
-2.01189
0
LINE
8
BLACK
6
CONTINUOUS
10
1.90895
20
-2.01189
11
1.91528
21
-2.02034
0
LINE
8
BLACK
6
CONTINUOUS
10
1.91528
20
-2.02034
11
1.92274
21
-2.02781
0
LINE
8
BLACK
6
CONTINUOUS
10
1.92274
20
-2.02781
11
1.93119
21
-2.03414
0
LINE
8
BLACK
6
CONTINUOUS
10
1.93119
20
-2.03414
11
1.94046
21
-2.0392
0
LINE
8
BLACK
6
CONTINUOUS
10
1.94046
20
-2.0392
11
1.95036
21
-2.04289
0
LINE
8
BLACK
6
CONTINUOUS
10
1.95036
20
-2.04289
11
1.96067
21
-2.04513
0
LINE
8
BLACK
6
CONTINUOUS
10
1.96067
20
-2.04513
11
1.97121
21
-2.04589
0
LINE
8
BLACK
6
CONTINUOUS
10
1.97121
20
-2.04589
11
1.98174
21
-2.04513
0
LINE
8
BLACK
6
CONTINUOUS
10
1.98174
20
-2.04513
11
1.99206
21
-2.04289
0
LINE
8
BLACK
6
CONTINUOUS
10
1.99206
20
-2.04289
11
2.00195
21
-2.0392
0
LINE
8
BLACK
6
CONTINUOUS
10
2.00195
20
-2.0392
11
2.01122
21
-2.03414
0
LINE
8
BLACK
6
CONTINUOUS
10
2.01122
20
-2.03414
11
2.01967
21
-2.02781
0
LINE
8
BLACK
6
CONTINUOUS
10
2.01967
20
-2.02781
11
2.02714
21
-2.02034
0
LINE
8
BLACK
6
CONTINUOUS
10
2.02714
20
-2.02034
11
2.03347
21
-2.01189
0
LINE
8
BLACK
6
CONTINUOUS
10
2.03347
20
-2.01189
11
2.03853
21
-2.00262
0
LINE
8
BLACK
6
CONTINUOUS
10
2.03853
20
-2.00262
11
2.04222
21
-1.99273
0
LINE
8
BLACK
6
CONTINUOUS
10
2.04222
20
-1.99273
11
2.04446
21
-1.98241
0
LINE
8
BLACK
6
CONTINUOUS
10
2.04446
20
-1.98241
11
2.04521
21
-1.97188
0
LINE
8
BLACK
6
CONTINUOUS
10
2.04521
20
-1.97188
11
2.04446
21
-1.96135
0
LINE
8
BLACK
6
CONTINUOUS
10
2.04446
20
-1.96135
11
2.04222
21
-1.95103
0
LINE
8
BLACK
6
CONTINUOUS
10
2.04222
20
-1.95103
11
2.03853
21
-1.94114
0
LINE
8
BLACK
6
CONTINUOUS
10
2.03853
20
-1.94114
11
2.03347
21
-1.93187
0
LINE
8
BLACK
6
CONTINUOUS
10
2.03347
20
-1.93187
11
2.02714
21
-1.92342
0
LINE
8
BLACK
6
CONTINUOUS
10
2.02714
20
-1.92342
11
2.01967
21
-1.91595
0
LINE
8
BLACK
6
CONTINUOUS
10
2.01967
20
-1.91595
11
2.01122
21
-1.90962
0
LINE
8
BLACK
6
CONTINUOUS
10
2.01122
20
-1.90962
11
2.00195
21
-1.90456
0
LINE
8
BLACK
6
CONTINUOUS
10
2.00195
20
-1.90456
11
1.99206
21
-1.90087
0
LINE
8
BLACK
6
CONTINUOUS
10
1.99206
20
-1.90087
11
1.98174
21
-1.89863
0
LINE
8
BLACK
6
CONTINUOUS
10
1.98174
20
-1.89863
11
1.97121
21
-1.89787
0
LINE
8
BLACK
6
CONTINUOUS
10
1.97121
20
-1.89787
11
1.96067
21
-1.89863
0
LINE
8
BLACK
6
CONTINUOUS
10
1.96067
20
-1.89863
11
1.95036
21
-1.90087
0
LINE
8
BLACK
6
CONTINUOUS
10
1.95036
20
-1.90087
11
1.94046
21
-1.90456
0
LINE
8
BLACK
6
CONTINUOUS
10
1.94046
20
-1.90456
11
1.93119
21
-1.90962
0
LINE
8
BLACK
6
CONTINUOUS
10
1.93119
20
-1.90962
11
1.92274
21
-1.91595
0
LINE
8
BLACK
6
CONTINUOUS
10
1.92274
20
-1.91595
11
1.91528
21
-1.92342
0
LINE
8
BLACK
6
CONTINUOUS
10
1.91528
20
-1.92342
11
1.90895
21
-1.93187
0
LINE
8
BLACK
6
CONTINUOUS
10
1.90895
20
-1.93187
11
1.90389
21
-1.94114
0
LINE
8
BLACK
6
CONTINUOUS
10
1.90389
20
-1.94114
11
1.9002
21
-1.95103
0
LINE
8
BLACK
6
CONTINUOUS
10
1.9002
20
-1.95103
11
1.89795
21
-1.96135
0
LINE
8
BLACK
6
CONTINUOUS
10
1.89795
20
-1.96135
11
1.8972
21
-1.97188
0
LINE
8
BLACK
6
CONTINUOUS
10
1.8972
20
-1.97188
11
1.89795
21
-1.98241
0
LINE
8
BLACK
6
CONTINUOUS
10
9.7835
20
-1.88997
11
9.7945
21
-1.89305
0
LINE
8
BLACK
6
CONTINUOUS
10
9.7945
20
-1.89305
11
9.80497
21
-1.8976
0
LINE
8
BLACK
6
CONTINUOUS
10
9.80497
20
-1.8976
11
9.81473
21
-1.90353
0
LINE
8
BLACK
6
CONTINUOUS
10
9.81473
20
-1.90353
11
9.82359
21
-1.91074
0
LINE
8
BLACK
6
CONTINUOUS
10
9.82359
20
-1.91074
11
9.83138
21
-1.91908
0
LINE
8
BLACK
6
CONTINUOUS
10
9.83138
20
-1.91908
11
9.83796
21
-1.92841
0
LINE
8
BLACK
6
CONTINUOUS
10
9.83796
20
-1.92841
11
9.84322
21
-1.93855
0
LINE
8
BLACK
6
CONTINUOUS
10
9.84322
20
-1.93855
11
9.84704
21
-1.94931
0
LINE
8
BLACK
6
CONTINUOUS
10
9.84704
20
-1.94931
11
9.84936
21
-1.96049
0
LINE
8
BLACK
6
CONTINUOUS
10
9.84936
20
-1.96049
11
9.85014
21
-1.97188
0
LINE
8
BLACK
6
CONTINUOUS
10
9.85014
20
-1.97188
11
9.84936
21
-1.98327
0
LINE
8
BLACK
6
CONTINUOUS
10
9.84936
20
-1.98327
11
9.84704
21
-1.99445
0
LINE
8
BLACK
6
CONTINUOUS
10
9.84704
20
-1.99445
11
9.84322
21
-2.00521
0
LINE
8
BLACK
6
CONTINUOUS
10
9.84322
20
-2.00521
11
9.83796
21
-2.01535
0
LINE
8
BLACK
6
CONTINUOUS
10
9.83796
20
-2.01535
11
9.83138
21
-2.02468
0
LINE
8
BLACK
6
CONTINUOUS
10
9.83138
20
-2.02468
11
9.82359
21
-2.03302
0
LINE
8
BLACK
6
CONTINUOUS
10
9.82359
20
-2.03302
11
9.81473
21
-2.04023
0
LINE
8
BLACK
6
CONTINUOUS
10
9.81473
20
-2.04023
11
9.80497
21
-2.04616
0
LINE
8
BLACK
6
CONTINUOUS
10
9.80497
20
-2.04616
11
9.7945
21
-2.05071
0
LINE
8
BLACK
6
CONTINUOUS
10
9.7945
20
-2.05071
11
9.7835
21
-2.05379
0
LINE
8
BLACK
6
CONTINUOUS
10
9.7835
20
-2.05379
11
9.77219
21
-2.05535
0
LINE
8
BLACK
6
CONTINUOUS
10
9.77219
20
-2.05535
11
9.76077
21
-2.05535
0
LINE
8
BLACK
6
CONTINUOUS
10
9.76077
20
-2.05535
11
9.74946
21
-2.05379
0
LINE
8
BLACK
6
CONTINUOUS
10
9.74946
20
-2.05379
11
9.73847
21
-2.05071
0
LINE
8
BLACK
6
CONTINUOUS
10
9.73847
20
-2.05071
11
9.72799
21
-2.04616
0
LINE
8
BLACK
6
CONTINUOUS
10
9.72799
20
-2.04616
11
9.71824
21
-2.04023
0
LINE
8
BLACK
6
CONTINUOUS
10
9.71824
20
-2.04023
11
9.70938
21
-2.03302
0
LINE
8
BLACK
6
CONTINUOUS
10
9.70938
20
-2.03302
11
9.70158
21
-2.02468
0
LINE
8
BLACK
6
CONTINUOUS
10
9.70158
20
-2.02468
11
9.695
21
-2.01535
0
LINE
8
BLACK
6
CONTINUOUS
10
9.695
20
-2.01535
11
9.68975
21
-2.00521
0
LINE
8
BLACK
6
CONTINUOUS
10
9.68975
20
-2.00521
11
9.68592
21
-1.99445
0
LINE
8
BLACK
6
CONTINUOUS
10
9.68592
20
-1.99445
11
9.6836
21
-1.98327
0
LINE
8
BLACK
6
CONTINUOUS
10
9.6836
20
-1.98327
11
9.68282
21
-1.97188
0
LINE
8
BLACK
6
CONTINUOUS
10
9.68282
20
-1.97188
11
9.6836
21
-1.96049
0
LINE
8
BLACK
6
CONTINUOUS
10
9.6836
20
-1.96049
11
9.68592
21
-1.94931
0
LINE
8
BLACK
6
CONTINUOUS
10
9.68592
20
-1.94931
11
9.68975
21
-1.93855
0
LINE
8
BLACK
6
CONTINUOUS
10
9.68975
20
-1.93855
11
9.695
21
-1.92841
0
LINE
8
BLACK
6
CONTINUOUS
10
9.695
20
-1.92841
11
9.70158
21
-1.91908
0
LINE
8
BLACK
6
CONTINUOUS
10
9.70158
20
-1.91908
11
9.70938
21
-1.91074
0
LINE
8
BLACK
6
CONTINUOUS
10
9.70938
20
-1.91074
11
9.71824
21
-1.90353
0
LINE
8
BLACK
6
CONTINUOUS
10
9.71824
20
-1.90353
11
9.72799
21
-1.8976
0
LINE
8
BLACK
6
CONTINUOUS
10
9.72799
20
-1.8976
11
9.73847
21
-1.89305
0
LINE
8
BLACK
6
CONTINUOUS
10
9.73847
20
-1.89305
11
9.74946
21
-1.88997
0
LINE
8
BLACK
6
CONTINUOUS
10
9.74946
20
-1.88997
11
9.76077
21
-1.88841
0
LINE
8
BLACK
6
CONTINUOUS
10
9.76077
20
-1.88841
11
9.77219
21
-1.88841
0
LINE
8
BLACK
6
CONTINUOUS
10
9.77219
20
-1.88841
11
9.7835
21
-1.88997
0
LINE
8
BLACK
6
CONTINUOUS
10
9.69323
20
-1.98241
11
9.69547
21
-1.99273
0
LINE
8
BLACK
6
CONTINUOUS
10
9.69547
20
-1.99273
11
9.69916
21
-2.00262
0
LINE
8
BLACK
6
CONTINUOUS
10
9.69916
20
-2.00262
11
9.70422
21
-2.01189
0
LINE
8
BLACK
6
CONTINUOUS
10
9.70422
20
-2.01189
11
9.71055
21
-2.02034
0
LINE
8
BLACK
6
CONTINUOUS
10
9.71055
20
-2.02034
11
9.71802
21
-2.02781
0
LINE
8
BLACK
6
CONTINUOUS
10
9.71802
20
-2.02781
11
9.72647
21
-2.03414
0
LINE
8
BLACK
6
CONTINUOUS
10
9.72647
20
-2.03414
11
9.73574
21
-2.0392
0
LINE
8
BLACK
6
CONTINUOUS
10
9.73574
20
-2.0392
11
9.74563
21
-2.04289
0
LINE
8
BLACK
6
CONTINUOUS
10
9.74563
20
-2.04289
11
9.75595
21
-2.04513
0
LINE
8
BLACK
6
CONTINUOUS
10
9.75595
20
-2.04513
11
9.76648
21
-2.04589
0
LINE
8
BLACK
6
CONTINUOUS
10
9.76648
20
-2.04589
11
9.77701
21
-2.04513
0
LINE
8
BLACK
6
CONTINUOUS
10
9.77701
20
-2.04513
11
9.78733
21
-2.04289
0
LINE
8
BLACK
6
CONTINUOUS
10
9.78733
20
-2.04289
11
9.79723
21
-2.0392
0
LINE
8
BLACK
6
CONTINUOUS
10
9.79723
20
-2.0392
11
9.80649
21
-2.03414
0
LINE
8
BLACK
6
CONTINUOUS
10
9.80649
20
-2.03414
11
9.81495
21
-2.02781
0
LINE
8
BLACK
6
CONTINUOUS
10
9.81495
20
-2.02781
11
9.82241
21
-2.02034
0
LINE
8
BLACK
6
CONTINUOUS
10
9.82241
20
-2.02034
11
9.82874
21
-2.01189
0
LINE
8
BLACK
6
CONTINUOUS
10
9.82874
20
-2.01189
11
9.8338
21
-2.00262
0
LINE
8
BLACK
6
CONTINUOUS
10
9.8338
20
-2.00262
11
9.83749
21
-1.99273
0
LINE
8
BLACK
6
CONTINUOUS
10
9.83749
20
-1.99273
11
9.83974
21
-1.98241
0
LINE
8
BLACK
6
CONTINUOUS
10
9.83974
20
-1.98241
11
9.84049
21
-1.97188
0
LINE
8
BLACK
6
CONTINUOUS
10
9.84049
20
-1.97188
11
9.83974
21
-1.96135
0
LINE
8
BLACK
6
CONTINUOUS
10
9.83974
20
-1.96135
11
9.83749
21
-1.95103
0
LINE
8
BLACK
6
CONTINUOUS
10
9.83749
20
-1.95103
11
9.8338
21
-1.94114
0
LINE
8
BLACK
6
CONTINUOUS
10
9.8338
20
-1.94114
11
9.82874
21
-1.93187
0
LINE
8
BLACK
6
CONTINUOUS
10
9.82874
20
-1.93187
11
9.82241
21
-1.92342
0
LINE
8
BLACK
6
CONTINUOUS
10
9.82241
20
-1.92342
11
9.81495
21
-1.91595
0
LINE
8
BLACK
6
CONTINUOUS
10
9.81495
20
-1.91595
11
9.80649
21
-1.90962
0
LINE
8
BLACK
6
CONTINUOUS
10
9.80649
20
-1.90962
11
9.79723
21
-1.90456
0
LINE
8
BLACK
6
CONTINUOUS
10
9.79723
20
-1.90456
11
9.78733
21
-1.90087
0
LINE
8
BLACK
6
CONTINUOUS
10
9.78733
20
-1.90087
11
9.77701
21
-1.89863
0
LINE
8
BLACK
6
CONTINUOUS
10
9.77701
20
-1.89863
11
9.76648
21
-1.89787
0
LINE
8
BLACK
6
CONTINUOUS
10
9.76648
20
-1.89787
11
9.75595
21
-1.89863
0
LINE
8
BLACK
6
CONTINUOUS
10
9.75595
20
-1.89863
11
9.74563
21
-1.90087
0
LINE
8
BLACK
6
CONTINUOUS
10
9.74563
20
-1.90087
11
9.73574
21
-1.90456
0
LINE
8
BLACK
6
CONTINUOUS
10
9.73574
20
-1.90456
11
9.72647
21
-1.90962
0
LINE
8
BLACK
6
CONTINUOUS
10
9.72647
20
-1.90962
11
9.71802
21
-1.91595
0
LINE
8
BLACK
6
CONTINUOUS
10
9.71802
20
-1.91595
11
9.71055
21
-1.92342
0
LINE
8
BLACK
6
CONTINUOUS
10
9.71055
20
-1.92342
11
9.70422
21
-1.93187
0
LINE
8
BLACK
6
CONTINUOUS
10
9.70422
20
-1.93187
11
9.69916
21
-1.94114
0
LINE
8
BLACK
6
CONTINUOUS
10
9.69916
20
-1.94114
11
9.69547
21
-1.95103
0
LINE
8
BLACK
6
CONTINUOUS
10
9.69547
20
-1.95103
11
9.69323
21
-1.96135
0
LINE
8
BLACK
6
CONTINUOUS
10
9.69323
20
-1.96135
11
9.69247
21
-1.97188
0
LINE
8
BLACK
6
CONTINUOUS
10
9.69247
20
-1.97188
11
9.69323
21
-1.98241
0
LINE
8
BLACK
6
CONTINUOUS
10
5.88587
20
-1.61438
11
5.89686
21
-1.61746
0
LINE
8
BLACK
6
CONTINUOUS
10
5.89686
20
-1.61746
11
5.90733
21
-1.62201
0
LINE
8
BLACK
6
CONTINUOUS
10
5.90733
20
-1.62201
11
5.91709
21
-1.62794
0
LINE
8
BLACK
6
CONTINUOUS
10
5.91709
20
-1.62794
11
5.92595
21
-1.63515
0
LINE
8
BLACK
6
CONTINUOUS
10
5.92595
20
-1.63515
11
5.93374
21
-1.64349
0
LINE
8
BLACK
6
CONTINUOUS
10
5.93374
20
-1.64349
11
5.94033
21
-1.65282
0
LINE
8
BLACK
6
CONTINUOUS
10
5.94033
20
-1.65282
11
5.94558
21
-1.66296
0
LINE
8
BLACK
6
CONTINUOUS
10
5.94558
20
-1.66296
11
5.9494
21
-1.67372
0
LINE
8
BLACK
6
CONTINUOUS
10
5.9494
20
-1.67372
11
5.95173
21
-1.6849
0
LINE
8
BLACK
6
CONTINUOUS
10
5.95173
20
-1.6849
11
5.95251
21
-1.69629
0
LINE
8
BLACK
6
CONTINUOUS
10
5.95251
20
-1.69629
11
5.95173
21
-1.70768
0
LINE
8
BLACK
6
CONTINUOUS
10
5.95173
20
-1.70768
11
5.9494
21
-1.71886
0
LINE
8
BLACK
6
CONTINUOUS
10
5.9494
20
-1.71886
11
5.94558
21
-1.72962
0
LINE
8
BLACK
6
CONTINUOUS
10
5.94558
20
-1.72962
11
5.94033
21
-1.73976
0
LINE
8
BLACK
6
CONTINUOUS
10
5.94033
20
-1.73976
11
5.93374
21
-1.74909
0
LINE
8
BLACK
6
CONTINUOUS
10
5.93374
20
-1.74909
11
5.92595
21
-1.75743
0
LINE
8
BLACK
6
CONTINUOUS
10
5.92595
20
-1.75743
11
5.91709
21
-1.76464
0
LINE
8
BLACK
6
CONTINUOUS
10
5.91709
20
-1.76464
11
5.90733
21
-1.77057
0
LINE
8
BLACK
6
CONTINUOUS
10
5.90733
20
-1.77057
11
5.89686
21
-1.77512
0
LINE
8
BLACK
6
CONTINUOUS
10
5.89686
20
-1.77512
11
5.88587
21
-1.7782
0
LINE
8
BLACK
6
CONTINUOUS
10
5.88587
20
-1.7782
11
5.87455
21
-1.77976
0
LINE
8
BLACK
6
CONTINUOUS
10
5.87455
20
-1.77976
11
5.86313
21
-1.77976
0
LINE
8
BLACK
6
CONTINUOUS
10
5.86313
20
-1.77976
11
5.85182
21
-1.7782
0
LINE
8
BLACK
6
CONTINUOUS
10
5.85182
20
-1.7782
11
5.84083
21
-1.77512
0
LINE
8
BLACK
6
CONTINUOUS
10
5.84083
20
-1.77512
11
5.83035
21
-1.77057
0
LINE
8
BLACK
6
CONTINUOUS
10
5.83035
20
-1.77057
11
5.8206
21
-1.76464
0
LINE
8
BLACK
6
CONTINUOUS
10
5.8206
20
-1.76464
11
5.81174
21
-1.75743
0
LINE
8
BLACK
6
CONTINUOUS
10
5.81174
20
-1.75743
11
5.80395
21
-1.74909
0
LINE
8
BLACK
6
CONTINUOUS
10
5.80395
20
-1.74909
11
5.79736
21
-1.73976
0
LINE
8
BLACK
6
CONTINUOUS
10
5.79736
20
-1.73976
11
5.79211
21
-1.72962
0
LINE
8
BLACK
6
CONTINUOUS
10
5.79211
20
-1.72962
11
5.78829
21
-1.71886
0
LINE
8
BLACK
6
CONTINUOUS
10
5.78829
20
-1.71886
11
5.78596
21
-1.70768
0
LINE
8
BLACK
6
CONTINUOUS
10
5.78596
20
-1.70768
11
5.78518
21
-1.69629
0
LINE
8
BLACK
6
CONTINUOUS
10
5.78518
20
-1.69629
11
5.78596
21
-1.6849
0
LINE
8
BLACK
6
CONTINUOUS
10
5.78596
20
-1.6849
11
5.78829
21
-1.67372
0
LINE
8
BLACK
6
CONTINUOUS
10
5.78829
20
-1.67372
11
5.79211
21
-1.66296
0
LINE
8
BLACK
6
CONTINUOUS
10
5.79211
20
-1.66296
11
5.79736
21
-1.65282
0
LINE
8
BLACK
6
CONTINUOUS
10
5.79736
20
-1.65282
11
5.80395
21
-1.64349
0
LINE
8
BLACK
6
CONTINUOUS
10
5.80395
20
-1.64349
11
5.81174
21
-1.63515
0
LINE
8
BLACK
6
CONTINUOUS
10
5.81174
20
-1.63515
11
5.8206
21
-1.62794
0
LINE
8
BLACK
6
CONTINUOUS
10
5.8206
20
-1.62794
11
5.83035
21
-1.62201
0
LINE
8
BLACK
6
CONTINUOUS
10
5.83035
20
-1.62201
11
5.84083
21
-1.61746
0
LINE
8
BLACK
6
CONTINUOUS
10
5.84083
20
-1.61746
11
5.85182
21
-1.61438
0
LINE
8
BLACK
6
CONTINUOUS
10
5.85182
20
-1.61438
11
5.86313
21
-1.61282
0
LINE
8
BLACK
6
CONTINUOUS
10
5.86313
20
-1.61282
11
5.87455
21
-1.61282
0
LINE
8
BLACK
6
CONTINUOUS
10
5.87455
20
-1.61282
11
5.88587
21
-1.61438
0
LINE
8
BLACK
6
CONTINUOUS
10
5.79559
20
-1.70682
11
5.79783
21
-1.71714
0
LINE
8
BLACK
6
CONTINUOUS
10
5.79783
20
-1.71714
11
5.80152
21
-1.72703
0
LINE
8
BLACK
6
CONTINUOUS
10
5.80152
20
-1.72703
11
5.80659
21
-1.7363
0
LINE
8
BLACK
6
CONTINUOUS
10
5.80659
20
-1.7363
11
5.81291
21
-1.74475
0
LINE
8
BLACK
6
CONTINUOUS
10
5.81291
20
-1.74475
11
5.82038
21
-1.75222
0
LINE
8
BLACK
6
CONTINUOUS
10
5.82038
20
-1.75222
11
5.82883
21
-1.75855
0
LINE
8
BLACK
6
CONTINUOUS
10
5.82883
20
-1.75855
11
5.8381
21
-1.76361
0
LINE
8
BLACK
6
CONTINUOUS
10
5.8381
20
-1.76361
11
5.84799
21
-1.7673
0
LINE
8
BLACK
6
CONTINUOUS
10
5.84799
20
-1.7673
11
5.85831
21
-1.76954
0
LINE
8
BLACK
6
CONTINUOUS
10
5.85831
20
-1.76954
11
5.86884
21
-1.7703
0
LINE
8
BLACK
6
CONTINUOUS
10
5.86884
20
-1.7703
11
5.87938
21
-1.76954
0
LINE
8
BLACK
6
CONTINUOUS
10
5.87938
20
-1.76954
11
5.88969
21
-1.7673
0
LINE
8
BLACK
6
CONTINUOUS
10
5.88969
20
-1.7673
11
5.89959
21
-1.76361
0
LINE
8
BLACK
6
CONTINUOUS
10
5.89959
20
-1.76361
11
5.90886
21
-1.75855
0
LINE
8
BLACK
6
CONTINUOUS
10
5.90886
20
-1.75855
11
5.91731
21
-1.75222
0
LINE
8
BLACK
6
CONTINUOUS
10
5.91731
20
-1.75222
11
5.92478
21
-1.74475
0
LINE
8
BLACK
6
CONTINUOUS
10
5.92478
20
-1.74475
11
5.9311
21
-1.7363
0
LINE
8
BLACK
6
CONTINUOUS
10
5.9311
20
-1.7363
11
5.93616
21
-1.72703
0
LINE
8
BLACK
6
CONTINUOUS
10
5.93616
20
-1.72703
11
5.93985
21
-1.71714
0
LINE
8
BLACK
6
CONTINUOUS
10
5.93985
20
-1.71714
11
5.9421
21
-1.70682
0
LINE
8
BLACK
6
CONTINUOUS
10
5.9421
20
-1.70682
11
5.94285
21
-1.69629
0
LINE
8
BLACK
6
CONTINUOUS
10
5.94285
20
-1.69629
11
5.9421
21
-1.68576
0
LINE
8
BLACK
6
CONTINUOUS
10
5.9421
20
-1.68576
11
5.93985
21
-1.67544
0
LINE
8
BLACK
6
CONTINUOUS
10
5.93985
20
-1.67544
11
5.93616
21
-1.66555
0
LINE
8
BLACK
6
CONTINUOUS
10
5.93616
20
-1.66555
11
5.9311
21
-1.65628
0
LINE
8
BLACK
6
CONTINUOUS
10
5.9311
20
-1.65628
11
5.92478
21
-1.64783
0
LINE
8
BLACK
6
CONTINUOUS
10
5.92478
20
-1.64783
11
5.91731
21
-1.64036
0
LINE
8
BLACK
6
CONTINUOUS
10
5.91731
20
-1.64036
11
5.90886
21
-1.63403
0
LINE
8
BLACK
6
CONTINUOUS
10
5.90886
20
-1.63403
11
5.89959
21
-1.62897
0
LINE
8
BLACK
6
CONTINUOUS
10
5.89959
20
-1.62897
11
5.88969
21
-1.62528
0
LINE
8
BLACK
6
CONTINUOUS
10
5.88969
20
-1.62528
11
5.87938
21
-1.62304
0
LINE
8
BLACK
6
CONTINUOUS
10
5.87938
20
-1.62304
11
5.86884
21
-1.62228
0
LINE
8
BLACK
6
CONTINUOUS
10
5.86884
20
-1.62228
11
5.85831
21
-1.62304
0
LINE
8
BLACK
6
CONTINUOUS
10
5.85831
20
-1.62304
11
5.84799
21
-1.62528
0
LINE
8
BLACK
6
CONTINUOUS
10
5.84799
20
-1.62528
11
5.8381
21
-1.62897
0
LINE
8
BLACK
6
CONTINUOUS
10
5.8381
20
-1.62897
11
5.82883
21
-1.63403
0
LINE
8
BLACK
6
CONTINUOUS
10
5.82883
20
-1.63403
11
5.82038
21
-1.64036
0
LINE
8
BLACK
6
CONTINUOUS
10
5.82038
20
-1.64036
11
5.81291
21
-1.64783
0
LINE
8
BLACK
6
CONTINUOUS
10
5.81291
20
-1.64783
11
5.80659
21
-1.65628
0
LINE
8
BLACK
6
CONTINUOUS
10
5.80659
20
-1.65628
11
5.80152
21
-1.66555
0
LINE
8
BLACK
6
CONTINUOUS
10
5.80152
20
-1.66555
11
5.79783
21
-1.67544
0
LINE
8
BLACK
6
CONTINUOUS
10
5.79783
20
-1.67544
11
5.79559
21
-1.68576
0
LINE
8
BLACK
6
CONTINUOUS
10
5.79559
20
-1.68576
11
5.79484
21
-1.69629
0
LINE
8
BLACK
6
CONTINUOUS
10
5.79484
20
-1.69629
11
5.79559
21
-1.70682
0
LINE
8
BLACK
6
CONTINUOUS
10
6.57889
20
-0.982906
11
6.57919
21
-0.983101
0
LINE
8
BLACK
6
CONTINUOUS
10
6.57919
20
-0.983101
11
6.57955
21
-0.983152
0
LINE
8
BLACK
6
CONTINUOUS
10
6.57955
20
-0.983152
11
6.58034
21
-0.983838
0
LINE
8
BLACK
6
CONTINUOUS
10
6.58034
20
-0.983838
11
6.58122
21
-0.984406
0
LINE
8
BLACK
6
CONTINUOUS
10
6.58122
20
-0.984406
11
6.58137
21
-0.984732
0
LINE
8
BLACK
6
CONTINUOUS
10
6.58137
20
-0.984732
11
6.58165
21
-0.984968
0
LINE
8
BLACK
6
CONTINUOUS
10
6.58165
20
-0.984968
11
6.58194
21
-0.985974
0
LINE
8
BLACK
6
CONTINUOUS
10
6.58194
20
-0.985974
11
6.58238
21
-0.986928
0
LINE
8
BLACK
6
CONTINUOUS
10
6.58238
20
-0.986928
11
6.58233
21
-0.987284
0
LINE
8
BLACK
6
CONTINUOUS
10
6.58233
20
-0.987284
11
6.58243
21
-0.987628
0
LINE
8
BLACK
6
CONTINUOUS
10
6.58243
20
-0.987628
11
6.58243
21
-1.96696
0
LINE
8
BLACK
6
CONTINUOUS
10
6.58243
20
-1.96696
11
7.08932
21
-1.96696
0
LINE
8
BLACK
6
CONTINUOUS
10
7.08932
20
-1.96696
11
7.0907
21
-1.96716
0
LINE
8
BLACK
6
CONTINUOUS
10
7.0907
20
-1.96716
11
7.09101
21
-1.96735
0
LINE
8
BLACK
6
CONTINUOUS
10
7.09101
20
-1.96735
11
7.09136
21
-1.9674
0
LINE
8
BLACK
6
CONTINUOUS
10
7.09136
20
-1.9674
11
7.09215
21
-1.96809
0
LINE
8
BLACK
6
CONTINUOUS
10
7.09215
20
-1.96809
11
7.09304
21
-1.96866
0
LINE
8
BLACK
6
CONTINUOUS
10
7.09304
20
-1.96866
11
7.09319
21
-1.96898
0
LINE
8
BLACK
6
CONTINUOUS
10
7.09319
20
-1.96898
11
7.09346
21
-1.96922
0
LINE
8
BLACK
6
CONTINUOUS
10
7.09346
20
-1.96922
11
7.09375
21
-1.97023
0
LINE
8
BLACK
6
CONTINUOUS
10
7.09375
20
-1.97023
11
7.09419
21
-1.97118
0
LINE
8
BLACK
6
CONTINUOUS
10
7.09419
20
-1.97118
11
7.09414
21
-1.97154
0
LINE
8
BLACK
6
CONTINUOUS
10
7.09414
20
-1.97154
11
7.09424
21
-1.97188
0
LINE
8
BLACK
6
CONTINUOUS
10
7.09424
20
-1.97188
11
7.09424
21
-2.00633
0
LINE
8
BLACK
6
CONTINUOUS
10
7.09424
20
-2.00633
11
7.59621
21
-2.00633
0
LINE
8
BLACK
6
CONTINUOUS
10
7.59621
20
-2.00633
11
7.59621
21
-1.97188
0
LINE
8
BLACK
6
CONTINUOUS
10
7.59621
20
-1.97188
11
7.59641
21
-1.97049
0
LINE
8
BLACK
6
CONTINUOUS
10
7.59641
20
-1.97049
11
7.5966
21
-1.97019
0
LINE
8
BLACK
6
CONTINUOUS
10
7.5966
20
-1.97019
11
7.59665
21
-1.96984
0
LINE
8
BLACK
6
CONTINUOUS
10
7.59665
20
-1.96984
11
7.59734
21
-1.96904
0
LINE
8
BLACK
6
CONTINUOUS
10
7.59734
20
-1.96904
11
7.5979
21
-1.96816
0
LINE
8
BLACK
6
CONTINUOUS
10
7.5979
20
-1.96816
11
7.59823
21
-1.96801
0
LINE
8
BLACK
6
CONTINUOUS
10
7.59823
20
-1.96801
11
7.59847
21
-1.96774
0
LINE
8
BLACK
6
CONTINUOUS
10
7.59847
20
-1.96774
11
7.59947
21
-1.96744
0
LINE
8
BLACK
6
CONTINUOUS
10
7.59947
20
-1.96744
11
7.60043
21
-1.96701
0
LINE
8
BLACK
6
CONTINUOUS
10
7.60043
20
-1.96701
11
7.60078
21
-1.96706
0
LINE
8
BLACK
6
CONTINUOUS
10
7.60078
20
-1.96706
11
7.60113
21
-1.96696
0
LINE
8
BLACK
6
CONTINUOUS
10
7.60113
20
-1.96696
11
9.52534
21
-1.96696
0
LINE
8
BLACK
6
CONTINUOUS
10
9.52534
20
-1.96696
11
9.52534
21
-0.987628
0
LINE
8
BLACK
6
CONTINUOUS
10
9.52534
20
-0.987628
11
9.52554
21
-0.986242
0
LINE
8
BLACK
6
CONTINUOUS
10
9.52554
20
-0.986242
11
9.52581
21
-0.985828
0
LINE
8
BLACK
6
CONTINUOUS
10
9.52581
20
-0.985828
11
9.5259
21
-0.985345
0
LINE
8
BLACK
6
CONTINUOUS
10
9.5259
20
-0.985345
11
9.52654
21
-0.984683
0
LINE
8
BLACK
6
CONTINUOUS
10
9.52654
20
-0.984683
11
9.52704
21
-0.983909
0
LINE
8
BLACK
6
CONTINUOUS
10
9.52704
20
-0.983909
11
9.52749
21
-0.983704
0
LINE
8
BLACK
6
CONTINUOUS
10
9.52749
20
-0.983704
11
9.52783
21
-0.98335
0
LINE
8
BLACK
6
CONTINUOUS
10
9.52783
20
-0.98335
11
9.52872
21
-0.983139
0
LINE
8
BLACK
6
CONTINUOUS
10
9.52872
20
-0.983139
11
9.52956
21
-0.982757
0
LINE
8
BLACK
6
CONTINUOUS
10
9.52956
20
-0.982757
11
9.53005
21
-0.982827
0
LINE
8
BLACK
6
CONTINUOUS
10
9.53005
20
-0.982827
11
9.53053
21
-0.982714
0
LINE
8
BLACK
6
CONTINUOUS
10
9.53053
20
-0.982714
11
9.60144
21
-0.986556
0
LINE
8
BLACK
6
CONTINUOUS
10
9.60144
20
-0.986556
11
9.60181
21
-0.986632
0
LINE
8
BLACK
6
CONTINUOUS
10
9.60181
20
-0.986632
11
9.60196
21
-0.986613
0
LINE
8
BLACK
6
CONTINUOUS
10
9.60196
20
-0.986613
11
9.67194
21
-0.998016
0
LINE
8
BLACK
6
CONTINUOUS
10
9.67194
20
-0.998016
11
9.6723
21
-0.998128
0
LINE
8
BLACK
6
CONTINUOUS
10
9.6723
20
-0.998128
11
9.67244
21
-0.998125
0
LINE
8
BLACK
6
CONTINUOUS
10
9.67244
20
-0.998125
11
9.7414
21
-1.0169
0
LINE
8
BLACK
6
CONTINUOUS
10
9.7414
20
-1.0169
11
9.74173
21
-1.01704
0
LINE
8
BLACK
6
CONTINUOUS
10
9.74173
20
-1.01704
11
9.74187
21
-1.01705
0
LINE
8
BLACK
6
CONTINUOUS
10
9.74187
20
-1.01705
11
9.80973
21
-1.04302
0
LINE
8
BLACK
6
CONTINUOUS
10
9.80973
20
-1.04302
11
9.81002
21
-1.04318
0
LINE
8
BLACK
6
CONTINUOUS
10
9.81002
20
-1.04318
11
9.81015
21
-1.04321
0
LINE
8
BLACK
6
CONTINUOUS
10
9.81015
20
-1.04321
11
9.87682
21
-1.07618
0
LINE
8
BLACK
6
CONTINUOUS
10
9.87682
20
-1.07618
11
9.87707
21
-1.07635
0
LINE
8
BLACK
6
CONTINUOUS
10
9.87707
20
-1.07635
11
9.87719
21
-1.07638
0
LINE
8
BLACK
6
CONTINUOUS
10
9.87719
20
-1.07638
11
9.94258
21
-1.11617
0
LINE
8
BLACK
6
CONTINUOUS
10
9.94258
20
-1.11617
11
9.9428
21
-1.11635
0
LINE
8
BLACK
6
CONTINUOUS
10
9.9428
20
-1.11635
11
9.94291
21
-1.11639
0
LINE
8
BLACK
6
CONTINUOUS
10
9.94291
20
-1.11639
11
10.0069
21
-1.16282
0
LINE
8
BLACK
6
CONTINUOUS
10
10.0069
20
-1.16282
11
10.0071
21
-1.163
0
LINE
8
BLACK
6
CONTINUOUS
10
10.0071
20
-1.163
11
10.0072
21
-1.16304
0
LINE
8
BLACK
6
CONTINUOUS
10
10.0072
20
-1.16304
11
10.0698
21
-1.21591
0
LINE
8
BLACK
6
CONTINUOUS
10
10.0698
20
-1.21591
11
10.07
21
-1.21609
0
LINE
8
BLACK
6
CONTINUOUS
10
10.07
20
-1.21609
11
10.07
21
-1.21614
0
LINE
8
BLACK
6
CONTINUOUS
10
10.07
20
-1.21614
11
10.1311
21
-1.27527
0
LINE
8
BLACK
6
CONTINUOUS
10
10.1311
20
-1.27527
11
10.1312
21
-1.27544
0
LINE
8
BLACK
6
CONTINUOUS
10
10.1312
20
-1.27544
11
10.1313
21
-1.27549
0
LINE
8
BLACK
6
CONTINUOUS
10
10.1313
20
-1.27549
11
10.1907
21
-1.3407
0
LINE
8
BLACK
6
CONTINUOUS
10
10.1907
20
-1.3407
11
10.1908
21
-1.34086
0
LINE
8
BLACK
6
CONTINUOUS
10
10.1908
20
-1.34086
11
10.1909
21
-1.34091
0
LINE
8
BLACK
6
CONTINUOUS
10
10.1909
20
-1.34091
11
10.2486
21
-1.41201
0
LINE
8
BLACK
6
CONTINUOUS
10
10.2486
20
-1.41201
11
10.2487
21
-1.41216
0
LINE
8
BLACK
6
CONTINUOUS
10
10.2487
20
-1.41216
11
10.2488
21
-1.41221
0
LINE
8
BLACK
6
CONTINUOUS
10
10.2488
20
-1.41221
11
10.3047
21
-1.48902
0
LINE
8
BLACK
6
CONTINUOUS
10
10.3047
20
-1.48902
11
10.3047
21
-1.48916
0
LINE
8
BLACK
6
CONTINUOUS
10
10.3047
20
-1.48916
11
10.3048
21
-1.48921
0
LINE
8
BLACK
6
CONTINUOUS
10
10.3048
20
-1.48921
11
10.3588
21
-1.57154
0
LINE
8
BLACK
6
CONTINUOUS
10
10.3588
20
-1.57154
11
10.3589
21
-1.57168
0
LINE
8
BLACK
6
CONTINUOUS
10
10.3589
20
-1.57168
11
10.3589
21
-1.57172
0
LINE
8
BLACK
6
CONTINUOUS
10
10.3589
20
-1.57172
11
10.411
21
-1.65938
0
LINE
8
BLACK
6
CONTINUOUS
10
10.411
20
-1.65938
11
10.4111
21
-1.65951
0
LINE
8
BLACK
6
CONTINUOUS
10
10.4111
20
-1.65951
11
10.4111
21
-1.65956
0
LINE
8
BLACK
6
CONTINUOUS
10
10.4111
20
-1.65956
11
10.4611
21
-1.75237
0
LINE
8
BLACK
6
CONTINUOUS
10
10.4611
20
-1.75237
11
10.4611
21
-1.75249
0
LINE
8
BLACK
6
CONTINUOUS
10
10.4611
20
-1.75249
11
10.4612
21
-1.75254
0
LINE
8
BLACK
6
CONTINUOUS
10
10.4612
20
-1.75254
11
10.509
21
-1.85031
0
LINE
8
BLACK
6
CONTINUOUS
10
10.509
20
-1.85031
11
10.5091
21
-1.85043
0
LINE
8
BLACK
6
CONTINUOUS
10
10.5091
20
-1.85043
11
10.5091
21
-1.85047
0
LINE
8
BLACK
6
CONTINUOUS
10
10.5091
20
-1.85047
11
10.5547
21
-1.95302
0
LINE
8
BLACK
6
CONTINUOUS
10
10.5547
20
-1.95302
11
10.5548
21
-1.95313
0
LINE
8
BLACK
6
CONTINUOUS
10
10.5548
20
-1.95313
11
10.5548
21
-1.95317
0
LINE
8
BLACK
6
CONTINUOUS
10
10.5548
20
-1.95317
11
10.5981
21
-2.06031
0
LINE
8
BLACK
6
CONTINUOUS
10
10.5981
20
-2.06031
11
10.5981
21
-2.06042
0
LINE
8
BLACK
6
CONTINUOUS
10
10.5981
20
-2.06042
11
10.5982
21
-2.06046
0
LINE
8
BLACK
6
CONTINUOUS
10
10.5982
20
-2.06046
11
10.6391
21
-2.17201
0
LINE
8
BLACK
6
CONTINUOUS
10
10.6391
20
-2.17201
11
10.6391
21
-2.17211
0
LINE
8
BLACK
6
CONTINUOUS
10
10.6391
20
-2.17211
11
10.6391
21
-2.17215
0
LINE
8
BLACK
6
CONTINUOUS
10
10.6391
20
-2.17215
11
10.6776
21
-2.28792
0
LINE
8
BLACK
6
CONTINUOUS
10
10.6776
20
-2.28792
11
10.6776
21
-2.28802
0
LINE
8
BLACK
6
CONTINUOUS
10
10.6776
20
-2.28802
11
10.6776
21
-2.28806
0
LINE
8
BLACK
6
CONTINUOUS
10
10.6776
20
-2.28806
11
10.7134
21
-2.40786
0
LINE
8
BLACK
6
CONTINUOUS
10
10.7134
20
-2.40786
11
10.7135
21
-2.40796
0
LINE
8
BLACK
6
CONTINUOUS
10
10.7135
20
-2.40796
11
10.7135
21
-2.408
0
LINE
8
BLACK
6
CONTINUOUS
10
10.7135
20
-2.408
11
10.7467
21
-2.53165
0
LINE
8
BLACK
6
CONTINUOUS
10
10.7467
20
-2.53165
11
10.7467
21
-2.53174
0
LINE
8
BLACK
6
CONTINUOUS
10
10.7467
20
-2.53174
11
10.7467
21
-2.53178
0
LINE
8
BLACK
6
CONTINUOUS
10
10.7467
20
-2.53178
11
10.7771
21
-2.6591
0
LINE
8
BLACK
6
CONTINUOUS
10
10.7771
20
-2.6591
11
10.7771
21
-2.65919
0
LINE
8
BLACK
6
CONTINUOUS
10
10.7771
20
-2.65919
11
10.7771
21
-2.65923
0
LINE
8
BLACK
6
CONTINUOUS
10
10.7771
20
-2.65923
11
10.8047
21
-2.79002
0
LINE
8
BLACK
6
CONTINUOUS
10
10.8047
20
-2.79002
11
10.8047
21
-2.79011
0
LINE
8
BLACK
6
CONTINUOUS
10
10.8047
20
-2.79011
11
10.8048
21
-2.79015
0
LINE
8
BLACK
6
CONTINUOUS
10
10.8048
20
-2.79015
11
10.8294
21
-2.92424
0
LINE
8
BLACK
6
CONTINUOUS
10
10.8294
20
-2.92424
11
10.8294
21
-2.92432
0
LINE
8
BLACK
6
CONTINUOUS
10
10.8294
20
-2.92432
11
10.8295
21
-2.92436
0
LINE
8
BLACK
6
CONTINUOUS
10
10.8295
20
-2.92436
11
10.8511
21
-3.06156
0
LINE
8
BLACK
6
CONTINUOUS
10
10.8511
20
-3.06156
11
10.8511
21
-3.06164
0
LINE
8
BLACK
6
CONTINUOUS
10
10.8511
20
-3.06164
11
10.8511
21
-3.06168
0
LINE
8
BLACK
6
CONTINUOUS
10
10.8511
20
-3.06168
11
10.8697
21
-3.2018
0
LINE
8
BLACK
6
CONTINUOUS
10
10.8697
20
-3.2018
11
10.8697
21
-3.20188
0
LINE
8
BLACK
6
CONTINUOUS
10
10.8697
20
-3.20188
11
10.8697
21
-3.20192
0
LINE
8
BLACK
6
CONTINUOUS
10
10.8697
20
-3.20192
11
10.8851
21
-3.34477
0
LINE
8
BLACK
6
CONTINUOUS
10
10.8851
20
-3.34477
11
10.8851
21
-3.34486
0
LINE
8
BLACK
6
CONTINUOUS
10
10.8851
20
-3.34486
11
10.8851
21
-3.34489
0
LINE
8
BLACK
6
CONTINUOUS
10
10.8851
20
-3.34489
11
10.8972
21
-3.4903
0
LINE
8
BLACK
6
CONTINUOUS
10
10.8972
20
-3.4903
11
10.8972
21
-3.49038
0
LINE
8
BLACK
6
CONTINUOUS
10
10.8972
20
-3.49038
11
10.8972
21
-3.49042
0
LINE
8
BLACK
6
CONTINUOUS
10
10.8972
20
-3.49042
11
10.906
21
-3.63819
0
LINE
8
BLACK
6
CONTINUOUS
10
10.906
20
-3.63819
11
10.906
21
-3.63827
0
LINE
8
BLACK
6
CONTINUOUS
10
10.906
20
-3.63827
11
10.906
21
-3.63831
0
LINE
8
BLACK
6
CONTINUOUS
10
10.906
20
-3.63831
11
10.9113
21
-3.78826
0
LINE
8
BLACK
6
CONTINUOUS
10
10.9113
20
-3.78826
11
10.9113
21
-3.78834
0
LINE
8
BLACK
6
CONTINUOUS
10
10.9113
20
-3.78834
11
10.9113
21
-3.78838
0
LINE
8
BLACK
6
CONTINUOUS
10
10.9113
20
-3.78838
11
10.9131
21
-3.94033
0
LINE
8
BLACK
6
CONTINUOUS
10
10.9131
20
-3.94033
11
10.9131
21
-3.94041
0
LINE
8
BLACK
6
CONTINUOUS
10
10.9131
20
-3.94041
11
10.9131
21
-3.94044
0
LINE
8
BLACK
6
CONTINUOUS
10
10.9131
20
-3.94044
11
10.9113
21
-4.09239
0
LINE
8
BLACK
6
CONTINUOUS
10
10.9113
20
-4.09239
11
10.9113
21
-4.09247
0
LINE
8
BLACK
6
CONTINUOUS
10
10.9113
20
-4.09247
11
10.9113
21
-4.09251
0
LINE
8
BLACK
6
CONTINUOUS
10
10.9113
20
-4.09251
11
10.906
21
-4.24246
0
LINE
8
BLACK
6
CONTINUOUS
10
10.906
20
-4.24246
11
10.906
21
-4.24254
0
LINE
8
BLACK
6
CONTINUOUS
10
10.906
20
-4.24254
11
10.906
21
-4.24258
0
LINE
8
BLACK
6
CONTINUOUS
10
10.906
20
-4.24258
11
10.8972
21
-4.39035
0
LINE
8
BLACK
6
CONTINUOUS
10
10.8972
20
-4.39035
11
10.8972
21
-4.39043
0
LINE
8
BLACK
6
CONTINUOUS
10
10.8972
20
-4.39043
11
10.8972
21
-4.39047
0
LINE
8
BLACK
6
CONTINUOUS
10
10.8972
20
-4.39047
11
10.8851
21
-4.53588
0
LINE
8
BLACK
6
CONTINUOUS
10
10.8851
20
-4.53588
11
10.8851
21
-4.53596
0
LINE
8
BLACK
6
CONTINUOUS
10
10.8851
20
-4.53596
11
10.8851
21
-4.53599
0
LINE
8
BLACK
6
CONTINUOUS
10
10.8851
20
-4.53599
11
10.8697
21
-4.67885
0
LINE
8
BLACK
6
CONTINUOUS
10
10.8697
20
-4.67885
11
10.8697
21
-4.67893
0
LINE
8
BLACK
6
CONTINUOUS
10
10.8697
20
-4.67893
11
10.8697
21
-4.67897
0
LINE
8
BLACK
6
CONTINUOUS
10
10.8697
20
-4.67897
11
10.8511
21
-4.81909
0
LINE
8
BLACK
6
CONTINUOUS
10
10.8511
20
-4.81909
11
10.8511
21
-4.81917
0
LINE
8
BLACK
6
CONTINUOUS
10
10.8511
20
-4.81917
11
10.8511
21
-4.81921
0
LINE
8
BLACK
6
CONTINUOUS
10
10.8511
20
-4.81921
11
10.8295
21
-4.95641
0
LINE
8
BLACK
6
CONTINUOUS
10
10.8295
20
-4.95641
11
10.8294
21
-4.95649
0
LINE
8
BLACK
6
CONTINUOUS
10
10.8294
20
-4.95649
11
10.8294
21
-4.95653
0
LINE
8
BLACK
6
CONTINUOUS
10
10.8294
20
-4.95653
11
10.8048
21
-5.09062
0
LINE
8
BLACK
6
CONTINUOUS
10
10.8048
20
-5.09062
11
10.8047
21
-5.0907
0
LINE
8
BLACK
6
CONTINUOUS
10
10.8047
20
-5.0907
11
10.8047
21
-5.09075
0
LINE
8
BLACK
6
CONTINUOUS
10
10.8047
20
-5.09075
11
10.7771
21
-5.22154
0
LINE
8
BLACK
6
CONTINUOUS
10
10.7771
20
-5.22154
11
10.7771
21
-5.22163
0
LINE
8
BLACK
6
CONTINUOUS
10
10.7771
20
-5.22163
11
10.7771
21
-5.22167
0
LINE
8
BLACK
6
CONTINUOUS
10
10.7771
20
-5.22167
11
10.7467
21
-5.34899
0
LINE
8
BLACK
6
CONTINUOUS
10
10.7467
20
-5.34899
11
10.7467
21
-5.34907
0
LINE
8
BLACK
6
CONTINUOUS
10
10.7467
20
-5.34907
11
10.7467
21
-5.34912
0
LINE
8
BLACK
6
CONTINUOUS
10
10.7467
20
-5.34912
11
10.7135
21
-5.47277
0
LINE
8
BLACK
6
CONTINUOUS
10
10.7135
20
-5.47277
11
10.7134
21
-5.47286
0
LINE
8
BLACK
6
CONTINUOUS
10
10.7134
20
-5.47286
11
10.7134
21
-5.47291
0
LINE
8
BLACK
6
CONTINUOUS
10
10.7134
20
-5.47291
11
10.6776
21
-5.59271
0
LINE
8
BLACK
6
CONTINUOUS
10
10.6776
20
-5.59271
11
10.6776
21
-5.5928
0
LINE
8
BLACK
6
CONTINUOUS
10
10.6776
20
-5.5928
11
10.6776
21
-5.59285
0
LINE
8
BLACK
6
CONTINUOUS
10
10.6776
20
-5.59285
11
10.6391
21
-5.70862
0
LINE
8
BLACK
6
CONTINUOUS
10
10.6391
20
-5.70862
11
10.6391
21
-5.70871
0
LINE
8
BLACK
6
CONTINUOUS
10
10.6391
20
-5.70871
11
10.6391
21
-5.70876
0
LINE
8
BLACK
6
CONTINUOUS
10
10.6391
20
-5.70876
11
10.5982
21
-5.82031
0
LINE
8
BLACK
6
CONTINUOUS
10
10.5982
20
-5.82031
11
10.5981
21
-5.8204
0
LINE
8
BLACK
6
CONTINUOUS
10
10.5981
20
-5.8204
11
10.5981
21
-5.82046
0
LINE
8
BLACK
6
CONTINUOUS
10
10.5981
20
-5.82046
11
10.5548
21
-5.92759
0
LINE
8
BLACK
6
CONTINUOUS
10
10.5548
20
-5.92759
11
10.5548
21
-5.9277
0
LINE
8
BLACK
6
CONTINUOUS
10
10.5548
20
-5.9277
11
10.5547
21
-5.92775
0
LINE
8
BLACK
6
CONTINUOUS
10
10.5547
20
-5.92775
11
10.5091
21
-6.0303
0
LINE
8
BLACK
6
CONTINUOUS
10
10.5091
20
-6.0303
11
10.5091
21
-6.0304
0
LINE
8
BLACK
6
CONTINUOUS
10
10.5091
20
-6.0304
11
10.509
21
-6.03046
0
LINE
8
BLACK
6
CONTINUOUS
10
10.509
20
-6.03046
11
10.4612
21
-6.12823
0
LINE
8
BLACK
6
CONTINUOUS
10
10.4612
20
-6.12823
11
10.4611
21
-6.12834
0
LINE
8
BLACK
6
CONTINUOUS
10
10.4611
20
-6.12834
11
10.4611
21
-6.1284
0
LINE
8
BLACK
6
CONTINUOUS
10
10.4611
20
-6.1284
11
10.4111
21
-6.22121
0
LINE
8
BLACK
6
CONTINUOUS
10
10.4111
20
-6.22121
11
10.411
21
-6.22132
0
LINE
8
BLACK
6
CONTINUOUS
10
10.411
20
-6.22132
11
10.411
21
-6.22139
0
LINE
8
BLACK
6
CONTINUOUS
10
10.411
20
-6.22139
11
10.3589
21
-6.30904
0
LINE
8
BLACK
6
CONTINUOUS
10
10.3589
20
-6.30904
11
10.3588
21
-6.30916
0
LINE
8
BLACK
6
CONTINUOUS
10
10.3588
20
-6.30916
11
10.3588
21
-6.30923
0
LINE
8
BLACK
6
CONTINUOUS
10
10.3588
20
-6.30923
11
10.3048
21
-6.39156
0
LINE
8
BLACK
6
CONTINUOUS
10
10.3048
20
-6.39156
11
10.3047
21
-6.39168
0
LINE
8
BLACK
6
CONTINUOUS
10
10.3047
20
-6.39168
11
10.3047
21
-6.39175
0
LINE
8
BLACK
6
CONTINUOUS
10
10.3047
20
-6.39175
11
10.2488
21
-6.46856
0
LINE
8
BLACK
6
CONTINUOUS
10
10.2488
20
-6.46856
11
10.2486
21
-6.46869
0
LINE
8
BLACK
6
CONTINUOUS
10
10.2486
20
-6.46869
11
10.2486
21
-6.46876
0
LINE
8
BLACK
6
CONTINUOUS
10
10.2486
20
-6.46876
11
10.1909
21
-6.53986
0
LINE
8
BLACK
6
CONTINUOUS
10
10.1909
20
-6.53986
11
10.1908
21
-6.53999
0
LINE
8
BLACK
6
CONTINUOUS
10
10.1908
20
-6.53999
11
10.1907
21
-6.54007
0
LINE
8
BLACK
6
CONTINUOUS
10
10.1907
20
-6.54007
11
10.1313
21
-6.60528
0
LINE
8
BLACK
6
CONTINUOUS
10
10.1313
20
-6.60528
11
10.1311
21
-6.60542
0
LINE
8
BLACK
6
CONTINUOUS
10
10.1311
20
-6.60542
11
10.1311
21
-6.6055
0
LINE
8
BLACK
6
CONTINUOUS
10
10.1311
20
-6.6055
11
10.07
21
-6.66463
0
LINE
8
BLACK
6
CONTINUOUS
10
10.07
20
-6.66463
11
10.0699
21
-6.66477
0
LINE
8
BLACK
6
CONTINUOUS
10
10.0699
20
-6.66477
11
10.0698
21
-6.66486
0
LINE
8
BLACK
6
CONTINUOUS
10
10.0698
20
-6.66486
11
10.0072
21
-6.71773
0
LINE
8
BLACK
6
CONTINUOUS
10
10.0072
20
-6.71773
11
10.007
21
-6.71786
0
LINE
8
BLACK
6
CONTINUOUS
10
10.007
20
-6.71786
11
10.0069
21
-6.71795
0
LINE
8
BLACK
6
CONTINUOUS
10
10.0069
20
-6.71795
11
9.94291
21
-6.76437
0
LINE
8
BLACK
6
CONTINUOUS
10
9.94291
20
-6.76437
11
9.94266
21
-6.76451
0
LINE
8
BLACK
6
CONTINUOUS
10
9.94266
20
-6.76451
11
9.94258
21
-6.76459
0
LINE
8
BLACK
6
CONTINUOUS
10
9.94258
20
-6.76459
11
9.87719
21
-6.80438
0
LINE
8
BLACK
6
CONTINUOUS
10
9.87719
20
-6.80438
11
9.87691
21
-6.8045
0
LINE
8
BLACK
6
CONTINUOUS
10
9.87691
20
-6.8045
11
9.87682
21
-6.80459
0
LINE
8
BLACK
6
CONTINUOUS
10
9.87682
20
-6.80459
11
9.81015
21
-6.83756
0
LINE
8
BLACK
6
CONTINUOUS
10
9.81015
20
-6.83756
11
9.80983
21
-6.83767
0
LINE
8
BLACK
6
CONTINUOUS
10
9.80983
20
-6.83767
11
9.80973
21
-6.83775
0
LINE
8
BLACK
6
CONTINUOUS
10
9.80973
20
-6.83775
11
9.74187
21
-6.86371
0
LINE
8
BLACK
6
CONTINUOUS
10
9.74187
20
-6.86371
11
9.74152
21
-6.86379
0
LINE
8
BLACK
6
CONTINUOUS
10
9.74152
20
-6.86379
11
9.7414
21
-6.86387
0
LINE
8
BLACK
6
CONTINUOUS
10
9.7414
20
-6.86387
11
9.67244
21
-6.88264
0
LINE
8
BLACK
6
CONTINUOUS
10
9.67244
20
-6.88264
11
9.67207
21
-6.88269
0
LINE
8
BLACK
6
CONTINUOUS
10
9.67207
20
-6.88269
11
9.67194
21
-6.88275
0
LINE
8
BLACK
6
CONTINUOUS
10
9.67194
20
-6.88275
11
9.60196
21
-6.89416
0
LINE
8
BLACK
6
CONTINUOUS
10
9.60196
20
-6.89416
11
9.60158
21
-6.89416
0
LINE
8
BLACK
6
CONTINUOUS
10
9.60158
20
-6.89416
11
9.60144
21
-6.89421
0
LINE
8
BLACK
6
CONTINUOUS
10
9.60144
20
-6.89421
11
9.53053
21
-6.89805
0
LINE
8
BLACK
6
CONTINUOUS
10
9.53053
20
-6.89805
11
9.52913
21
-6.89793
0
LINE
8
BLACK
6
CONTINUOUS
10
9.52913
20
-6.89793
11
9.5287
21
-6.89769
0
LINE
8
BLACK
6
CONTINUOUS
10
9.5287
20
-6.89769
11
9.52822
21
-6.89762
0
LINE
8
BLACK
6
CONTINUOUS
10
9.52822
20
-6.89762
11
9.52752
21
-6.89701
0
LINE
8
BLACK
6
CONTINUOUS
10
9.52752
20
-6.89701
11
9.52672
21
-6.89656
0
LINE
8
BLACK
6
CONTINUOUS
10
9.52672
20
-6.89656
11
9.52649
21
-6.89612
0
LINE
8
BLACK
6
CONTINUOUS
10
9.52649
20
-6.89612
11
9.52612
21
-6.8958
0
LINE
8
BLACK
6
CONTINUOUS
10
9.52612
20
-6.8958
11
9.52586
21
-6.89492
0
LINE
8
BLACK
6
CONTINUOUS
10
9.52586
20
-6.89492
11
9.52544
21
-6.8941
0
LINE
8
BLACK
6
CONTINUOUS
10
9.52544
20
-6.8941
11
9.52548
21
-6.89361
0
LINE
8
BLACK
6
CONTINUOUS
10
9.52548
20
-6.89361
11
9.52534
21
-6.89314
0
LINE
8
BLACK
6
CONTINUOUS
10
9.52534
20
-6.89314
11
9.52534
21
-5.91381
0
LINE
8
BLACK
6
CONTINUOUS
10
9.52534
20
-5.91381
11
7.60113
21
-5.91381
0
LINE
8
BLACK
6
CONTINUOUS
10
7.60113
20
-5.91381
11
7.59974
21
-5.91361
0
LINE
8
BLACK
6
CONTINUOUS
10
7.59974
20
-5.91361
11
7.59944
21
-5.91342
0
LINE
8
BLACK
6
CONTINUOUS
10
7.59944
20
-5.91342
11
7.59908
21
-5.91336
0
LINE
8
BLACK
6
CONTINUOUS
10
7.59908
20
-5.91336
11
7.59829
21
-5.91268
0
LINE
8
BLACK
6
CONTINUOUS
10
7.59829
20
-5.91268
11
7.59741
21
-5.91211
0
LINE
8
BLACK
6
CONTINUOUS
10
7.59741
20
-5.91211
11
7.59726
21
-5.91178
0
LINE
8
BLACK
6
CONTINUOUS
10
7.59726
20
-5.91178
11
7.59699
21
-5.91155
0
LINE
8
BLACK
6
CONTINUOUS
10
7.59699
20
-5.91155
11
7.59669
21
-5.91054
0
LINE
8
BLACK
6
CONTINUOUS
10
7.59669
20
-5.91054
11
7.59626
21
-5.90959
0
LINE
8
BLACK
6
CONTINUOUS
10
7.59626
20
-5.90959
11
7.59631
21
-5.90923
0
LINE
8
BLACK
6
CONTINUOUS
10
7.59631
20
-5.90923
11
7.59621
21
-5.90889
0
LINE
8
BLACK
6
CONTINUOUS
10
7.59621
20
-5.90889
11
7.59621
21
-5.87444
0
LINE
8
BLACK
6
CONTINUOUS
10
7.59621
20
-5.87444
11
7.25172
21
-5.87444
0
LINE
8
BLACK
6
CONTINUOUS
10
7.25172
20
-5.87444
11
7.25172
21
-5.90889
0
LINE
8
BLACK
6
CONTINUOUS
10
7.25172
20
-5.90889
11
7.25152
21
-5.91027
0
LINE
8
BLACK
6
CONTINUOUS
10
7.25152
20
-5.91027
11
7.25132
21
-5.91058
0
LINE
8
BLACK
6
CONTINUOUS
10
7.25132
20
-5.91058
11
7.25127
21
-5.91093
0
LINE
8
BLACK
6
CONTINUOUS
10
7.25127
20
-5.91093
11
7.25059
21
-5.91172
0
LINE
8
BLACK
6
CONTINUOUS
10
7.25059
20
-5.91172
11
7.25002
21
-5.91261
0
LINE
8
BLACK
6
CONTINUOUS
10
7.25002
20
-5.91261
11
7.24969
21
-5.91276
0
LINE
8
BLACK
6
CONTINUOUS
10
7.24969
20
-5.91276
11
7.24946
21
-5.91303
0
LINE
8
BLACK
6
CONTINUOUS
10
7.24946
20
-5.91303
11
7.24845
21
-5.91332
0
LINE
8
BLACK
6
CONTINUOUS
10
7.24845
20
-5.91332
11
7.2475
21
-5.91376
0
LINE
8
BLACK
6
CONTINUOUS
10
7.2475
20
-5.91376
11
7.24714
21
-5.91371
0
LINE
8
BLACK
6
CONTINUOUS
10
7.24714
20
-5.91371
11
7.2468
21
-5.91381
0
LINE
8
BLACK
6
CONTINUOUS
10
7.2468
20
-5.91381
11
6.58243
21
-5.91381
0
LINE
8
BLACK
6
CONTINUOUS
10
6.58243
20
-5.91381
11
6.58243
21
-6.89314
0
LINE
8
BLACK
6
CONTINUOUS
10
6.58243
20
-6.89314
11
6.58223
21
-6.89453
0
LINE
8
BLACK
6
CONTINUOUS
10
6.58223
20
-6.89453
11
6.58203
21
-6.89483
0
LINE
8
BLACK
6
CONTINUOUS
10
6.58203
20
-6.89483
11
6.58198
21
-6.89518
0
LINE
8
BLACK
6
CONTINUOUS
10
6.58198
20
-6.89518
11
6.5813
21
-6.89598
0
LINE
8
BLACK
6
CONTINUOUS
10
6.5813
20
-6.89598
11
6.58073
21
-6.89686
0
LINE
8
BLACK
6
CONTINUOUS
10
6.58073
20
-6.89686
11
6.5804
21
-6.89701
0
LINE
8
BLACK
6
CONTINUOUS
10
6.5804
20
-6.89701
11
6.58017
21
-6.89728
0
LINE
8
BLACK
6
CONTINUOUS
10
6.58017
20
-6.89728
11
6.57916
21
-6.89758
0
LINE
8
BLACK
6
CONTINUOUS
10
6.57916
20
-6.89758
11
6.57821
21
-6.89801
0
LINE
8
BLACK
6
CONTINUOUS
10
6.57821
20
-6.89801
11
6.57785
21
-6.89796
0
LINE
8
BLACK
6
CONTINUOUS
10
6.57785
20
-6.89796
11
6.57751
21
-6.89806
0
LINE
8
BLACK
6
CONTINUOUS
10
6.57751
20
-6.89806
11
5.16018
21
-6.89806
0
LINE
8
BLACK
6
CONTINUOUS
10
5.16018
20
-6.89806
11
5.1588
21
-6.89786
0
LINE
8
BLACK
6
CONTINUOUS
10
5.1588
20
-6.89786
11
5.15849
21
-6.89767
0
LINE
8
BLACK
6
CONTINUOUS
10
5.15849
20
-6.89767
11
5.15814
21
-6.89762
0
LINE
8
BLACK
6
CONTINUOUS
10
5.15814
20
-6.89762
11
5.15735
21
-6.89693
0
LINE
8
BLACK
6
CONTINUOUS
10
5.15735
20
-6.89693
11
5.15646
21
-6.89636
0
LINE
8
BLACK
6
CONTINUOUS
10
5.15646
20
-6.89636
11
5.15631
21
-6.89604
0
LINE
8
BLACK
6
CONTINUOUS
10
5.15631
20
-6.89604
11
5.15604
21
-6.8958
0
LINE
8
BLACK
6
CONTINUOUS
10
5.15604
20
-6.8958
11
5.15575
21
-6.89479
0
LINE
8
BLACK
6
CONTINUOUS
10
5.15575
20
-6.89479
11
5.15531
21
-6.89384
0
LINE
8
BLACK
6
CONTINUOUS
10
5.15531
20
-6.89384
11
5.15536
21
-6.89348
0
LINE
8
BLACK
6
CONTINUOUS
10
5.15536
20
-6.89348
11
5.15526
21
-6.89314
0
LINE
8
BLACK
6
CONTINUOUS
10
5.15526
20
-6.89314
11
5.15526
21
-5.91381
0
LINE
8
BLACK
6
CONTINUOUS
10
5.15526
20
-5.91381
11
4.49089
21
-5.91381
0
LINE
8
BLACK
6
CONTINUOUS
10
4.49089
20
-5.91381
11
4.48951
21
-5.91361
0
LINE
8
BLACK
6
CONTINUOUS
10
4.48951
20
-5.91361
11
4.4892
21
-5.91342
0
LINE
8
BLACK
6
CONTINUOUS
10
4.4892
20
-5.91342
11
4.48885
21
-5.91336
0
LINE
8
BLACK
6
CONTINUOUS
10
4.48885
20
-5.91336
11
4.48805
21
-5.91268
0
LINE
8
BLACK
6
CONTINUOUS
10
4.48805
20
-5.91268
11
4.48717
21
-5.91211
0
LINE
8
BLACK
6
CONTINUOUS
10
4.48717
20
-5.91211
11
4.48702
21
-5.91178
0
LINE
8
BLACK
6
CONTINUOUS
10
4.48702
20
-5.91178
11
4.48675
21
-5.91155
0
LINE
8
BLACK
6
CONTINUOUS
10
4.48675
20
-5.91155
11
4.48646
21
-5.91054
0
LINE
8
BLACK
6
CONTINUOUS
10
4.48646
20
-5.91054
11
4.48602
21
-5.90959
0
LINE
8
BLACK
6
CONTINUOUS
10
4.48602
20
-5.90959
11
4.48607
21
-5.90923
0
LINE
8
BLACK
6
CONTINUOUS
10
4.48607
20
-5.90923
11
4.48597
21
-5.90889
0
LINE
8
BLACK
6
CONTINUOUS
10
4.48597
20
-5.90889
11
4.48597
21
-5.87444
0
LINE
8
BLACK
6
CONTINUOUS
10
4.48597
20
-5.87444
11
4.14148
21
-5.87444
0
LINE
8
BLACK
6
CONTINUOUS
10
4.14148
20
-5.87444
11
4.14148
21
-5.90889
0
LINE
8
BLACK
6
CONTINUOUS
10
4.14148
20
-5.90889
11
4.14128
21
-5.91027
0
LINE
8
BLACK
6
CONTINUOUS
10
4.14128
20
-5.91027
11
4.14109
21
-5.91058
0
LINE
8
BLACK
6
CONTINUOUS
10
4.14109
20
-5.91058
11
4.14104
21
-5.91093
0
LINE
8
BLACK
6
CONTINUOUS
10
4.14104
20
-5.91093
11
4.14035
21
-5.91172
0
LINE
8
BLACK
6
CONTINUOUS
10
4.14035
20
-5.91172
11
4.13978
21
-5.91261
0
LINE
8
BLACK
6
CONTINUOUS
10
4.13978
20
-5.91261
11
4.13946
21
-5.91276
0
LINE
8
BLACK
6
CONTINUOUS
10
4.13946
20
-5.91276
11
4.13922
21
-5.91303
0
LINE
8
BLACK
6
CONTINUOUS
10
4.13922
20
-5.91303
11
4.13822
21
-5.91332
0
LINE
8
BLACK
6
CONTINUOUS
10
4.13822
20
-5.91332
11
4.13726
21
-5.91376
0
LINE
8
BLACK
6
CONTINUOUS
10
4.13726
20
-5.91376
11
4.13691
21
-5.91371
0
LINE
8
BLACK
6
CONTINUOUS
10
4.13691
20
-5.91371
11
4.13656
21
-5.91381
0
LINE
8
BLACK
6
CONTINUOUS
10
4.13656
20
-5.91381
11
2.21235
21
-5.91381
0
LINE
8
BLACK
6
CONTINUOUS
10
2.21235
20
-5.91381
11
2.21235
21
-6.89314
0
LINE
8
BLACK
6
CONTINUOUS
10
2.21235
20
-6.89314
11
2.21215
21
-6.89453
0
LINE
8
BLACK
6
CONTINUOUS
10
2.21215
20
-6.89453
11
2.21188
21
-6.89494
0
LINE
8
BLACK
6
CONTINUOUS
10
2.21188
20
-6.89494
11
2.21179
21
-6.89542
0
LINE
8
BLACK
6
CONTINUOUS
10
2.21179
20
-6.89542
11
2.21115
21
-6.89609
0
LINE
8
BLACK
6
CONTINUOUS
10
2.21115
20
-6.89609
11
2.21065
21
-6.89686
0
LINE
8
BLACK
6
CONTINUOUS
10
2.21065
20
-6.89686
11
2.2102
21
-6.89706
0
LINE
8
BLACK
6
CONTINUOUS
10
2.2102
20
-6.89706
11
2.20986
21
-6.89742
0
LINE
8
BLACK
6
CONTINUOUS
10
2.20986
20
-6.89742
11
2.20896
21
-6.89763
0
LINE
8
BLACK
6
CONTINUOUS
10
2.20896
20
-6.89763
11
2.20813
21
-6.89801
0
LINE
8
BLACK
6
CONTINUOUS
10
2.20813
20
-6.89801
11
2.20764
21
-6.89794
0
LINE
8
BLACK
6
CONTINUOUS
10
2.20764
20
-6.89794
11
2.20716
21
-6.89805
0
LINE
8
BLACK
6
CONTINUOUS
10
2.20716
20
-6.89805
11
2.13625
21
-6.89421
0
LINE
8
BLACK
6
CONTINUOUS
10
2.13625
20
-6.89421
11
2.13587
21
-6.89414
0
LINE
8
BLACK
6
CONTINUOUS
10
2.13587
20
-6.89414
11
2.13573
21
-6.89416
0
LINE
8
BLACK
6
CONTINUOUS
10
2.13573
20
-6.89416
11
2.06575
21
-6.88275
0
LINE
8
BLACK
6
CONTINUOUS
10
2.06575
20
-6.88275
11
2.06539
21
-6.88264
0
LINE
8
BLACK
6
CONTINUOUS
10
2.06539
20
-6.88264
11
2.06525
21
-6.88264
0
LINE
8
BLACK
6
CONTINUOUS
10
2.06525
20
-6.88264
11
1.99629
21
-6.86387
0
LINE
8
BLACK
6
CONTINUOUS
10
1.99629
20
-6.86387
11
1.99596
21
-6.86373
0
LINE
8
BLACK
6
CONTINUOUS
10
1.99596
20
-6.86373
11
1.99582
21
-6.86371
0
LINE
8
BLACK
6
CONTINUOUS
10
1.99582
20
-6.86371
11
1.92796
21
-6.83775
0
LINE
8
BLACK
6
CONTINUOUS
10
1.92796
20
-6.83775
11
1.92767
21
-6.83759
0
LINE
8
BLACK
6
CONTINUOUS
10
1.92767
20
-6.83759
11
1.92754
21
-6.83756
0
LINE
8
BLACK
6
CONTINUOUS
10
1.92754
20
-6.83756
11
1.86087
21
-6.80459
0
LINE
8
BLACK
6
CONTINUOUS
10
1.86087
20
-6.80459
11
1.86062
21
-6.80442
0
LINE
8
BLACK
6
CONTINUOUS
10
1.86062
20
-6.80442
11
1.8605
21
-6.80438
0
LINE
8
BLACK
6
CONTINUOUS
10
1.8605
20
-6.80438
11
1.79511
21
-6.76459
0
LINE
8
BLACK
6
CONTINUOUS
10
1.79511
20
-6.76459
11
1.79489
21
-6.76441
0
LINE
8
BLACK
6
CONTINUOUS
10
1.79489
20
-6.76441
11
1.79478
21
-6.76437
0
LINE
8
BLACK
6
CONTINUOUS
10
1.79478
20
-6.76437
11
1.73075
21
-6.71795
0
LINE
8
BLACK
6
CONTINUOUS
10
1.73075
20
-6.71795
11
1.73057
21
-6.71777
0
LINE
8
BLACK
6
CONTINUOUS
10
1.73057
20
-6.71777
11
1.73046
21
-6.71773
0
LINE
8
BLACK
6
CONTINUOUS
10
1.73046
20
-6.71773
11
1.66789
21
-6.66486
0
LINE
8
BLACK
6
CONTINUOUS
10
1.66789
20
-6.66486
11
1.66773
21
-6.66468
0
LINE
8
BLACK
6
CONTINUOUS
10
1.66773
20
-6.66468
11
1.66764
21
-6.66463
0
LINE
8
BLACK
6
CONTINUOUS
10
1.66764
20
-6.66463
11
1.6066
21
-6.6055
0
LINE
8
BLACK
6
CONTINUOUS
10
1.6066
20
-6.6055
11
1.60647
21
-6.60533
0
LINE
8
BLACK
6
CONTINUOUS
10
1.60647
20
-6.60533
11
1.60639
21
-6.60528
0
LINE
8
BLACK
6
CONTINUOUS
10
1.60639
20
-6.60528
11
1.54698
21
-6.54007
0
LINE
8
BLACK
6
CONTINUOUS
10
1.54698
20
-6.54007
11
1.54686
21
-6.53991
0
LINE
8
BLACK
6
CONTINUOUS
10
1.54686
20
-6.53991
11
1.54679
21
-6.53986
0
LINE
8
BLACK
6
CONTINUOUS
10
1.54679
20
-6.53986
11
1.48909
21
-6.46876
0
LINE
8
BLACK
6
CONTINUOUS
10
1.48909
20
-6.46876
11
1.48899
21
-6.46861
0
LINE
8
BLACK
6
CONTINUOUS
10
1.48899
20
-6.46861
11
1.48893
21
-6.46856
0
LINE
8
BLACK
6
CONTINUOUS
10
1.48893
20
-6.46856
11
1.43302
21
-6.39175
0
LINE
8
BLACK
6
CONTINUOUS
10
1.43302
20
-6.39175
11
1.43294
21
-6.39161
0
LINE
8
BLACK
6
CONTINUOUS
10
1.43294
20
-6.39161
11
1.43289
21
-6.39156
0
LINE
8
BLACK
6
CONTINUOUS
10
1.43289
20
-6.39156
11
1.37886
21
-6.30923
0
LINE
8
BLACK
6
CONTINUOUS
10
1.37886
20
-6.30923
11
1.3788
21
-6.30909
0
LINE
8
BLACK
6
CONTINUOUS
10
1.3788
20
-6.30909
11
1.37874
21
-6.30904
0
LINE
8
BLACK
6
CONTINUOUS
10
1.37874
20
-6.30904
11
1.32669
21
-6.22139
0
LINE
8
BLACK
6
CONTINUOUS
10
1.32669
20
-6.22139
11
1.32663
21
-6.22126
0
LINE
8
BLACK
6
CONTINUOUS
10
1.32663
20
-6.22126
11
1.32659
21
-6.22121
0
LINE
8
BLACK
6
CONTINUOUS
10
1.32659
20
-6.22121
11
1.27659
21
-6.1284
0
LINE
8
BLACK
6
CONTINUOUS
10
1.27659
20
-6.1284
11
1.27654
21
-6.12828
0
LINE
8
BLACK
6
CONTINUOUS
10
1.27654
20
-6.12828
11
1.2765
21
-6.12823
0
LINE
8
BLACK
6
CONTINUOUS
10
1.2765
20
-6.12823
11
1.22865
21
-6.03046
0
LINE
8
BLACK
6
CONTINUOUS
10
1.22865
20
-6.03046
11
1.22861
21
-6.03034
0
LINE
8
BLACK
6
CONTINUOUS
10
1.22861
20
-6.03034
11
1.22857
21
-6.0303
0
LINE
8
BLACK
6
CONTINUOUS
10
1.22857
20
-6.0303
11
1.18294
21
-5.92775
0
LINE
8
BLACK
6
CONTINUOUS
10
1.18294
20
-5.92775
11
1.18291
21
-5.92764
0
LINE
8
BLACK
6
CONTINUOUS
10
1.18291
20
-5.92764
11
1.18288
21
-5.92759
0
LINE
8
BLACK
6
CONTINUOUS
10
1.18288
20
-5.92759
11
1.13957
21
-5.82046
0
LINE
8
BLACK
6
CONTINUOUS
10
1.13957
20
-5.82046
11
1.13954
21
-5.82035
0
LINE
8
BLACK
6
CONTINUOUS
10
1.13954
20
-5.82035
11
1.13951
21
-5.82031
0
LINE
8
BLACK
6
CONTINUOUS
10
1.13951
20
-5.82031
11
1.0986
21
-5.70876
0
LINE
8
BLACK
6
CONTINUOUS
10
1.0986
20
-5.70876
11
1.09858
21
-5.70866
0
LINE
8
BLACK
6
CONTINUOUS
10
1.09858
20
-5.70866
11
1.09855
21
-5.70862
0
LINE
8
BLACK
6
CONTINUOUS
10
1.09855
20
-5.70862
11
1.06014
21
-5.59285
0
LINE
8
BLACK
6
CONTINUOUS
10
1.06014
20
-5.59285
11
1.06012
21
-5.59275
0
LINE
8
BLACK
6
CONTINUOUS
10
1.06012
20
-5.59275
11
1.06009
21
-5.59271
0
LINE
8
BLACK
6
CONTINUOUS
10
1.06009
20
-5.59271
11
1.02425
21
-5.47291
0
LINE
8
BLACK
6
CONTINUOUS
10
1.02425
20
-5.47291
11
1.02424
21
-5.47281
0
LINE
8
BLACK
6
CONTINUOUS
10
1.02424
20
-5.47281
11
1.02421
21
-5.47277
0
LINE
8
BLACK
6
CONTINUOUS
10
1.02421
20
-5.47277
11
0.991033
21
-5.34912
0
LINE
8
BLACK
6
CONTINUOUS
10
0.991033
20
-5.34912
11
0.991021
21
-5.34903
0
LINE
8
BLACK
6
CONTINUOUS
10
0.991021
20
-5.34903
11
0.990999
21
-5.34899
0
LINE
8
BLACK
6
CONTINUOUS
10
0.990999
20
-5.34899
11
0.960569
21
-5.22167
0
LINE
8
BLACK
6
CONTINUOUS
10
0.960569
20
-5.22167
11
0.960561
21
-5.22158
0
LINE
8
BLACK
6
CONTINUOUS
10
0.960561
20
-5.22158
11
0.96054
21
-5.22154
0
LINE
8
BLACK
6
CONTINUOUS
10
0.96054
20
-5.22154
11
0.932945
21
-5.09075
0
LINE
8
BLACK
6
CONTINUOUS
10
0.932945
20
-5.09075
11
0.932939
21
-5.09066
0
LINE
8
BLACK
6
CONTINUOUS
10
0.932939
20
-5.09066
11
0.932921
21
-5.09062
0
LINE
8
BLACK
6
CONTINUOUS
10
0.932921
20
-5.09062
11
0.908248
21
-4.95653
0
LINE
8
BLACK
6
CONTINUOUS
10
0.908248
20
-4.95653
11
0.908245
21
-4.95645
0
LINE
8
BLACK
6
CONTINUOUS
10
0.908245
20
-4.95645
11
0.908227
21
-4.95641
0
LINE
8
BLACK
6
CONTINUOUS
10
0.908227
20
-4.95641
11
0.886563
21
-4.81921
0
LINE
8
BLACK
6
CONTINUOUS
10
0.886563
20
-4.81921
11
0.886562
21
-4.81913
0
LINE
8
BLACK
6
CONTINUOUS
10
0.886562
20
-4.81913
11
0.886546
21
-4.81909
0
LINE
8
BLACK
6
CONTINUOUS
10
0.886546
20
-4.81909
11
0.867977
21
-4.67897
0
LINE
8
BLACK
6
CONTINUOUS
10
0.867977
20
-4.67897
11
0.867978
21
-4.67889
0
LINE
8
BLACK
6
CONTINUOUS
10
0.867978
20
-4.67889
11
0.867963
21
-4.67885
0
LINE
8
BLACK
6
CONTINUOUS
10
0.867963
20
-4.67885
11
0.852576
21
-4.53599
0
LINE
8
BLACK
6
CONTINUOUS
10
0.852576
20
-4.53599
11
0.852579
21
-4.53591
0
LINE
8
BLACK
6
CONTINUOUS
10
0.852579
20
-4.53591
11
0.852565
21
-4.53588
0
LINE
8
BLACK
6
CONTINUOUS
10
0.852565
20
-4.53588
11
0.840447
21
-4.39047
0
LINE
8
BLACK
6
CONTINUOUS
10
0.840447
20
-4.39047
11
0.840452
21
-4.39039
0
LINE
8
BLACK
6
CONTINUOUS
10
0.840452
20
-4.39039
11
0.840439
21
-4.39035
0
LINE
8
BLACK
6
CONTINUOUS
10
0.840439
20
-4.39035
11
0.831676
21
-4.24258
0
LINE
8
BLACK
6
CONTINUOUS
10
0.831676
20
-4.24258
11
0.831682
21
-4.2425
0
LINE
8
BLACK
6
CONTINUOUS
10
0.831682
20
-4.2425
11
0.83167
21
-4.24246
0
LINE
8
BLACK
6
CONTINUOUS
10
0.83167
20
-4.24246
11
0.826349
21
-4.09251
0
LINE
8
BLACK
6
CONTINUOUS
10
0.826349
20
-4.09251
11
0.826358
21
-4.09243
0
LINE
8
BLACK
6
CONTINUOUS
10
0.826358
20
-4.09243
11
0.826346
21
-4.09239
0
LINE
8
BLACK
6
CONTINUOUS
10
0.826346
20
-4.09239
11
0.824553
21
-3.94044
0
LINE
8
BLACK
6
CONTINUOUS
10
0.824553
20
-3.94044
11
0.824564
21
-3.94036
0
LINE
8
BLACK
6
CONTINUOUS
10
0.824564
20
-3.94036
11
0.824553
21
-3.94033
0
LINE
8
BLACK
6
CONTINUOUS
10
0.824553
20
-3.94033
11
0.826346
21
-3.78838
0
LINE
8
BLACK
6
CONTINUOUS
10
0.826346
20
-3.78838
11
0.826359
21
-3.7883
0
LINE
8
BLACK
6
CONTINUOUS
10
0.826359
20
-3.7883
11
0.826349
21
-3.78826
0
LINE
8
BLACK
6
CONTINUOUS
10
0.826349
20
-3.78826
11
0.83167
21
-3.63831
0
LINE
8
BLACK
6
CONTINUOUS
10
0.83167
20
-3.63831
11
0.831684
21
-3.63823
0
LINE
8
BLACK
6
CONTINUOUS
10
0.831684
20
-3.63823
11
0.831676
21
-3.63819
0
LINE
8
BLACK
6
CONTINUOUS
10
0.831676
20
-3.63819
11
0.840439
21
-3.49042
0
LINE
8
BLACK
6
CONTINUOUS
10
0.840439
20
-3.49042
11
0.840455
21
-3.49034
0
LINE
8
BLACK
6
CONTINUOUS
10
0.840455
20
-3.49034
11
0.840447
21
-3.4903
0
LINE
8
BLACK
6
CONTINUOUS
10
0.840447
20
-3.4903
11
0.852565
21
-3.34489
0
LINE
8
BLACK
6
CONTINUOUS
10
0.852565
20
-3.34489
11
0.852583
21
-3.34481
0
LINE
8
BLACK
6
CONTINUOUS
10
0.852583
20
-3.34481
11
0.852576
21
-3.34477
0
LINE
8
BLACK
6
CONTINUOUS
10
0.852576
20
-3.34477
11
0.867963
21
-3.20192
0
LINE
8
BLACK
6
CONTINUOUS
10
0.867963
20
-3.20192
11
0.867983
21
-3.20184
0
LINE
8
BLACK
6
CONTINUOUS
10
0.867983
20
-3.20184
11
0.867977
21
-3.2018
0
LINE
8
BLACK
6
CONTINUOUS
10
0.867977
20
-3.2018
11
0.886546
21
-3.06168
0
LINE
8
BLACK
6
CONTINUOUS
10
0.886546
20
-3.06168
11
0.886568
21
-3.0616
0
LINE
8
BLACK
6
CONTINUOUS
10
0.886568
20
-3.0616
11
0.886563
21
-3.06156
0
LINE
8
BLACK
6
CONTINUOUS
10
0.886563
20
-3.06156
11
0.908227
21
-2.92436
0
LINE
8
BLACK
6
CONTINUOUS
10
0.908227
20
-2.92436
11
0.908252
21
-2.92428
0
LINE
8
BLACK
6
CONTINUOUS
10
0.908252
20
-2.92428
11
0.908248
21
-2.92424
0
LINE
8
BLACK
6
CONTINUOUS
10
0.908248
20
-2.92424
11
0.932921
21
-2.79015
0
LINE
8
BLACK
6
CONTINUOUS
10
0.932921
20
-2.79015
11
0.932949
21
-2.79006
0
LINE
8
BLACK
6
CONTINUOUS
10
0.932949
20
-2.79006
11
0.932945
21
-2.79002
0
LINE
8
BLACK
6
CONTINUOUS
10
0.932945
20
-2.79002
11
0.96054
21
-2.65923
0
LINE
8
BLACK
6
CONTINUOUS
10
0.96054
20
-2.65923
11
0.960571
21
-2.65914
0
LINE
8
BLACK
6
CONTINUOUS
10
0.960571
20
-2.65914
11
0.960569
21
-2.6591
0
LINE
8
BLACK
6
CONTINUOUS
10
0.960569
20
-2.6591
11
0.990999
21
-2.53178
0
LINE
8
BLACK
6
CONTINUOUS
10
0.990999
20
-2.53178
11
0.991034
21
-2.53169
0
LINE
8
BLACK
6
CONTINUOUS
10
0.991034
20
-2.53169
11
0.991033
21
-2.53165
0
LINE
8
BLACK
6
CONTINUOUS
10
0.991033
20
-2.53165
11
1.02421
21
-2.408
0
LINE
8
BLACK
6
CONTINUOUS
10
1.02421
20
-2.408
11
1.02425
21
-2.40791
0
LINE
8
BLACK
6
CONTINUOUS
10
1.02425
20
-2.40791
11
1.02425
21
-2.40786
0
LINE
8
BLACK
6
CONTINUOUS
10
1.02425
20
-2.40786
11
1.06009
21
-2.28806
0
LINE
8
BLACK
6
CONTINUOUS
10
1.06009
20
-2.28806
11
1.06013
21
-2.28797
0
LINE
8
BLACK
6
CONTINUOUS
10
1.06013
20
-2.28797
11
1.06014
21
-2.28792
0
LINE
8
BLACK
6
CONTINUOUS
10
1.06014
20
-2.28792
11
1.09855
21
-2.17215
0
LINE
8
BLACK
6
CONTINUOUS
10
1.09855
20
-2.17215
11
1.0986
21
-2.17206
0
LINE
8
BLACK
6
CONTINUOUS
10
1.0986
20
-2.17206
11
1.0986
21
-2.17201
0
LINE
8
BLACK
6
CONTINUOUS
10
1.0986
20
-2.17201
11
1.13951
21
-2.06046
0
LINE
8
BLACK
6
CONTINUOUS
10
1.13951
20
-2.06046
11
1.13956
21
-2.06037
0
LINE
8
BLACK
6
CONTINUOUS
10
1.13956
20
-2.06037
11
1.13957
21
-2.06031
0
LINE
8
BLACK
6
CONTINUOUS
10
1.13957
20
-2.06031
11
1.18288
21
-1.95317
0
LINE
8
BLACK
6
CONTINUOUS
10
1.18288
20
-1.95317
11
1.18294
21
-1.95307
0
LINE
8
BLACK
6
CONTINUOUS
10
1.18294
20
-1.95307
11
1.18294
21
-1.95302
0
LINE
8
BLACK
6
CONTINUOUS
10
1.18294
20
-1.95302
11
1.22857
21
-1.85047
0
LINE
8
BLACK
6
CONTINUOUS
10
1.22857
20
-1.85047
11
1.22864
21
-1.85036
0
LINE
8
BLACK
6
CONTINUOUS
10
1.22864
20
-1.85036
11
1.22865
21
-1.85031
0
LINE
8
BLACK
6
CONTINUOUS
10
1.22865
20
-1.85031
11
1.2765
21
-1.75254
0
LINE
8
BLACK
6
CONTINUOUS
10
1.2765
20
-1.75254
11
1.27658
21
-1.75243
0
LINE
8
BLACK
6
CONTINUOUS
10
1.27658
20
-1.75243
11
1.27659
21
-1.75237
0
LINE
8
BLACK
6
CONTINUOUS
10
1.27659
20
-1.75237
11
1.32659
21
-1.65956
0
LINE
8
BLACK
6
CONTINUOUS
10
1.32659
20
-1.65956
11
1.32667
21
-1.65945
0
LINE
8
BLACK
6
CONTINUOUS
10
1.32667
20
-1.65945
11
1.32669
21
-1.65938
0
LINE
8
BLACK
6
CONTINUOUS
10
1.32669
20
-1.65938
11
1.37874
21
-1.57172
0
LINE
8
BLACK
6
CONTINUOUS
10
1.37874
20
-1.57172
11
1.37884
21
-1.5716
0
LINE
8
BLACK
6
CONTINUOUS
10
1.37884
20
-1.5716
11
1.37886
21
-1.57154
0
LINE
8
BLACK
6
CONTINUOUS
10
1.37886
20
-1.57154
11
1.43289
21
-1.48921
0
LINE
8
BLACK
6
CONTINUOUS
10
1.43289
20
-1.48921
11
1.433
21
-1.48909
0
LINE
8
BLACK
6
CONTINUOUS
10
1.433
20
-1.48909
11
1.43302
21
-1.48902
0
LINE
8
BLACK
6
CONTINUOUS
10
1.43302
20
-1.48902
11
1.48893
21
-1.41221
0
LINE
8
BLACK
6
CONTINUOUS
10
1.48893
20
-1.41221
11
1.48906
21
-1.41208
0
LINE
8
BLACK
6
CONTINUOUS
10
1.48906
20
-1.41208
11
1.48909
21
-1.41201
0
LINE
8
BLACK
6
CONTINUOUS
10
1.48909
20
-1.41201
11
1.54679
21
-1.34091
0
LINE
8
BLACK
6
CONTINUOUS
10
1.54679
20
-1.34091
11
1.54694
21
-1.34077
0
LINE
8
BLACK
6
CONTINUOUS
10
1.54694
20
-1.34077
11
1.54698
21
-1.3407
0
LINE
8
BLACK
6
CONTINUOUS
10
1.54698
20
-1.3407
11
1.60639
21
-1.27549
0
LINE
8
BLACK
6
CONTINUOUS
10
1.60639
20
-1.27549
11
1.60656
21
-1.27535
0
LINE
8
BLACK
6
CONTINUOUS
10
1.60656
20
-1.27535
11
1.6066
21
-1.27527
0
LINE
8
BLACK
6
CONTINUOUS
10
1.6066
20
-1.27527
11
1.66764
21
-1.21614
0
LINE
8
BLACK
6
CONTINUOUS
10
1.66764
20
-1.21614
11
1.66783
21
-1.216
0
LINE
8
BLACK
6
CONTINUOUS
10
1.66783
20
-1.216
11
1.66789
21
-1.21591
0
LINE
8
BLACK
6
CONTINUOUS
10
1.66789
20
-1.21591
11
1.73046
21
-1.16304
0
LINE
8
BLACK
6
CONTINUOUS
10
1.73046
20
-1.16304
11
1.73068
21
-1.1629
0
LINE
8
BLACK
6
CONTINUOUS
10
1.73068
20
-1.1629
11
1.73075
21
-1.16282
0
LINE
8
BLACK
6
CONTINUOUS
10
1.73075
20
-1.16282
11
1.79478
21
-1.11639
0
LINE
8
BLACK
6
CONTINUOUS
10
1.79478
20
-1.11639
11
1.79503
21
-1.11626
0
LINE
8
BLACK
6
CONTINUOUS
10
1.79503
20
-1.11626
11
1.79511
21
-1.11617
0
LINE
8
BLACK
6
CONTINUOUS
10
1.79511
20
-1.11617
11
1.8605
21
-1.07638
0
LINE
8
BLACK
6
CONTINUOUS
10
1.8605
20
-1.07638
11
1.86078
21
-1.07626
0
LINE
8
BLACK
6
CONTINUOUS
10
1.86078
20
-1.07626
11
1.86087
21
-1.07618
0
LINE
8
BLACK
6
CONTINUOUS
10
1.86087
20
-1.07618
11
1.92754
21
-1.04321
0
LINE
8
BLACK
6
CONTINUOUS
10
1.92754
20
-1.04321
11
1.92786
21
-1.0431
0
LINE
8
BLACK
6
CONTINUOUS
10
1.92786
20
-1.0431
11
1.92796
21
-1.04302
0
LINE
8
BLACK
6
CONTINUOUS
10
1.92796
20
-1.04302
11
1.99582
21
-1.01705
0
LINE
8
BLACK
6
CONTINUOUS
10
1.99582
20
-1.01705
11
1.99617
21
-1.01698
0
LINE
8
BLACK
6
CONTINUOUS
10
1.99617
20
-1.01698
11
1.99629
21
-1.0169
0
LINE
8
BLACK
6
CONTINUOUS
10
1.99629
20
-1.0169
11
2.06525
21
-0.998125
0
LINE
8
BLACK
6
CONTINUOUS
10
2.06525
20
-0.998125
11
2.06562
21
-0.998079
0
LINE
8
BLACK
6
CONTINUOUS
10
2.06562
20
-0.998079
11
2.06575
21
-0.998016
0
LINE
8
BLACK
6
CONTINUOUS
10
2.06575
20
-0.998016
11
2.13573
21
-0.986613
0
LINE
8
BLACK
6
CONTINUOUS
10
2.13573
20
-0.986613
11
2.13611
21
-0.986606
0
LINE
8
BLACK
6
CONTINUOUS
10
2.13611
20
-0.986606
11
2.13625
21
-0.986556
0
LINE
8
BLACK
6
CONTINUOUS
10
2.13625
20
-0.986556
11
2.20716
21
-0.982714
0
LINE
8
BLACK
6
CONTINUOUS
10
2.20716
20
-0.982714
11
2.20856
21
-0.982838
0
LINE
8
BLACK
6
CONTINUOUS
10
2.20856
20
-0.982838
11
2.20898
21
-0.983082
0
LINE
8
BLACK
6
CONTINUOUS
10
2.20898
20
-0.983082
11
2.20947
21
-0.983152
0
LINE
8
BLACK
6
CONTINUOUS
10
2.20947
20
-0.983152
11
2.21017
21
-0.983754
0
LINE
8
BLACK
6
CONTINUOUS
10
2.21017
20
-0.983754
11
2.21097
21
-0.984209
0
LINE
8
BLACK
6
CONTINUOUS
10
2.21097
20
-0.984209
11
2.21119
21
-0.984645
0
LINE
8
BLACK
6
CONTINUOUS
10
2.21119
20
-0.984645
11
2.21157
21
-0.984968
0
LINE
8
BLACK
6
CONTINUOUS
10
2.21157
20
-0.984968
11
2.21183
21
-0.98585
0
LINE
8
BLACK
6
CONTINUOUS
10
2.21183
20
-0.98585
11
2.21225
21
-0.986665
0
LINE
8
BLACK
6
CONTINUOUS
10
2.21225
20
-0.986665
11
2.21221
21
-0.987156
0
LINE
8
BLACK
6
CONTINUOUS
10
2.21221
20
-0.987156
11
2.21235
21
-0.987628
0
LINE
8
BLACK
6
CONTINUOUS
10
2.21235
20
-0.987628
11
2.21235
21
-1.96696
0
LINE
8
BLACK
6
CONTINUOUS
10
2.21235
20
-1.96696
11
3.97908
21
-1.96696
0
LINE
8
BLACK
6
CONTINUOUS
10
3.97908
20
-1.96696
11
3.98047
21
-1.96716
0
LINE
8
BLACK
6
CONTINUOUS
10
3.98047
20
-1.96716
11
3.98077
21
-1.96735
0
LINE
8
BLACK
6
CONTINUOUS
10
3.98077
20
-1.96735
11
3.98112
21
-1.9674
0
LINE
8
BLACK
6
CONTINUOUS
10
3.98112
20
-1.9674
11
3.98192
21
-1.96809
0
LINE
8
BLACK
6
CONTINUOUS
10
3.98192
20
-1.96809
11
3.9828
21
-1.96866
0
LINE
8
BLACK
6
CONTINUOUS
10
3.9828
20
-1.96866
11
3.98295
21
-1.96898
0
LINE
8
BLACK
6
CONTINUOUS
10
3.98295
20
-1.96898
11
3.98322
21
-1.96922
0
LINE
8
BLACK
6
CONTINUOUS
10
3.98322
20
-1.96922
11
3.98352
21
-1.97023
0
LINE
8
BLACK
6
CONTINUOUS
10
3.98352
20
-1.97023
11
3.98395
21
-1.97118
0
LINE
8
BLACK
6
CONTINUOUS
10
3.98395
20
-1.97118
11
3.9839
21
-1.97154
0
LINE
8
BLACK
6
CONTINUOUS
10
3.9839
20
-1.97154
11
3.984
21
-1.97188
0
LINE
8
BLACK
6
CONTINUOUS
10
3.984
20
-1.97188
11
3.984
21
-2.00633
0
LINE
8
BLACK
6
CONTINUOUS
10
3.984
20
-2.00633
11
4.48597
21
-2.00633
0
LINE
8
BLACK
6
CONTINUOUS
10
4.48597
20
-2.00633
11
4.48597
21
-1.97188
0
LINE
8
BLACK
6
CONTINUOUS
10
4.48597
20
-1.97188
11
4.48617
21
-1.97049
0
LINE
8
BLACK
6
CONTINUOUS
10
4.48617
20
-1.97049
11
4.48636
21
-1.97019
0
LINE
8
BLACK
6
CONTINUOUS
10
4.48636
20
-1.97019
11
4.48641
21
-1.96984
0
LINE
8
BLACK
6
CONTINUOUS
10
4.48641
20
-1.96984
11
4.4871
21
-1.96904
0
LINE
8
BLACK
6
CONTINUOUS
10
4.4871
20
-1.96904
11
4.48767
21
-1.96816
0
LINE
8
BLACK
6
CONTINUOUS
10
4.48767
20
-1.96816
11
4.488
21
-1.96801
0
LINE
8
BLACK
6
CONTINUOUS
10
4.488
20
-1.96801
11
4.48823
21
-1.96774
0
LINE
8
BLACK
6
CONTINUOUS
10
4.48823
20
-1.96774
11
4.48924
21
-1.96744
0
LINE
8
BLACK
6
CONTINUOUS
10
4.48924
20
-1.96744
11
4.49019
21
-1.96701
0
LINE
8
BLACK
6
CONTINUOUS
10
4.49019
20
-1.96701
11
4.49055
21
-1.96706
0
LINE
8
BLACK
6
CONTINUOUS
10
4.49055
20
-1.96706
11
4.49089
21
-1.96696
0
LINE
8
BLACK
6
CONTINUOUS
10
4.49089
20
-1.96696
11
5.15526
21
-1.96696
0
LINE
8
BLACK
6
CONTINUOUS
10
5.15526
20
-1.96696
11
5.15526
21
-0.987628
0
LINE
8
BLACK
6
CONTINUOUS
10
5.15526
20
-0.987628
11
5.15546
21
-0.986242
0
LINE
8
BLACK
6
CONTINUOUS
10
5.15546
20
-0.986242
11
5.15566
21
-0.98594
0
LINE
8
BLACK
6
CONTINUOUS
10
5.15566
20
-0.98594
11
5.15571
21
-0.985584
0
LINE
8
BLACK
6
CONTINUOUS
10
5.15571
20
-0.985584
11
5.15639
21
-0.984791
0
LINE
8
BLACK
6
CONTINUOUS
10
5.15639
20
-0.984791
11
5.15696
21
-0.983909
0
LINE
8
BLACK
6
CONTINUOUS
10
5.15696
20
-0.983909
11
5.15729
21
-0.98376
0
LINE
8
BLACK
6
CONTINUOUS
10
5.15729
20
-0.98376
11
5.15752
21
-0.983488
0
LINE
8
BLACK
6
CONTINUOUS
10
5.15752
20
-0.983488
11
5.15853
21
-0.983193
0
LINE
8
BLACK
6
CONTINUOUS
10
5.15853
20
-0.983193
11
5.15948
21
-0.982757
0
LINE
8
BLACK
6
CONTINUOUS
10
5.15948
20
-0.982757
11
5.15984
21
-0.982808
0
LINE
8
BLACK
6
CONTINUOUS
10
5.15984
20
-0.982808
11
5.16018
21
-0.982707
0
LINE
8
BLACK
6
CONTINUOUS
10
5.16018
20
-0.982707
11
6.57751
21
-0.982707
0
LINE
8
BLACK
6
CONTINUOUS
10
6.57751
20
-0.982707
11
6.57889
21
-0.982906
0
LINE
8
BLACK
6
CONTINUOUS
10
5.1651
20
-0.99255
11
5.1651
21
-1.97188
0
LINE
8
BLACK
6
CONTINUOUS
10
5.1651
20
-1.97188
11
5.1649
21
-1.97327
0
LINE
8
BLACK
6
CONTINUOUS
10
5.1649
20
-1.97327
11
5.16471
21
-1.97357
0
LINE
8
BLACK
6
CONTINUOUS
10
5.16471
20
-1.97357
11
5.16466
21
-1.97392
0
LINE
8
BLACK
6
CONTINUOUS
10
5.16466
20
-1.97392
11
5.16397
21
-1.97472
0
LINE
8
BLACK
6
CONTINUOUS
10
5.16397
20
-1.97472
11
5.16341
21
-1.9756
0
LINE
8
BLACK
6
CONTINUOUS
10
5.16341
20
-1.9756
11
5.16308
21
-1.97575
0
LINE
8
BLACK
6
CONTINUOUS
10
5.16308
20
-1.97575
11
5.16284
21
-1.97602
0
LINE
8
BLACK
6
CONTINUOUS
10
5.16284
20
-1.97602
11
5.16184
21
-1.97632
0
LINE
8
BLACK
6
CONTINUOUS
10
5.16184
20
-1.97632
11
5.16088
21
-1.97675
0
LINE
8
BLACK
6
CONTINUOUS
10
5.16088
20
-1.97675
11
5.16053
21
-1.9767
0
LINE
8
BLACK
6
CONTINUOUS
10
5.16053
20
-1.9767
11
5.16018
21
-1.9768
0
LINE
8
BLACK
6
CONTINUOUS
10
5.16018
20
-1.9768
11
4.49581
21
-1.9768
0
LINE
8
BLACK
6
CONTINUOUS
10
4.49581
20
-1.9768
11
4.49581
21
-2.01125
0
LINE
8
BLACK
6
CONTINUOUS
10
4.49581
20
-2.01125
11
4.49561
21
-2.01264
0
LINE
8
BLACK
6
CONTINUOUS
10
4.49561
20
-2.01264
11
4.49542
21
-2.01294
0
LINE
8
BLACK
6
CONTINUOUS
10
4.49542
20
-2.01294
11
4.49537
21
-2.01329
0
LINE
8
BLACK
6
CONTINUOUS
10
4.49537
20
-2.01329
11
4.49468
21
-2.01409
0
LINE
8
BLACK
6
CONTINUOUS
10
4.49468
20
-2.01409
11
4.49411
21
-2.01497
0
LINE
8
BLACK
6
CONTINUOUS
10
4.49411
20
-2.01497
11
4.49379
21
-2.01512
0
LINE
8
BLACK
6
CONTINUOUS
10
4.49379
20
-2.01512
11
4.49355
21
-2.01539
0
LINE
8
BLACK
6
CONTINUOUS
10
4.49355
20
-2.01539
11
4.49255
21
-2.01569
0
LINE
8
BLACK
6
CONTINUOUS
10
4.49255
20
-2.01569
11
4.49159
21
-2.01612
0
LINE
8
BLACK
6
CONTINUOUS
10
4.49159
20
-2.01612
11
4.49124
21
-2.01607
0
LINE
8
BLACK
6
CONTINUOUS
10
4.49124
20
-2.01607
11
4.49089
21
-2.01617
0
LINE
8
BLACK
6
CONTINUOUS
10
4.49089
20
-2.01617
11
3.97908
21
-2.01617
0
LINE
8
BLACK
6
CONTINUOUS
10
3.97908
20
-2.01617
11
3.97769
21
-2.01597
0
LINE
8
BLACK
6
CONTINUOUS
10
3.97769
20
-2.01597
11
3.97739
21
-2.01578
0
LINE
8
BLACK
6
CONTINUOUS
10
3.97739
20
-2.01578
11
3.97704
21
-2.01573
0
LINE
8
BLACK
6
CONTINUOUS
10
3.97704
20
-2.01573
11
3.97624
21
-2.01504
0
LINE
8
BLACK
6
CONTINUOUS
10
3.97624
20
-2.01504
11
3.97536
21
-2.01447
0
LINE
8
BLACK
6
CONTINUOUS
10
3.97536
20
-2.01447
11
3.97521
21
-2.01415
0
LINE
8
BLACK
6
CONTINUOUS
10
3.97521
20
-2.01415
11
3.97494
21
-2.01391
0
LINE
8
BLACK
6
CONTINUOUS
10
3.97494
20
-2.01391
11
3.97464
21
-2.0129
0
LINE
8
BLACK
6
CONTINUOUS
10
3.97464
20
-2.0129
11
3.97421
21
-2.01195
0
LINE
8
BLACK
6
CONTINUOUS
10
3.97421
20
-2.01195
11
3.97426
21
-2.0116
0
LINE
8
BLACK
6
CONTINUOUS
10
3.97426
20
-2.0116
11
3.97416
21
-2.01125
0
LINE
8
BLACK
6
CONTINUOUS
10
3.97416
20
-2.01125
11
3.97416
21
-1.9768
0
LINE
8
BLACK
6
CONTINUOUS
10
3.97416
20
-1.9768
11
2.20743
21
-1.9768
0
LINE
8
BLACK
6
CONTINUOUS
10
2.20743
20
-1.9768
11
2.20604
21
-1.9766
0
LINE
8
BLACK
6
CONTINUOUS
10
2.20604
20
-1.9766
11
2.20574
21
-1.97641
0
LINE
8
BLACK
6
CONTINUOUS
10
2.20574
20
-1.97641
11
2.20538
21
-1.97636
0
LINE
8
BLACK
6
CONTINUOUS
10
2.20538
20
-1.97636
11
2.20459
21
-1.97567
0
LINE
8
BLACK
6
CONTINUOUS
10
2.20459
20
-1.97567
11
2.20371
21
-1.9751
0
LINE
8
BLACK
6
CONTINUOUS
10
2.20371
20
-1.9751
11
2.20356
21
-1.97478
0
LINE
8
BLACK
6
CONTINUOUS
10
2.20356
20
-1.97478
11
2.20329
21
-1.97454
0
LINE
8
BLACK
6
CONTINUOUS
10
2.20329
20
-1.97454
11
2.20299
21
-1.97353
0
LINE
8
BLACK
6
CONTINUOUS
10
2.20299
20
-1.97353
11
2.20256
21
-1.97258
0
LINE
8
BLACK
6
CONTINUOUS
10
2.20256
20
-1.97258
11
2.20261
21
-1.97222
0
LINE
8
BLACK
6
CONTINUOUS
10
2.20261
20
-1.97222
11
2.20251
21
-1.97188
0
LINE
8
BLACK
6
CONTINUOUS
10
2.20251
20
-1.97188
11
2.20251
21
-0.992823
0
LINE
8
BLACK
6
CONTINUOUS
10
2.20251
20
-0.992823
11
2.13705
21
-0.99637
0
LINE
8
BLACK
6
CONTINUOUS
10
2.13705
20
-0.99637
11
2.06758
21
-1.00769
0
LINE
8
BLACK
6
CONTINUOUS
10
2.06758
20
-1.00769
11
1.99911
21
-1.02633
0
LINE
8
BLACK
6
CONTINUOUS
10
1.99911
20
-1.02633
11
1.9317
21
-1.05213
0
LINE
8
BLACK
6
CONTINUOUS
10
1.9317
20
-1.05213
11
1.86543
21
-1.0849
0
LINE
8
BLACK
6
CONTINUOUS
10
1.86543
20
-1.0849
11
1.80039
21
-1.12448
0
LINE
8
BLACK
6
CONTINUOUS
10
1.80039
20
-1.12448
11
1.73668
21
-1.17068
0
LINE
8
BLACK
6
CONTINUOUS
10
1.73668
20
-1.17068
11
1.67437
21
-1.22332
0
LINE
8
BLACK
6
CONTINUOUS
10
1.67437
20
-1.22332
11
1.61356
21
-1.28223
0
LINE
8
BLACK
6
CONTINUOUS
10
1.61356
20
-1.28223
11
1.55435
21
-1.34722
0
LINE
8
BLACK
6
CONTINUOUS
10
1.55435
20
-1.34722
11
1.49681
21
-1.41811
0
LINE
8
BLACK
6
CONTINUOUS
10
1.49681
20
-1.41811
11
1.44105
21
-1.49471
0
LINE
8
BLACK
6
CONTINUOUS
10
1.44105
20
-1.49471
11
1.38715
21
-1.57684
0
LINE
8
BLACK
6
CONTINUOUS
10
1.38715
20
-1.57684
11
1.3352
21
-1.66432
0
LINE
8
BLACK
6
CONTINUOUS
10
1.3352
20
-1.66432
11
1.2853
21
-1.75695
0
LINE
8
BLACK
6
CONTINUOUS
10
1.2853
20
-1.75695
11
1.23753
21
-1.85455
0
LINE
8
BLACK
6
CONTINUOUS
10
1.23753
20
-1.85455
11
1.19197
21
-1.95694
0
LINE
8
BLACK
6
CONTINUOUS
10
1.19197
20
-1.95694
11
1.14872
21
-2.06393
0
LINE
8
BLACK
6
CONTINUOUS
10
1.14872
20
-2.06393
11
1.10787
21
-2.17533
0
LINE
8
BLACK
6
CONTINUOUS
10
1.10787
20
-2.17533
11
1.0695
21
-2.29095
0
LINE
8
BLACK
6
CONTINUOUS
10
1.0695
20
-2.29095
11
1.0337
21
-2.41062
0
LINE
8
BLACK
6
CONTINUOUS
10
1.0337
20
-2.41062
11
1.00056
21
-2.53413
0
LINE
8
BLACK
6
CONTINUOUS
10
1.00056
20
-2.53413
11
0.970157
21
-2.66132
0
LINE
8
BLACK
6
CONTINUOUS
10
0.970157
20
-2.66132
11
0.942589
21
-2.79199
0
LINE
8
BLACK
6
CONTINUOUS
10
0.942589
20
-2.79199
11
0.917939
21
-2.92596
0
LINE
8
BLACK
6
CONTINUOUS
10
0.917939
20
-2.92596
11
0.896295
21
-3.06303
0
LINE
8
BLACK
6
CONTINUOUS
10
0.896295
20
-3.06303
11
0.877742
21
-3.20303
0
LINE
8
BLACK
6
CONTINUOUS
10
0.877742
20
-3.20303
11
0.862369
21
-3.34577
0
LINE
8
BLACK
6
CONTINUOUS
10
0.862369
20
-3.34577
11
0.85026
21
-3.49106
0
LINE
8
BLACK
6
CONTINUOUS
10
0.85026
20
-3.49106
11
0.841504
21
-3.63872
0
LINE
8
BLACK
6
CONTINUOUS
10
0.841504
20
-3.63872
11
0.836187
21
-3.78855
0
LINE
8
BLACK
6
CONTINUOUS
10
0.836187
20
-3.78855
11
0.834396
21
-3.94038
0
LINE
8
BLACK
6
CONTINUOUS
10
0.834396
20
-3.94038
11
0.836187
21
-4.09222
0
LINE
8
BLACK
6
CONTINUOUS
10
0.836187
20
-4.09222
11
0.841504
21
-4.24205
0
LINE
8
BLACK
6
CONTINUOUS
10
0.841504
20
-4.24205
11
0.85026
21
-4.38971
0
LINE
8
BLACK
6
CONTINUOUS
10
0.85026
20
-4.38971
11
0.862369
21
-4.535
0
LINE
8
BLACK
6
CONTINUOUS
10
0.862369
20
-4.535
11
0.877742
21
-4.67774
0
LINE
8
BLACK
6
CONTINUOUS
10
0.877742
20
-4.67774
11
0.896295
21
-4.81774
0
LINE
8
BLACK
6
CONTINUOUS
10
0.896295
20
-4.81774
11
0.917939
21
-4.95481
0
LINE
8
BLACK
6
CONTINUOUS
10
0.917939
20
-4.95481
11
0.942589
21
-5.08878
0
LINE
8
BLACK
6
CONTINUOUS
10
0.942589
20
-5.08878
11
0.970157
21
-5.21945
0
LINE
8
BLACK
6
CONTINUOUS
10
0.970157
20
-5.21945
11
1.00056
21
-5.34663
0
LINE
8
BLACK
6
CONTINUOUS
10
1.00056
20
-5.34663
11
1.0337
21
-5.47015
0
LINE
8
BLACK
6
CONTINUOUS
10
1.0337
20
-5.47015
11
1.0695
21
-5.58982
0
LINE
8
BLACK
6
CONTINUOUS
10
1.0695
20
-5.58982
11
1.10787
21
-5.70544
0
LINE
8
BLACK
6
CONTINUOUS
10
1.10787
20
-5.70544
11
1.14872
21
-5.81684
0
LINE
8
BLACK
6
CONTINUOUS
10
1.14872
20
-5.81684
11
1.19197
21
-5.92383
0
LINE
8
BLACK
6
CONTINUOUS
10
1.19197
20
-5.92383
11
1.23753
21
-6.02622
0
LINE
8
BLACK
6
CONTINUOUS
10
1.23753
20
-6.02622
11
1.2853
21
-6.12382
0
LINE
8
BLACK
6
CONTINUOUS
10
1.2853
20
-6.12382
11
1.3352
21
-6.21645
0
LINE
8
BLACK
6
CONTINUOUS
10
1.3352
20
-6.21645
11
1.38715
21
-6.30392
0
LINE
8
BLACK
6
CONTINUOUS
10
1.38715
20
-6.30392
11
1.44105
21
-6.38606
0
LINE
8
BLACK
6
CONTINUOUS
10
1.44105
20
-6.38606
11
1.49681
21
-6.46266
0
LINE
8
BLACK
6
CONTINUOUS
10
1.49681
20
-6.46266
11
1.55435
21
-6.53355
0
LINE
8
BLACK
6
CONTINUOUS
10
1.55435
20
-6.53355
11
1.61356
21
-6.59854
0
LINE
8
BLACK
6
CONTINUOUS
10
1.61356
20
-6.59854
11
1.67437
21
-6.65745
0
LINE
8
BLACK
6
CONTINUOUS
10
1.67437
20
-6.65745
11
1.73668
21
-6.71009
0
LINE
8
BLACK
6
CONTINUOUS
10
1.73668
20
-6.71009
11
1.80039
21
-6.75629
0
LINE
8
BLACK
6
CONTINUOUS
10
1.80039
20
-6.75629
11
1.86543
21
-6.79586
0
LINE
8
BLACK
6
CONTINUOUS
10
1.86543
20
-6.79586
11
1.9317
21
-6.82864
0
LINE
8
BLACK
6
CONTINUOUS
10
1.9317
20
-6.82864
11
1.99911
21
-6.85443
0
LINE
8
BLACK
6
CONTINUOUS
10
1.99911
20
-6.85443
11
2.06758
21
-6.87308
0
LINE
8
BLACK
6
CONTINUOUS
10
2.06758
20
-6.87308
11
2.13705
21
-6.8844
0
LINE
8
BLACK
6
CONTINUOUS
10
2.13705
20
-6.8844
11
2.20251
21
-6.88794
0
LINE
8
BLACK
6
CONTINUOUS
10
2.20251
20
-6.88794
11
2.20251
21
-5.90889
0
LINE
8
BLACK
6
CONTINUOUS
10
2.20251
20
-5.90889
11
2.2027
21
-5.9075
0
LINE
8
BLACK
6
CONTINUOUS
10
2.2027
20
-5.9075
11
2.2029
21
-5.9072
0
LINE
8
BLACK
6
CONTINUOUS
10
2.2029
20
-5.9072
11
2.20295
21
-5.90684
0
LINE
8
BLACK
6
CONTINUOUS
10
2.20295
20
-5.90684
11
2.20364
21
-5.90605
0
LINE
8
BLACK
6
CONTINUOUS
10
2.20364
20
-5.90605
11
2.2042
21
-5.90517
0
LINE
8
BLACK
6
CONTINUOUS
10
2.2042
20
-5.90517
11
2.20453
21
-5.90502
0
LINE
8
BLACK
6
CONTINUOUS
10
2.20453
20
-5.90502
11
2.20477
21
-5.90475
0
LINE
8
BLACK
6
CONTINUOUS
10
2.20477
20
-5.90475
11
2.20577
21
-5.90445
0
LINE
8
BLACK
6
CONTINUOUS
10
2.20577
20
-5.90445
11
2.20673
21
-5.90402
0
LINE
8
BLACK
6
CONTINUOUS
10
2.20673
20
-5.90402
11
2.20708
21
-5.90407
0
LINE
8
BLACK
6
CONTINUOUS
10
2.20708
20
-5.90407
11
2.20743
21
-5.90397
0
LINE
8
BLACK
6
CONTINUOUS
10
2.20743
20
-5.90397
11
4.13164
21
-5.90397
0
LINE
8
BLACK
6
CONTINUOUS
10
4.13164
20
-5.90397
11
4.13164
21
-5.86952
0
LINE
8
BLACK
6
CONTINUOUS
10
4.13164
20
-5.86952
11
4.13184
21
-5.86813
0
LINE
8
BLACK
6
CONTINUOUS
10
4.13184
20
-5.86813
11
4.13203
21
-5.86783
0
LINE
8
BLACK
6
CONTINUOUS
10
4.13203
20
-5.86783
11
4.13208
21
-5.86747
0
LINE
8
BLACK
6
CONTINUOUS
10
4.13208
20
-5.86747
11
4.13277
21
-5.86668
0
LINE
8
BLACK
6
CONTINUOUS
10
4.13277
20
-5.86668
11
4.13334
21
-5.8658
0
LINE
8
BLACK
6
CONTINUOUS
10
4.13334
20
-5.8658
11
4.13366
21
-5.86565
0
LINE
8
BLACK
6
CONTINUOUS
10
4.13366
20
-5.86565
11
4.1339
21
-5.86538
0
LINE
8
BLACK
6
CONTINUOUS
10
4.1339
20
-5.86538
11
4.13491
21
-5.86508
0
LINE
8
BLACK
6
CONTINUOUS
10
4.13491
20
-5.86508
11
4.13586
21
-5.86465
0
LINE
8
BLACK
6
CONTINUOUS
10
4.13586
20
-5.86465
11
4.13622
21
-5.8647
0
LINE
8
BLACK
6
CONTINUOUS
10
4.13622
20
-5.8647
11
4.13656
21
-5.8646
0
LINE
8
BLACK
6
CONTINUOUS
10
4.13656
20
-5.8646
11
4.49089
21
-5.8646
0
LINE
8
BLACK
6
CONTINUOUS
10
4.49089
20
-5.8646
11
4.49228
21
-5.8648
0
LINE
8
BLACK
6
CONTINUOUS
10
4.49228
20
-5.8648
11
4.49258
21
-5.86499
0
LINE
8
BLACK
6
CONTINUOUS
10
4.49258
20
-5.86499
11
4.49294
21
-5.86504
0
LINE
8
BLACK
6
CONTINUOUS
10
4.49294
20
-5.86504
11
4.49373
21
-5.86573
0
LINE
8
BLACK
6
CONTINUOUS
10
4.49373
20
-5.86573
11
4.49461
21
-5.8663
0
LINE
8
BLACK
6
CONTINUOUS
10
4.49461
20
-5.8663
11
4.49476
21
-5.86662
0
LINE
8
BLACK
6
CONTINUOUS
10
4.49476
20
-5.86662
11
4.49503
21
-5.86686
0
LINE
8
BLACK
6
CONTINUOUS
10
4.49503
20
-5.86686
11
4.49533
21
-5.86786
0
LINE
8
BLACK
6
CONTINUOUS
10
4.49533
20
-5.86786
11
4.49576
21
-5.86882
0
LINE
8
BLACK
6
CONTINUOUS
10
4.49576
20
-5.86882
11
4.49571
21
-5.86917
0
LINE
8
BLACK
6
CONTINUOUS
10
4.49571
20
-5.86917
11
4.49581
21
-5.86952
0
LINE
8
BLACK
6
CONTINUOUS
10
4.49581
20
-5.86952
11
4.49581
21
-5.90397
0
LINE
8
BLACK
6
CONTINUOUS
10
4.49581
20
-5.90397
11
5.16018
21
-5.90397
0
LINE
8
BLACK
6
CONTINUOUS
10
5.16018
20
-5.90397
11
5.16157
21
-5.90417
0
LINE
8
BLACK
6
CONTINUOUS
10
5.16157
20
-5.90417
11
5.16187
21
-5.90436
0
LINE
8
BLACK
6
CONTINUOUS
10
5.16187
20
-5.90436
11
5.16223
21
-5.90441
0
LINE
8
BLACK
6
CONTINUOUS
10
5.16223
20
-5.90441
11
5.16302
21
-5.9051
0
LINE
8
BLACK
6
CONTINUOUS
10
5.16302
20
-5.9051
11
5.1639
21
-5.90567
0
LINE
8
BLACK
6
CONTINUOUS
10
5.1639
20
-5.90567
11
5.16405
21
-5.90599
0
LINE
8
BLACK
6
CONTINUOUS
10
5.16405
20
-5.90599
11
5.16432
21
-5.90623
0
LINE
8
BLACK
6
CONTINUOUS
10
5.16432
20
-5.90623
11
5.16462
21
-5.90723
0
LINE
8
BLACK
6
CONTINUOUS
10
5.16462
20
-5.90723
11
5.16505
21
-5.90819
0
LINE
8
BLACK
6
CONTINUOUS
10
5.16505
20
-5.90819
11
5.165
21
-5.90854
0
LINE
8
BLACK
6
CONTINUOUS
10
5.165
20
-5.90854
11
5.1651
21
-5.90889
0
LINE
8
BLACK
6
CONTINUOUS
10
5.1651
20
-5.90889
11
5.1651
21
-6.88822
0
LINE
8
BLACK
6
CONTINUOUS
10
5.1651
20
-6.88822
11
6.57258
21
-6.88822
0
LINE
8
BLACK
6
CONTINUOUS
10
6.57258
20
-6.88822
11
6.57258
21
-5.90889
0
LINE
8
BLACK
6
CONTINUOUS
10
6.57258
20
-5.90889
11
6.57278
21
-5.9075
0
LINE
8
BLACK
6
CONTINUOUS
10
6.57278
20
-5.9075
11
6.57298
21
-5.9072
0
LINE
8
BLACK
6
CONTINUOUS
10
6.57298
20
-5.9072
11
6.57303
21
-5.90684
0
LINE
8
BLACK
6
CONTINUOUS
10
6.57303
20
-5.90684
11
6.57372
21
-5.90605
0
LINE
8
BLACK
6
CONTINUOUS
10
6.57372
20
-5.90605
11
6.57428
21
-5.90517
0
LINE
8
BLACK
6
CONTINUOUS
10
6.57428
20
-5.90517
11
6.57461
21
-5.90502
0
LINE
8
BLACK
6
CONTINUOUS
10
6.57461
20
-5.90502
11
6.57485
21
-5.90475
0
LINE
8
BLACK
6
CONTINUOUS
10
6.57485
20
-5.90475
11
6.57585
21
-5.90445
0
LINE
8
BLACK
6
CONTINUOUS
10
6.57585
20
-5.90445
11
6.57681
21
-5.90402
0
LINE
8
BLACK
6
CONTINUOUS
10
6.57681
20
-5.90402
11
6.57716
21
-5.90407
0
LINE
8
BLACK
6
CONTINUOUS
10
6.57716
20
-5.90407
11
6.57751
21
-5.90397
0
LINE
8
BLACK
6
CONTINUOUS
10
6.57751
20
-5.90397
11
7.24188
21
-5.90397
0
LINE
8
BLACK
6
CONTINUOUS
10
7.24188
20
-5.90397
11
7.24188
21
-5.86952
0
LINE
8
BLACK
6
CONTINUOUS
10
7.24188
20
-5.86952
11
7.24208
21
-5.86813
0
LINE
8
BLACK
6
CONTINUOUS
10
7.24208
20
-5.86813
11
7.24227
21
-5.86783
0
LINE
8
BLACK
6
CONTINUOUS
10
7.24227
20
-5.86783
11
7.24232
21
-5.86747
0
LINE
8
BLACK
6
CONTINUOUS
10
7.24232
20
-5.86747
11
7.24301
21
-5.86668
0
LINE
8
BLACK
6
CONTINUOUS
10
7.24301
20
-5.86668
11
7.24357
21
-5.8658
0
LINE
8
BLACK
6
CONTINUOUS
10
7.24357
20
-5.8658
11
7.2439
21
-5.86565
0
LINE
8
BLACK
6
CONTINUOUS
10
7.2439
20
-5.86565
11
7.24414
21
-5.86538
0
LINE
8
BLACK
6
CONTINUOUS
10
7.24414
20
-5.86538
11
7.24514
21
-5.86508
0
LINE
8
BLACK
6
CONTINUOUS
10
7.24514
20
-5.86508
11
7.2461
21
-5.86465
0
LINE
8
BLACK
6
CONTINUOUS
10
7.2461
20
-5.86465
11
7.24645
21
-5.8647
0
LINE
8
BLACK
6
CONTINUOUS
10
7.24645
20
-5.8647
11
7.2468
21
-5.8646
0
LINE
8
BLACK
6
CONTINUOUS
10
7.2468
20
-5.8646
11
7.60113
21
-5.8646
0
LINE
8
BLACK
6
CONTINUOUS
10
7.60113
20
-5.8646
11
7.60251
21
-5.8648
0
LINE
8
BLACK
6
CONTINUOUS
10
7.60251
20
-5.8648
11
7.60282
21
-5.86499
0
LINE
8
BLACK
6
CONTINUOUS
10
7.60282
20
-5.86499
11
7.60317
21
-5.86504
0
LINE
8
BLACK
6
CONTINUOUS
10
7.60317
20
-5.86504
11
7.60396
21
-5.86573
0
LINE
8
BLACK
6
CONTINUOUS
10
7.60396
20
-5.86573
11
7.60485
21
-5.8663
0
LINE
8
BLACK
6
CONTINUOUS
10
7.60485
20
-5.8663
11
7.605
21
-5.86662
0
LINE
8
BLACK
6
CONTINUOUS
10
7.605
20
-5.86662
11
7.60527
21
-5.86686
0
LINE
8
BLACK
6
CONTINUOUS
10
7.60527
20
-5.86686
11
7.60556
21
-5.86786
0
LINE
8
BLACK
6
CONTINUOUS
10
7.60556
20
-5.86786
11
7.606
21
-5.86882
0
LINE
8
BLACK
6
CONTINUOUS
10
7.606
20
-5.86882
11
7.60595
21
-5.86917
0
LINE
8
BLACK
6
CONTINUOUS
10
7.60595
20
-5.86917
11
7.60605
21
-5.86952
0
LINE
8
BLACK
6
CONTINUOUS
10
7.60605
20
-5.86952
11
7.60605
21
-5.90397
0
LINE
8
BLACK
6
CONTINUOUS
10
7.60605
20
-5.90397
11
9.53026
21
-5.90397
0
LINE
8
BLACK
6
CONTINUOUS
10
9.53026
20
-5.90397
11
9.53165
21
-5.90417
0
LINE
8
BLACK
6
CONTINUOUS
10
9.53165
20
-5.90417
11
9.53195
21
-5.90436
0
LINE
8
BLACK
6
CONTINUOUS
10
9.53195
20
-5.90436
11
9.53231
21
-5.90441
0
LINE
8
BLACK
6
CONTINUOUS
10
9.53231
20
-5.90441
11
9.5331
21
-5.9051
0
LINE
8
BLACK
6
CONTINUOUS
10
9.5331
20
-5.9051
11
9.53398
21
-5.90567
0
LINE
8
BLACK
6
CONTINUOUS
10
9.53398
20
-5.90567
11
9.53413
21
-5.90599
0
LINE
8
BLACK
6
CONTINUOUS
10
9.53413
20
-5.90599
11
9.5344
21
-5.90623
0
LINE
8
BLACK
6
CONTINUOUS
10
9.5344
20
-5.90623
11
9.5347
21
-5.90723
0
LINE
8
BLACK
6
CONTINUOUS
10
9.5347
20
-5.90723
11
9.53513
21
-5.90819
0
LINE
8
BLACK
6
CONTINUOUS
10
9.53513
20
-5.90819
11
9.53508
21
-5.90854
0
LINE
8
BLACK
6
CONTINUOUS
10
9.53508
20
-5.90854
11
9.53518
21
-5.90889
0
LINE
8
BLACK
6
CONTINUOUS
10
9.53518
20
-5.90889
11
9.53518
21
-6.88794
0
LINE
8
BLACK
6
CONTINUOUS
10
9.53518
20
-6.88794
11
9.60064
21
-6.8844
0
LINE
8
BLACK
6
CONTINUOUS
10
9.60064
20
-6.8844
11
9.6701
21
-6.87308
0
LINE
8
BLACK
6
CONTINUOUS
10
9.6701
20
-6.87308
11
9.73858
21
-6.85443
0
LINE
8
BLACK
6
CONTINUOUS
10
9.73858
20
-6.85443
11
9.80599
21
-6.82864
0
LINE
8
BLACK
6
CONTINUOUS
10
9.80599
20
-6.82864
11
9.87226
21
-6.79586
0
LINE
8
BLACK
6
CONTINUOUS
10
9.87226
20
-6.79586
11
9.93729
21
-6.75629
0
LINE
8
BLACK
6
CONTINUOUS
10
9.93729
20
-6.75629
11
10.001
21
-6.71009
0
LINE
8
BLACK
6
CONTINUOUS
10
10.001
20
-6.71009
11
10.0633
21
-6.65745
0
LINE
8
BLACK
6
CONTINUOUS
10
10.0633
20
-6.65745
11
10.1241
21
-6.59854
0
LINE
8
BLACK
6
CONTINUOUS
10
10.1241
20
-6.59854
11
10.1833
21
-6.53355
0
LINE
8
BLACK
6
CONTINUOUS
10
10.1833
20
-6.53355
11
10.2409
21
-6.46266
0
LINE
8
BLACK
6
CONTINUOUS
10
10.2409
20
-6.46266
11
10.2966
21
-6.38606
0
LINE
8
BLACK
6
CONTINUOUS
10
10.2966
20
-6.38606
11
10.3505
21
-6.30392
0
LINE
8
BLACK
6
CONTINUOUS
10
10.3505
20
-6.30392
11
10.4025
21
-6.21645
0
LINE
8
BLACK
6
CONTINUOUS
10
10.4025
20
-6.21645
11
10.4524
21
-6.12382
0
LINE
8
BLACK
6
CONTINUOUS
10
10.4524
20
-6.12382
11
10.5002
21
-6.02622
0
LINE
8
BLACK
6
CONTINUOUS
10
10.5002
20
-6.02622
11
10.5457
21
-5.92383
0
LINE
8
BLACK
6
CONTINUOUS
10
10.5457
20
-5.92383
11
10.589
21
-5.81684
0
LINE
8
BLACK
6
CONTINUOUS
10
10.589
20
-5.81684
11
10.6298
21
-5.70544
0
LINE
8
BLACK
6
CONTINUOUS
10
10.6298
20
-5.70544
11
10.6682
21
-5.58982
0
LINE
8
BLACK
6
CONTINUOUS
10
10.6682
20
-5.58982
11
10.704
21
-5.47015
0
LINE
8
BLACK
6
CONTINUOUS
10
10.704
20
-5.47015
11
10.7371
21
-5.34663
0
LINE
8
BLACK
6
CONTINUOUS
10
10.7371
20
-5.34663
11
10.7675
21
-5.21945
0
LINE
8
BLACK
6
CONTINUOUS
10
10.7675
20
-5.21945
11
10.7951
21
-5.08878
0
LINE
8
BLACK
6
CONTINUOUS
10
10.7951
20
-5.08878
11
10.8197
21
-4.95481
0
LINE
8
BLACK
6
CONTINUOUS
10
10.8197
20
-4.95481
11
10.8414
21
-4.81774
0
LINE
8
BLACK
6
CONTINUOUS
10
10.8414
20
-4.81774
11
10.8599
21
-4.67774
0
LINE
8
BLACK
6
CONTINUOUS
10
10.8599
20
-4.67774
11
10.8753
21
-4.535
0
LINE
8
BLACK
6
CONTINUOUS
10
10.8753
20
-4.535
11
10.8874
21
-4.38971
0
LINE
8
BLACK
6
CONTINUOUS
10
10.8874
20
-4.38971
11
10.8962
21
-4.24205
0
LINE
8
BLACK
6
CONTINUOUS
10
10.8962
20
-4.24205
11
10.9015
21
-4.09222
0
LINE
8
BLACK
6
CONTINUOUS
10
10.9015
20
-4.09222
11
10.9033
21
-3.94038
0
LINE
8
BLACK
6
CONTINUOUS
10
10.9033
20
-3.94038
11
10.9015
21
-3.78855
0
LINE
8
BLACK
6
CONTINUOUS
10
10.9015
20
-3.78855
11
10.8962
21
-3.63872
0
LINE
8
BLACK
6
CONTINUOUS
10
10.8962
20
-3.63872
11
10.8874
21
-3.49106
0
LINE
8
BLACK
6
CONTINUOUS
10
10.8874
20
-3.49106
11
10.8753
21
-3.34577
0
LINE
8
BLACK
6
CONTINUOUS
10
10.8753
20
-3.34577
11
10.8599
21
-3.20303
0
LINE
8
BLACK
6
CONTINUOUS
10
10.8599
20
-3.20303
11
10.8414
21
-3.06303
0
LINE
8
BLACK
6
CONTINUOUS
10
10.8414
20
-3.06303
11
10.8197
21
-2.92596
0
LINE
8
BLACK
6
CONTINUOUS
10
10.8197
20
-2.92596
11
10.7951
21
-2.79199
0
LINE
8
BLACK
6
CONTINUOUS
10
10.7951
20
-2.79199
11
10.7675
21
-2.66132
0
LINE
8
BLACK
6
CONTINUOUS
10
10.7675
20
-2.66132
11
10.7371
21
-2.53413
0
LINE
8
BLACK
6
CONTINUOUS
10
10.7371
20
-2.53413
11
10.704
21
-2.41062
0
LINE
8
BLACK
6
CONTINUOUS
10
10.704
20
-2.41062
11
10.6682
21
-2.29095
0
LINE
8
BLACK
6
CONTINUOUS
10
10.6682
20
-2.29095
11
10.6298
21
-2.17533
0
LINE
8
BLACK
6
CONTINUOUS
10
10.6298
20
-2.17533
11
10.589
21
-2.06393
0
LINE
8
BLACK
6
CONTINUOUS
10
10.589
20
-2.06393
11
10.5457
21
-1.95694
0
LINE
8
BLACK
6
CONTINUOUS
10
10.5457
20
-1.95694
11
10.5002
21
-1.85455
0
LINE
8
BLACK
6
CONTINUOUS
10
10.5002
20
-1.85455
11
10.4524
21
-1.75695
0
LINE
8
BLACK
6
CONTINUOUS
10
10.4524
20
-1.75695
11
10.4025
21
-1.66432
0
LINE
8
BLACK
6
CONTINUOUS
10
10.4025
20
-1.66432
11
10.3505
21
-1.57684
0
LINE
8
BLACK
6
CONTINUOUS
10
10.3505
20
-1.57684
11
10.2966
21
-1.49471
0
LINE
8
BLACK
6
CONTINUOUS
10
10.2966
20
-1.49471
11
10.2409
21
-1.41811
0
LINE
8
BLACK
6
CONTINUOUS
10
10.2409
20
-1.41811
11
10.1833
21
-1.34722
0
LINE
8
BLACK
6
CONTINUOUS
10
10.1833
20
-1.34722
11
10.1241
21
-1.28223
0
LINE
8
BLACK
6
CONTINUOUS
10
10.1241
20
-1.28223
11
10.0633
21
-1.22332
0
LINE
8
BLACK
6
CONTINUOUS
10
10.0633
20
-1.22332
11
10.001
21
-1.17068
0
LINE
8
BLACK
6
CONTINUOUS
10
10.001
20
-1.17068
11
9.93729
21
-1.12448
0
LINE
8
BLACK
6
CONTINUOUS
10
9.93729
20
-1.12448
11
9.87226
21
-1.0849
0
LINE
8
BLACK
6
CONTINUOUS
10
9.87226
20
-1.0849
11
9.80599
21
-1.05213
0
LINE
8
BLACK
6
CONTINUOUS
10
9.80599
20
-1.05213
11
9.73858
21
-1.02633
0
LINE
8
BLACK
6
CONTINUOUS
10
9.73858
20
-1.02633
11
9.6701
21
-1.00769
0
LINE
8
BLACK
6
CONTINUOUS
10
9.6701
20
-1.00769
11
9.60064
21
-0.99637
0
LINE
8
BLACK
6
CONTINUOUS
10
9.60064
20
-0.99637
11
9.53518
21
-0.992823
0
LINE
8
BLACK
6
CONTINUOUS
10
9.53518
20
-0.992823
11
9.53518
21
-1.97188
0
LINE
8
BLACK
6
CONTINUOUS
10
9.53518
20
-1.97188
11
9.53498
21
-1.97327
0
LINE
8
BLACK
6
CONTINUOUS
10
9.53498
20
-1.97327
11
9.53479
21
-1.97357
0
LINE
8
BLACK
6
CONTINUOUS
10
9.53479
20
-1.97357
11
9.53474
21
-1.97392
0
LINE
8
BLACK
6
CONTINUOUS
10
9.53474
20
-1.97392
11
9.53405
21
-1.97472
0
LINE
8
BLACK
6
CONTINUOUS
10
9.53405
20
-1.97472
11
9.53348
21
-1.9756
0
LINE
8
BLACK
6
CONTINUOUS
10
9.53348
20
-1.9756
11
9.53316
21
-1.97575
0
LINE
8
BLACK
6
CONTINUOUS
10
9.53316
20
-1.97575
11
9.53292
21
-1.97602
0
LINE
8
BLACK
6
CONTINUOUS
10
9.53292
20
-1.97602
11
9.53192
21
-1.97632
0
LINE
8
BLACK
6
CONTINUOUS
10
9.53192
20
-1.97632
11
9.53096
21
-1.97675
0
LINE
8
BLACK
6
CONTINUOUS
10
9.53096
20
-1.97675
11
9.53061
21
-1.9767
0
LINE
8
BLACK
6
CONTINUOUS
10
9.53061
20
-1.9767
11
9.53026
21
-1.9768
0
LINE
8
BLACK
6
CONTINUOUS
10
9.53026
20
-1.9768
11
7.60605
21
-1.9768
0
LINE
8
BLACK
6
CONTINUOUS
10
7.60605
20
-1.9768
11
7.60605
21
-2.01125
0
LINE
8
BLACK
6
CONTINUOUS
10
7.60605
20
-2.01125
11
7.60585
21
-2.01264
0
LINE
8
BLACK
6
CONTINUOUS
10
7.60585
20
-2.01264
11
7.60566
21
-2.01294
0
LINE
8
BLACK
6
CONTINUOUS
10
7.60566
20
-2.01294
11
7.6056
21
-2.01329
0
LINE
8
BLACK
6
CONTINUOUS
10
7.6056
20
-2.01329
11
7.60492
21
-2.01409
0
LINE
8
BLACK
6
CONTINUOUS
10
7.60492
20
-2.01409
11
7.60435
21
-2.01497
0
LINE
8
BLACK
6
CONTINUOUS
10
7.60435
20
-2.01497
11
7.60402
21
-2.01512
0
LINE
8
BLACK
6
CONTINUOUS
10
7.60402
20
-2.01512
11
7.60379
21
-2.01539
0
LINE
8
BLACK
6
CONTINUOUS
10
7.60379
20
-2.01539
11
7.60278
21
-2.01569
0
LINE
8
BLACK
6
CONTINUOUS
10
7.60278
20
-2.01569
11
7.60183
21
-2.01612
0
LINE
8
BLACK
6
CONTINUOUS
10
7.60183
20
-2.01612
11
7.60147
21
-2.01607
0
LINE
8
BLACK
6
CONTINUOUS
10
7.60147
20
-2.01607
11
7.60113
21
-2.01617
0
LINE
8
BLACK
6
CONTINUOUS
10
7.60113
20
-2.01617
11
7.08932
21
-2.01617
0
LINE
8
BLACK
6
CONTINUOUS
10
7.08932
20
-2.01617
11
7.08793
21
-2.01597
0
LINE
8
BLACK
6
CONTINUOUS
10
7.08793
20
-2.01597
11
7.08763
21
-2.01578
0
LINE
8
BLACK
6
CONTINUOUS
10
7.08763
20
-2.01578
11
7.08727
21
-2.01573
0
LINE
8
BLACK
6
CONTINUOUS
10
7.08727
20
-2.01573
11
7.08648
21
-2.01504
0
LINE
8
BLACK
6
CONTINUOUS
10
7.08648
20
-2.01504
11
7.0856
21
-2.01447
0
LINE
8
BLACK
6
CONTINUOUS
10
7.0856
20
-2.01447
11
7.08545
21
-2.01415
0
LINE
8
BLACK
6
CONTINUOUS
10
7.08545
20
-2.01415
11
7.08518
21
-2.01391
0
LINE
8
BLACK
6
CONTINUOUS
10
7.08518
20
-2.01391
11
7.08488
21
-2.0129
0
LINE
8
BLACK
6
CONTINUOUS
10
7.08488
20
-2.0129
11
7.08445
21
-2.01195
0
LINE
8
BLACK
6
CONTINUOUS
10
7.08445
20
-2.01195
11
7.0845
21
-2.0116
0
LINE
8
BLACK
6
CONTINUOUS
10
7.0845
20
-2.0116
11
7.0844
21
-2.01125
0
LINE
8
BLACK
6
CONTINUOUS
10
7.0844
20
-2.01125
11
7.0844
21
-1.9768
0
LINE
8
BLACK
6
CONTINUOUS
10
7.0844
20
-1.9768
11
6.57751
21
-1.9768
0
LINE
8
BLACK
6
CONTINUOUS
10
6.57751
20
-1.9768
11
6.57612
21
-1.9766
0
LINE
8
BLACK
6
CONTINUOUS
10
6.57612
20
-1.9766
11
6.57582
21
-1.97641
0
LINE
8
BLACK
6
CONTINUOUS
10
6.57582
20
-1.97641
11
6.57546
21
-1.97636
0
LINE
8
BLACK
6
CONTINUOUS
10
6.57546
20
-1.97636
11
6.57467
21
-1.97567
0
LINE
8
BLACK
6
CONTINUOUS
10
6.57467
20
-1.97567
11
6.57379
21
-1.9751
0
LINE
8
BLACK
6
CONTINUOUS
10
6.57379
20
-1.9751
11
6.57364
21
-1.97478
0
LINE
8
BLACK
6
CONTINUOUS
10
6.57364
20
-1.97478
11
6.57337
21
-1.97454
0
LINE
8
BLACK
6
CONTINUOUS
10
6.57337
20
-1.97454
11
6.57307
21
-1.97353
0
LINE
8
BLACK
6
CONTINUOUS
10
6.57307
20
-1.97353
11
6.57263
21
-1.97258
0
LINE
8
BLACK
6
CONTINUOUS
10
6.57263
20
-1.97258
11
6.57269
21
-1.97222
0
LINE
8
BLACK
6
CONTINUOUS
10
6.57269
20
-1.97222
11
6.57258
21
-1.97188
0
LINE
8
BLACK
6
CONTINUOUS
10
6.57258
20
-1.97188
11
6.57258
21
-0.99255
0
LINE
8
BLACK
6
CONTINUOUS
10
6.57258
20
-0.99255
11
5.1651
21
-0.99255
  0
ENDSEC
  0
EOF
